<svg width="24" height="24" viewBox="0 0 24 24" fill="none" xmlns="http://www.w3.org/2000/svg">
<g clip-path="url(#clip0_1_781)">
<path d="M12 0.09375C18.6274 0.09375 24 5.46633 24 12.0938C24 18.0833 19.6118 23.0477 13.875 23.948V15.5625H16.6711L17.2031 12.0938H13.875V9.84274C13.875 8.89376 14.3399 7.96875 15.8306 7.96875H17.3438V5.01562C17.3438 5.01562 15.9705 4.78125 14.6576 4.78125C11.9165 4.78125 10.125 6.4425 10.125 9.45V12.0938H7.07812V15.5625H10.125V23.948C4.38823 23.0477 0 18.0833 0 12.0938C0 5.46633 5.37258 0.09375 12 0.09375Z" fill="white"/>
</g>
<defs>
<clipPath id="clip0_1_781">
<rect width="24" height="24" fill="white"/>
</clipPath>
</defs>
</svg>
