<svg width="56" height="58" viewBox="0 0 56 58" fill="none" xmlns="http://www.w3.org/2000/svg">
<path opacity="0.4" d="M17.3711 27.5235C17.3711 32.3009 13.4825 36.1737 8.68557 36.1737C3.88866 36.1737 0 32.3009 0 27.5235C0 22.7461 3.88866 18.8732 8.68557 18.8732C13.4825 18.8732 17.3711 22.7461 17.3711 27.5235Z" fill="white"/>
<path opacity="0.4" d="M34.2159 4.45618C34.2159 6.91726 32.2126 8.91236 29.7415 8.91236C27.2703 8.91236 25.2671 6.91726 25.2671 4.45618C25.2671 1.9951 27.2703 0 29.7415 0C32.2126 0 34.2159 1.9951 34.2159 4.45618Z" fill="white"/>
<path opacity="0.4" d="M51.0606 4.45618C51.0606 6.91726 49.0573 8.91236 46.5862 8.91236C44.1151 8.91236 42.1118 6.91726 42.1118 4.45618C42.1118 1.9951 44.1151 0 46.5862 0C49.0573 0 51.0606 1.9951 51.0606 4.45618Z" fill="white"/>
<path fill-rule="evenodd" clip-rule="evenodd" d="M8.68557 34.1995C12.3877 34.1995 15.3889 31.2105 15.3889 27.5235C15.3889 23.8364 12.3877 20.8475 8.68557 20.8475C4.98345 20.8475 1.98229 23.8364 1.98229 27.5235C1.98229 31.2105 4.98345 34.1995 8.68557 34.1995ZM8.68557 36.1737C13.4825 36.1737 17.3711 32.3009 17.3711 27.5235C17.3711 22.7461 13.4825 18.8732 8.68557 18.8732C3.88866 18.8732 0 22.7461 0 27.5235C0 32.3009 3.88866 36.1737 8.68557 36.1737Z" fill="white"/>
<path fill-rule="evenodd" clip-rule="evenodd" d="M8.6856 34.4002C9.233 34.4002 9.67675 34.8422 9.67675 35.3873V42.3247C9.71956 44.6164 10.4683 48.0723 12.5477 50.9288C14.5946 53.7406 17.9639 56.0258 23.4248 56.0258C28.8851 56.0258 32.2302 53.7413 34.249 50.9335C36.3024 48.0777 37.0198 44.6209 37.0412 42.329V34.3873C37.0412 33.8422 37.4849 33.4002 38.0323 33.4002C38.5797 33.4002 39.0235 33.8422 39.0235 34.3873V42.3337L39.0234 42.3425C39.0001 44.9437 38.2038 48.8241 35.8607 52.0829C33.4819 55.3914 29.5452 58 23.4248 58C17.3049 58 13.3484 55.3921 10.9429 52.0876C8.57244 48.8314 7.74126 44.9528 7.69462 42.3513C7.69451 42.3455 7.69446 42.3396 7.69446 42.3337V35.3873C7.69446 34.8422 8.13821 34.4002 8.6856 34.4002Z" fill="white"/>
<path fill-rule="evenodd" clip-rule="evenodd" d="M21.319 7.401C21.8664 7.401 22.3102 7.84295 22.3102 8.38811V16.5466C22.3595 19.2729 23.2275 23.3771 25.6405 26.772C28.021 30.1213 31.9317 32.8274 38.2393 32.8274C44.5463 32.8274 48.4297 30.1221 50.7782 26.7768C53.161 23.3825 53.9927 19.2775 54.0174 16.551V8.38811C54.0174 7.84295 54.4611 7.401 55.0085 7.401C55.5559 7.401 55.9997 7.84295 55.9997 8.38811V16.5554L55.9996 16.564C55.9731 19.5906 55.0671 24.1127 52.4028 27.908C49.7029 31.7539 45.2268 34.8017 38.2393 34.8017C31.2524 34.8017 26.7533 31.7547 24.0225 27.9127C21.3267 24.1198 20.381 19.5994 20.328 16.5726C20.3279 16.5669 20.3279 16.5611 20.3279 16.5554V8.38811C20.3279 7.84295 20.7716 7.401 21.319 7.401Z" fill="white"/>
<path fill-rule="evenodd" clip-rule="evenodd" d="M29.7415 6.93813C31.1178 6.93813 32.2336 5.82692 32.2336 4.45618C32.2336 3.08543 31.1178 1.97423 29.7415 1.97423C28.3651 1.97423 27.2494 3.08543 27.2494 4.45618C27.2494 5.82692 28.3651 6.93813 29.7415 6.93813ZM29.7415 8.91236C32.2126 8.91236 34.2159 6.91726 34.2159 4.45618C34.2159 1.9951 32.2126 0 29.7415 0C27.2703 0 25.2671 1.9951 25.2671 4.45618C25.2671 6.91726 27.2703 8.91236 29.7415 8.91236Z" fill="white"/>
<path fill-rule="evenodd" clip-rule="evenodd" d="M46.5863 6.93813C47.9626 6.93813 49.0784 5.82692 49.0784 4.45618C49.0784 3.08543 47.9626 1.97423 46.5863 1.97423C45.2099 1.97423 44.0942 3.08543 44.0942 4.45618C44.0942 5.82692 45.2099 6.93813 46.5863 6.93813ZM46.5863 8.91236C49.0574 8.91236 51.0606 6.91726 51.0606 4.45618C51.0606 1.9951 49.0574 0 46.5863 0C44.1151 0 42.1119 1.9951 42.1119 4.45618C42.1119 6.91726 44.1151 8.91236 46.5863 8.91236Z" fill="white"/>
<path d="M50 5.51265C52.7821 5.89758 53.8449 7.78374 54.0445 8.61712C54.1715 9.14741 54.7061 9.47476 55.2386 9.34828C55.771 9.22179 56.0997 8.68937 55.9727 8.15908C55.5998 6.60199 53.873 3.93495 50 3.52313V5.51265Z" fill="white"/>
<path d="M26.5 3.49689C22.488 3.804 20.725 6.57986 20.3539 8.16379C20.2295 8.6947 20.5608 9.22551 21.0939 9.34939C21.627 9.47326 22.16 9.1433 22.2843 8.6124C22.4887 7.73997 23.5934 5.76926 26.5 5.47921V3.49689Z" fill="white"/>
</svg>
