<svg width="56" height="36" viewBox="0 0 56 36" fill="none" xmlns="http://www.w3.org/2000/svg">
<g opacity="0.4">
<path d="M10.8691 3.89873C10.8691 1.74552 12.6147 0 14.7679 0V0C16.9211 0 18.6666 1.74552 18.6666 3.89873V32.1013C18.6666 34.2545 16.9211 36 14.7679 36V36C12.6147 36 10.8691 34.2545 10.8691 32.1013V3.89873Z" fill="white"/>
<path d="M4.96204 6.43719C4.96204 4.28397 6.70756 2.53845 8.86077 2.53845V2.53845C11.014 2.53845 12.7595 4.28398 12.7595 6.43719V29.5628C12.7595 31.716 11.014 33.4615 8.86077 33.4615V33.4615C6.70756 33.4615 4.96204 31.716 4.96204 29.5628V6.43719Z" fill="white"/>
<path d="M0 14.9646C0 13.0724 1.53394 11.5385 3.42616 11.5385V11.5385C5.31838 11.5385 6.85232 13.0724 6.85232 14.9646V21.0354C6.85232 22.9276 5.31838 24.4615 3.42616 24.4615V24.4615C1.53394 24.4615 0 22.9276 0 21.0354V14.9646Z" fill="white"/>
</g>
<g opacity="0.4">
<path d="M45.1308 3.89873C45.1308 1.74552 43.3853 0 41.2321 0V0C39.0789 0 37.3334 1.74552 37.3334 3.89873V32.1013C37.3334 34.2545 39.0789 36 41.2321 36V36C43.3853 36 45.1308 34.2545 45.1308 32.1013V3.89873Z" fill="white"/>
<path d="M51.038 6.43719C51.038 4.28397 49.2924 2.53845 47.1392 2.53845V2.53845C44.986 2.53845 43.2405 4.28398 43.2405 6.43719V29.5628C43.2405 31.716 44.986 33.4615 47.1392 33.4615V33.4615C49.2924 33.4615 51.038 31.716 51.038 29.5628V6.43719Z" fill="white"/>
<path d="M56 14.9646C56 13.0724 54.4661 11.5385 52.5738 11.5385V11.5385C50.6816 11.5385 49.1477 13.0724 49.1477 14.9646V21.0354C49.1477 22.9276 50.6816 24.4615 52.5738 24.4615V24.4615C54.4661 24.4615 56 22.9276 56 21.0354V14.9646Z" fill="white"/>
</g>
<path fill-rule="evenodd" clip-rule="evenodd" d="M17.1941 13.6154C17.1941 13.0631 17.6418 12.6154 18.1941 12.6154H37.8059C38.3582 12.6154 38.8059 13.0631 38.8059 13.6154C38.8059 14.1677 38.3582 14.6154 37.8059 14.6154H18.1941C17.6418 14.6154 17.1941 14.1677 17.1941 13.6154Z" fill="white"/>
<path fill-rule="evenodd" clip-rule="evenodd" d="M17.1941 22.8461C17.1941 22.2938 17.6418 21.8461 18.1941 21.8461H37.8059C38.3582 21.8461 38.8059 22.2938 38.8059 22.8461C38.8059 23.3984 38.3582 23.8461 37.8059 23.8461H18.1941C17.6418 23.8461 17.1941 23.3984 17.1941 22.8461Z" fill="white"/>
<path fill-rule="evenodd" clip-rule="evenodd" d="M16.6666 32.1013V3.89873C16.6666 2.85009 15.8165 2 14.7679 2C13.7192 2 12.8691 2.85009 12.8691 3.89873V32.1013C12.8691 33.1499 13.7192 34 14.7679 34C15.8165 34 16.6666 33.1499 16.6666 32.1013ZM14.7679 0C12.6147 0 10.8691 1.74552 10.8691 3.89873V32.1013C10.8691 34.2545 12.6147 36 14.7679 36C16.9211 36 18.6666 34.2545 18.6666 32.1013V3.89873C18.6666 1.74552 16.9211 0 14.7679 0Z" fill="white"/>
<path fill-rule="evenodd" clip-rule="evenodd" d="M10.7595 29.5628V6.43719C10.7595 5.38854 9.90941 4.53845 8.86077 4.53845C7.81213 4.53845 6.96204 5.38854 6.96204 6.43719V29.5628C6.96204 30.6114 7.81213 31.4615 8.86077 31.4615C9.90941 31.4615 10.7595 30.6114 10.7595 29.5628ZM8.86077 2.53845C6.70756 2.53845 4.96204 4.28397 4.96204 6.43719V29.5628C4.96204 31.716 6.70756 33.4615 8.86077 33.4615C11.014 33.4615 12.7595 31.716 12.7595 29.5628V6.43719C12.7595 4.28398 11.014 2.53845 8.86077 2.53845Z" fill="white"/>
<path fill-rule="evenodd" clip-rule="evenodd" d="M4.85232 21.0354V14.9646C4.85232 14.177 4.21381 13.5385 3.42616 13.5385C2.63852 13.5385 2 14.177 2 14.9646V21.0354C2 21.823 2.63851 22.4615 3.42616 22.4615C4.2138 22.4615 4.85232 21.823 4.85232 21.0354ZM3.42616 11.5385C1.53394 11.5385 0 13.0724 0 14.9646V21.0354C0 22.9276 1.53394 24.4615 3.42616 24.4615C5.31838 24.4615 6.85232 22.9276 6.85232 21.0354V14.9646C6.85232 13.0724 5.31838 11.5385 3.42616 11.5385Z" fill="white"/>
<path fill-rule="evenodd" clip-rule="evenodd" d="M39.3334 32.1013V3.89873C39.3334 2.85009 40.1835 2 41.2322 2C42.2808 2 43.1309 2.85009 43.1309 3.89873V32.1013C43.1309 33.1499 42.2808 34 41.2322 34C40.1835 34 39.3334 33.1499 39.3334 32.1013ZM41.2322 0C43.3854 0 45.1309 1.74552 45.1309 3.89873V32.1013C45.1309 34.2545 43.3854 36 41.2322 36C39.079 36 37.3334 34.2545 37.3334 32.1013V3.89873C37.3334 1.74552 39.079 0 41.2322 0Z" fill="white"/>
<path fill-rule="evenodd" clip-rule="evenodd" d="M45.2406 29.5628V6.43719C45.2406 5.38854 46.0906 4.53845 47.1393 4.53845C48.1879 4.53845 49.038 5.38854 49.038 6.43719V29.5628C49.038 30.6114 48.1879 31.4615 47.1393 31.4615C46.0906 31.4615 45.2406 30.6114 45.2406 29.5628ZM47.1393 2.53845C49.2925 2.53845 51.038 4.28397 51.038 6.43719V29.5628C51.038 31.716 49.2925 33.4615 47.1393 33.4615C44.9861 33.4615 43.2406 31.716 43.2406 29.5628V6.43719C43.2406 4.28398 44.9861 2.53845 47.1393 2.53845Z" fill="white"/>
<path fill-rule="evenodd" clip-rule="evenodd" d="M51.1477 21.0354V14.9646C51.1477 14.177 51.7863 13.5385 52.5739 13.5385C53.3615 13.5385 54.0001 14.177 54.0001 14.9646V21.0354C54.0001 21.823 53.3615 22.4615 52.5739 22.4615C51.7863 22.4615 51.1477 21.823 51.1477 21.0354ZM52.5739 11.5385C54.4661 11.5385 56.0001 13.0724 56.0001 14.9646V21.0354C56.0001 22.9276 54.4661 24.4615 52.5739 24.4615C50.6817 24.4615 49.1477 22.9276 49.1477 21.0354V14.9646C49.1477 13.0724 50.6817 11.5385 52.5739 11.5385Z" fill="white"/>
</svg>
