<svg width="50" height="58" viewBox="0 0 50 58" fill="none" xmlns="http://www.w3.org/2000/svg">
<path opacity="0.4" d="M24.5139 12.0651C24.1026 7.82373 25.5685 -0.292212 34.7228 1.17508C35.1715 4.91972 33.758 12.3402 24.5139 12.0651Z" fill="white"/>
<path opacity="0.4" fill-rule="evenodd" clip-rule="evenodd" d="M25.4559 11.0659C29.1809 10.9523 31.2544 9.41046 32.4089 7.59162C33.522 5.83786 33.8498 3.7133 33.7888 2.06035C32.0292 1.88113 30.6658 2.11463 29.6088 2.57728C28.4048 3.1043 27.523 3.96141 26.8833 5.00276C25.7653 6.82281 25.4119 9.17307 25.4559 11.0659ZM28.8069 0.745106C30.4361 0.0320026 32.4449 -0.202786 34.881 0.187687C35.3219 0.258355 35.6625 0.612754 35.7157 1.0561C35.9586 3.0832 35.7086 6.12509 34.0974 8.66341C32.4374 11.2788 29.4237 13.2117 24.4842 13.0647C23.9809 13.0497 23.5672 12.6628 23.5186 12.1617C23.3011 9.9186 23.5646 6.5844 25.1792 3.95595C25.9988 2.62154 27.1743 1.4597 28.8069 0.745106Z" fill="white"/>
<path fill-rule="evenodd" clip-rule="evenodd" d="M9.86215 4.1884C9.86785 3.63614 10.3202 3.19308 10.8724 3.19878C15.1174 3.24265 24.0732 5.98281 25.9187 16.576C26.0135 17.1201 25.6493 17.638 25.1052 17.7328C24.5611 17.8276 24.0432 17.4634 23.9484 16.9193C22.3302 7.63105 14.5445 5.23683 10.8518 5.19868C10.2995 5.19297 9.85644 4.74065 9.86215 4.1884Z" fill="white"/>
<path fill-rule="evenodd" clip-rule="evenodd" d="M25.4559 11.0659C29.1809 10.9523 31.2544 9.41046 32.4089 7.59162C33.522 5.83786 33.8498 3.7133 33.7888 2.06035C32.0292 1.88113 30.6658 2.11463 29.6088 2.57728C28.4048 3.1043 27.523 3.96141 26.8833 5.00276C25.7653 6.82281 25.4119 9.17307 25.4559 11.0659ZM28.8069 0.745106C30.4361 0.0320027 32.4449 -0.202786 34.881 0.187687C35.3219 0.258355 35.6625 0.612754 35.7157 1.0561C35.9586 3.0832 35.7086 6.12509 34.0974 8.66341C32.4374 11.2788 29.4237 13.2117 24.4842 13.0647C23.9809 13.0497 23.5672 12.6628 23.5186 12.1617C23.3011 9.9186 23.5646 6.5844 25.1792 3.95595C25.9988 2.62154 27.1743 1.4597 28.8069 0.745106Z" fill="white"/>
<path fill-rule="evenodd" clip-rule="evenodd" d="M17.2632 12.4776C20.8127 13.0832 23.7011 15.1437 25.5951 16.7862C26.0123 17.1481 26.0572 17.7797 25.6953 18.1969C25.3335 18.6141 24.7019 18.659 24.2847 18.2972C22.4904 16.741 19.9393 14.963 16.9268 14.4491C13.9847 13.9471 10.4511 14.6249 6.56708 18.2708C4.25726 20.439 2.73999 24.2837 2.20912 28.8686C1.68171 33.4236 2.149 38.5497 3.64322 43.1156C5.14043 47.6906 7.63429 51.6047 11.0791 53.8736C14.4791 56.1129 18.9357 56.8366 24.6026 54.8063C25.1225 54.62 25.695 54.8904 25.8813 55.4104C26.0675 55.9303 25.7971 56.5028 25.2771 56.6891C19.0975 58.9032 13.9708 58.1729 9.97906 55.5439C6.03215 52.9443 3.32573 48.5757 1.74242 43.7377C0.15611 38.8904 -0.337393 33.4732 0.222395 28.6385C0.778726 23.8338 2.39665 19.4425 5.19826 16.8126C9.49252 12.7816 13.6434 11.86 17.2632 12.4776Z" fill="white"/>
<path fill-rule="evenodd" clip-rule="evenodd" d="M32.7368 12.4776C29.1873 13.0832 26.2989 15.1437 24.4049 16.7862C23.9877 17.1481 23.9428 17.7797 24.3047 18.1969C24.6665 18.6141 25.2981 18.659 25.7153 18.2972C27.5096 16.741 30.0607 14.963 33.0731 14.4491C36.0153 13.9471 39.5489 14.6249 43.4329 18.2708C45.7427 20.439 47.26 24.2837 47.7909 28.8686C48.3183 33.4236 47.851 38.5497 46.3568 43.1156C44.8596 47.6906 42.3657 51.6047 38.9208 53.8736C35.5208 56.1129 31.0643 56.8366 25.3974 54.8063C24.8775 54.62 24.305 54.8904 24.1187 55.4104C23.9324 55.9303 24.2029 56.5028 24.7228 56.6891C30.9025 58.9032 36.0292 58.1729 40.0209 55.5439C43.9678 52.9443 46.6743 48.5757 48.2576 43.7377C49.8439 38.8904 50.3374 33.4732 49.7776 28.6385C49.2213 23.8338 47.6033 19.4425 44.8017 16.8126C40.5075 12.7816 36.3566 11.86 32.7368 12.4776Z" fill="white"/>
</svg>
