<svg width="264" height="80" viewBox="0 0 264 80" fill="none" xmlns="http://www.w3.org/2000/svg">
<path d="M39 40.0003C39 40.0088 39 40.0167 39 40.0246V40.8963C39 40.9536 39.0464 41 39.1036 41H39.1048C39.2605 40.9949 39.4071 40.9547 39.5368 40.8867C39.675 40.9592 39.8324 41 40 41C40.1625 41 40.3165 40.9609 40.4519 40.8924C40.4553 40.8907 40.4587 40.889 40.4615 40.8873H40.4621C40.4649 40.885 40.4683 40.8839 40.4711 40.8822H40.4723C40.4751 40.8799 40.4785 40.8782 40.4813 40.8765H40.4819C40.4853 40.8743 40.4881 40.8726 40.4915 40.8709C40.5113 40.8595 40.5306 40.8476 40.5498 40.8352H40.551C40.551 40.8352 40.5561 40.8306 40.5589 40.8289L40.5606 40.8278C40.5606 40.8278 40.5657 40.8244 40.568 40.8227C40.5685 40.8221 40.5691 40.8216 40.5702 40.821C40.5725 40.8193 40.5747 40.8176 40.577 40.8159C40.5776 40.8159 40.5787 40.8148 40.5793 40.8142C40.5815 40.8125 40.5838 40.8108 40.5861 40.8091C40.5866 40.8091 40.5878 40.808 40.5883 40.8074C40.5906 40.8057 40.5929 40.804 40.5951 40.8023C40.5957 40.8023 40.5963 40.8012 40.5974 40.8006C40.5997 40.7989 40.6025 40.7967 40.6048 40.795C40.6053 40.795 40.6059 40.7944 40.6065 40.7938C40.6093 40.7916 40.6121 40.7899 40.6149 40.7876C40.6206 40.7825 40.6268 40.778 40.6325 40.7729L40.6336 40.7717C40.6336 40.7717 40.6387 40.7678 40.641 40.7655C40.6416 40.7649 40.6427 40.7644 40.6433 40.7632C40.6455 40.7615 40.6472 40.7598 40.6489 40.7581L40.6518 40.7559C40.6518 40.7559 40.6552 40.753 40.6569 40.7513C40.658 40.7502 40.6591 40.7496 40.6602 40.7485C40.6619 40.7468 40.6636 40.7457 40.6653 40.744C40.6665 40.7428 40.6676 40.7417 40.6687 40.7411C40.6704 40.74 40.6721 40.7383 40.6733 40.7366C40.6744 40.7355 40.6755 40.7344 40.6767 40.7332C40.6784 40.7315 40.6795 40.7304 40.6812 40.7287L40.6846 40.7253C40.6846 40.7253 40.6874 40.7225 40.6891 40.7213C40.6903 40.7202 40.6914 40.7191 40.6925 40.7179C40.6942 40.7162 40.6954 40.7151 40.6971 40.714C40.6982 40.7128 40.6993 40.7117 40.7005 40.7106L40.705 40.706L40.7084 40.7026C40.7084 40.7026 40.7118 40.6992 40.7129 40.6981C40.7152 40.6958 40.7174 40.6936 40.7197 40.6913C40.7208 40.6902 40.722 40.6885 40.7237 40.6873C40.7248 40.6856 40.7265 40.6845 40.7276 40.6828C40.7288 40.6817 40.7299 40.6805 40.731 40.6794C40.7322 40.6777 40.7339 40.6766 40.735 40.6749C40.7361 40.6737 40.7373 40.6726 40.7384 40.6715C40.7401 40.6698 40.7412 40.6686 40.7424 40.6669C40.7435 40.6658 40.7446 40.6647 40.7452 40.6636C40.7463 40.6619 40.748 40.6602 40.7492 40.659C40.7503 40.6579 40.7508 40.6568 40.752 40.6556C40.7531 40.6539 40.7548 40.6522 40.7559 40.6505C40.7571 40.6494 40.7576 40.6483 40.7588 40.6471C40.7599 40.6454 40.7616 40.6437 40.7627 40.642C40.7639 40.6409 40.7644 40.6398 40.7656 40.6386C40.7673 40.6369 40.7684 40.6352 40.7701 40.6335C40.7707 40.6324 40.7718 40.6318 40.7724 40.6307C40.7741 40.629 40.7752 40.6267 40.7769 40.625C40.7775 40.6245 40.778 40.6233 40.7786 40.6228C40.7803 40.6205 40.782 40.6188 40.7837 40.6165C40.7837 40.6165 40.7843 40.616 40.7848 40.6154C40.7928 40.6052 40.8007 40.5944 40.8086 40.5837V40.5826C40.8086 40.5826 40.8126 40.578 40.8143 40.5752C40.8143 40.5746 40.8148 40.5741 40.8154 40.5735C40.8171 40.5712 40.8188 40.569 40.8199 40.5667C40.8199 40.5661 40.8211 40.5656 40.8216 40.5644C40.8233 40.5622 40.8245 40.5599 40.8262 40.5576C40.8262 40.5571 40.8273 40.5559 40.8279 40.5554C40.8296 40.5531 40.8307 40.5508 40.8324 40.5486C40.8324 40.548 40.8335 40.5474 40.8335 40.5463C40.8352 40.544 40.8364 40.5418 40.8381 40.5395C40.8381 40.5389 40.8386 40.5384 40.8392 40.5378C40.8409 40.5355 40.8426 40.5333 40.8437 40.5304C40.8437 40.5304 40.8437 40.5293 40.8448 40.5287C40.8465 40.5259 40.8482 40.5236 40.8499 40.5208C40.8607 40.5027 40.8715 40.4846 40.8811 40.4664C40.8828 40.463 40.8839 40.4602 40.8856 40.4574V40.4562C40.8856 40.4562 40.889 40.4506 40.8901 40.4477C40.8901 40.4477 40.8901 40.4472 40.8901 40.4466C40.8918 40.4438 40.893 40.441 40.8941 40.4381V40.437C40.8958 40.4342 40.8975 40.4313 40.8986 40.4285C40.9122 40.3996 40.9247 40.3702 40.9354 40.3401C40.9366 40.3367 40.9377 40.3333 40.9388 40.3305C40.94 40.3271 40.9411 40.3237 40.9422 40.3203C40.9547 40.2829 40.9655 40.245 40.9734 40.2065C40.9926 40.1419 41 40.0717 41 40.0003C41 39.448 40.5521 39 40 39C39.7174 39 39.4621 39.1172 39.2803 39.3059C39.2803 39.3059 39.2758 39.311 39.2735 39.3132C39.2622 39.3257 39.2508 39.3381 39.2395 39.3512C39.2395 39.3512 39.2395 39.3512 39.239 39.3517C39.2367 39.354 39.235 39.3563 39.2333 39.3585L39.2322 39.3597C39.2322 39.3597 39.2282 39.3642 39.2265 39.3665L39.2254 39.3676C39.2152 39.3801 39.205 39.3931 39.1954 39.4061L39.1942 39.4078C39.1942 39.4078 39.1908 39.4123 39.1891 39.4146L39.1874 39.4169C39.1874 39.4169 39.184 39.4214 39.1829 39.4237C39.1829 39.4242 39.1818 39.4254 39.1812 39.4259C39.1795 39.4282 39.1778 39.4305 39.1767 39.4327V39.4339C39.1704 39.4418 39.1653 39.4492 39.1602 39.4571L39.1591 39.4588C39.1591 39.4588 39.1563 39.4633 39.1552 39.4656C39.1546 39.4667 39.154 39.4673 39.1535 39.4684L39.1495 39.4747C39.1495 39.4747 39.1484 39.4769 39.1478 39.4775C39.1467 39.4798 39.145 39.4814 39.1438 39.4837C39.1433 39.4848 39.1427 39.486 39.1421 39.4871C39.141 39.4894 39.1399 39.4916 39.1382 39.4933L39.137 39.4956C39.1325 39.503 39.1285 39.5103 39.1246 39.5177L39.1229 39.5205C39.1229 39.5205 39.1206 39.5245 39.1195 39.5268C39.1189 39.5279 39.1183 39.529 39.1178 39.5307C39.1166 39.5324 39.1155 39.5347 39.1144 39.5364C39.1138 39.5375 39.1133 39.5392 39.1121 39.5404L39.1093 39.546L39.107 39.55C39.107 39.55 39.1048 39.554 39.1042 39.5556C39.1036 39.5568 39.1031 39.5585 39.1025 39.5596C39.1002 39.5641 39.098 39.5687 39.0957 39.5738C39.0957 39.5738 39.0957 39.5749 39.0951 39.5749C39.094 39.5766 39.0934 39.5789 39.0923 39.5806C39.0917 39.5823 39.0912 39.5834 39.09 39.5851C39.0889 39.5868 39.0883 39.5891 39.0872 39.5908C39.0866 39.5925 39.0861 39.5936 39.0849 39.5953C39.0844 39.597 39.0832 39.5993 39.0827 39.601C39.0821 39.6027 39.0815 39.6044 39.0804 39.6061L39.0781 39.6117C39.0781 39.6117 39.077 39.6151 39.0759 39.6168C39.0753 39.6185 39.0742 39.6202 39.0736 39.6225L39.0713 39.6276C39.0713 39.6276 39.0691 39.6327 39.0685 39.6355C39.0674 39.6378 39.0668 39.6406 39.0657 39.6429C39.0651 39.6446 39.0646 39.6463 39.064 39.648C39.0634 39.6497 39.0629 39.6514 39.0617 39.6536C39.0612 39.6553 39.0606 39.657 39.06 39.6587C39.0595 39.6604 39.0589 39.6621 39.0578 39.6638C39.0572 39.6655 39.0566 39.6672 39.0561 39.6695C39.0555 39.6712 39.0549 39.6729 39.0544 39.6752C39.0538 39.6769 39.0532 39.6786 39.0527 39.6803C39.0521 39.682 39.0515 39.6842 39.051 39.6859C39.051 39.6876 39.0498 39.6893 39.0493 39.691C39.0487 39.6933 39.0476 39.6956 39.047 39.6978C39.047 39.6995 39.0459 39.7012 39.0453 39.7024C39.0442 39.7057 39.043 39.7091 39.0425 39.7125C39.0425 39.7142 39.0413 39.7154 39.0413 39.7171C39.0408 39.7193 39.0402 39.721 39.0396 39.7233C39.0396 39.725 39.0385 39.7267 39.0379 39.7284C39.0374 39.7307 39.0368 39.7324 39.0362 39.7346C39.0362 39.7363 39.0351 39.738 39.0351 39.7397C39.0351 39.742 39.034 39.7437 39.0334 39.746C39.0334 39.7477 39.0328 39.7494 39.0323 39.7511C39.0323 39.7533 39.0311 39.755 39.0306 39.7573C39.0306 39.759 39.03 39.7601 39.0294 39.7618C39.0289 39.7647 39.0283 39.7669 39.0277 39.7698V39.7732C39.026 39.7766 39.0255 39.7805 39.0243 39.7839C39.0243 39.7856 39.0238 39.7867 39.0232 39.7884C39.0232 39.7907 39.0221 39.793 39.0215 39.7958C39.0215 39.7975 39.021 39.7992 39.0204 39.8009C39.0204 39.8032 39.0193 39.8054 39.0193 39.8077C39.0193 39.8094 39.0187 39.8111 39.0181 39.8128C39.0181 39.8151 39.0176 39.8173 39.017 39.8196C39.017 39.8213 39.0164 39.823 39.0164 39.8247C39.0164 39.827 39.0153 39.8292 39.0153 39.8315C39.0153 39.8332 39.0153 39.8343 39.0147 39.836C39.0147 39.8394 39.0136 39.8423 39.013 39.8457V39.8479C39.0119 39.8519 39.0113 39.8558 39.0108 39.8592C39.0108 39.8604 39.0108 39.8621 39.0102 39.8632C39.0102 39.866 39.0096 39.8683 39.0091 39.8706V39.8751C39.0091 39.8751 39.0079 39.8796 39.0074 39.8825C39.0074 39.8842 39.0074 39.8859 39.0068 39.8876C39.0068 39.8898 39.0068 39.8921 39.0062 39.8949C39.0062 39.8966 39.0062 39.8983 39.0062 39.8995C39.0062 39.9017 39.0062 39.9046 39.0057 39.9068C39.0057 39.9085 39.0057 39.9097 39.0057 39.9108C39.0057 39.9142 39.0051 39.9176 39.0045 39.9216V39.9227C39.0045 39.9266 39.004 39.9306 39.0034 39.9346V39.9385C39.0034 39.9385 39.0034 39.9436 39.0028 39.9465V39.951C39.0028 39.951 39.0028 39.9561 39.0023 39.9584C39.0023 39.9601 39.0023 39.9618 39.0023 39.9635C39.0023 39.9657 39.0023 39.9686 39.0023 39.9708C39.0023 39.9725 39.0023 39.9737 39.0023 39.9754C39.0023 39.9782 39.0023 39.981 39.0023 39.9833C39.0023 39.9844 39.0023 39.9861 39.0023 39.9873C39.0023 39.9912 39.0023 39.9952 39.0023 39.9992L39 40.0003Z" fill="white"/>
<path d="M119.928 43.6693C117.273 43.6693 115.73 42.6274 114.777 41.0193H114.731C112.485 42.8313 108.468 44.0317 104.724 44.0317C98.0072 44.0317 93.968 40.9739 93.968 35.7871C93.968 30.1472 98.3703 26.795 113.279 24.6886V24.077C113.279 21.88 112.281 20.2265 109.58 20.2265C107.969 20.2265 106.335 20.8833 103.884 22.0838C102.478 22.786 100.072 23.8732 98.8695 23.8732C96.4641 23.8732 95.3069 21.9253 95.3069 19.8188C95.3069 19.026 95.6472 18.0294 97.0541 17.1234C99.4141 15.5832 103.862 14.2695 109.626 14.2695C117.636 14.2695 122.832 16.5798 122.832 25.7078V28.7882C122.832 34.0883 122.991 35.3341 123.74 36.9875C124.103 37.7803 124.602 38.9807 124.602 39.547C124.602 42.333 122.742 43.6467 119.95 43.6467L119.928 43.6693ZM113.166 29.9887C106.267 30.8267 103.816 32.7293 103.816 35.1755C103.816 36.8743 105.019 38.0294 107.379 38.0294C109.285 38.0294 111.282 37.5311 113.483 36.1721C113.234 34.3375 113.143 31.393 113.188 29.9887H113.166Z" fill="#00205C"/>
<path d="M156.462 43.6693C153.421 43.6693 151.561 42.2197 151.561 39.8188V28.0861C151.561 25.7531 151.356 23.9864 150.653 22.8992C150.108 22.1064 149.314 21.6081 147.907 21.6081C146.75 21.6081 145.502 21.9026 144.503 22.4009C143.346 23.0125 142.053 23.8958 140.85 24.9604V39.8867C140.85 42.3783 139.035 43.692 135.994 43.692C132.93 43.692 131.183 42.333 131.183 39.8867V18.3239C131.183 15.8777 132.976 14.6319 136.085 14.6319C139.579 14.6319 140.578 16.3307 140.691 18.0294H140.85C142.506 16.9422 144.208 16.0362 145.956 15.3341C147.499 14.6772 149.45 14.2695 151.47 14.2695C154.783 14.2695 157.324 15.1302 158.867 16.9196C160.411 18.7089 161.227 21.4496 161.227 25.2548V39.7961C161.227 42.197 159.48 43.6467 156.462 43.6467V43.6693Z" fill="#00205C"/>
<path d="M192.248 43.6693C190.591 43.6693 189.683 43.3069 189.093 42.8312C188.503 42.3329 188.254 41.8346 187.936 41.1325C186.075 42.5821 183.488 44.0317 179.971 44.0317C171.575 44.0317 167.059 37.4858 167.059 29.0373C167.059 18.0974 174.207 14.2922 179.676 14.2922C183.035 14.2922 185.417 15.2888 187.528 16.7384V8.44844C187.528 5.95693 189.32 4.71118 192.384 4.71118C195.447 4.71118 197.194 6.07019 197.194 8.51639V39.2752C197.194 42.4235 195.742 43.6693 192.248 43.6693ZM187.596 25.3907C187.596 22.6274 184.646 20.9513 182.399 20.9513C179.948 20.9513 176.953 22.7406 176.953 29.2412C176.953 35.1302 179.948 37.282 182.717 37.282C185.485 37.282 187.573 34.8811 187.573 32.231L187.618 25.3907H187.596Z" fill="#00205C"/>
<path d="M228.124 31.1664H213.306C213.714 34.3148 215.711 36.9648 219.274 36.9648C221.725 36.9648 223.835 36.2627 225.219 35.5152C227.012 34.5186 228.169 33.8618 229.667 33.8618C231.732 33.8618 233.116 34.949 233.116 37.2593C233.116 38.8674 232.027 40.1585 230.824 40.9739C227.965 42.9671 223.971 44.0316 219.16 44.0316C214.713 44.0316 210.401 42.9218 207.565 40.2264C205.001 37.7802 203.367 34.428 203.367 29.0373C203.367 24.4393 204.615 20.9965 207.678 17.9388C210.084 15.5832 214.032 14.2921 218.933 14.2921C223.041 14.2921 226.989 15.4473 229.735 18.1426C232.685 21.0871 233.797 24.847 233.797 26.4778C233.797 29.8754 231.686 31.1664 228.146 31.1664H228.124ZM224.175 25.821C224.175 25.4812 223.427 22.5367 222.11 21.2457C221.067 20.1811 220.068 19.7281 218.82 19.7281C216.21 19.7281 213.919 21.4269 213.306 26.4325H223.313C223.858 26.4325 224.107 26.2287 224.107 25.821H224.153H224.175Z" fill="#00205C"/>
<path d="M260.664 41.3136C258.463 42.9671 255.422 44.0316 251.406 44.0316C247.389 44.0316 242.942 42.7179 240.536 41.1324C239.379 40.3397 238.834 39.3884 238.834 38.4371C238.834 36.4439 240.196 35.2434 241.83 35.2434C243.691 35.2434 246.187 36.4892 247.526 37.1007C248.887 37.6896 250.68 38.0067 251.429 38.0067C253.289 38.0067 254.288 37.0554 254.288 35.8097C254.288 33.8618 251.792 32.8652 247.344 31.5061C242.942 30.1471 238.88 27.9048 238.88 22.9671C238.88 20.2264 240.332 17.9614 242.579 16.5345C244.734 15.1302 247.389 14.3374 251.27 14.3374C254.333 14.3374 257.737 15.0849 260.029 16.24C261.572 17.0328 262.275 18.3012 262.275 19.0486C262.275 21.0418 261.118 22.4008 259.167 22.4008C257.76 22.4008 256.012 21.5854 254.106 20.9059C252.904 20.4529 251.86 20.1132 250.612 20.1132C248.819 20.1132 248.206 20.9059 248.206 21.8119C248.206 22.7179 248.796 23.3748 249.749 23.8957C250.997 24.5526 252.609 25.0509 254.81 25.7077C259.371 27.0214 263.977 29.2638 263.977 34.6998C263.977 37.3499 262.82 39.7055 260.619 41.3816L260.664 41.3136Z" fill="#00205C"/>
<path d="M103.249 76.1947C105.314 76.1947 107.538 75.5605 107.538 72.7293C107.538 72.0271 107.243 71.2344 106.653 70.6908C105.904 69.898 104.656 69.5583 102.251 68.8108C99.7999 68.0634 98.5291 67.4292 97.5987 66.4099C96.7591 65.4813 96.3734 64.3488 96.3734 63.103C96.3734 61.3363 97.1449 60 98.461 59.1393C99.7318 58.3239 101.343 57.8708 103.68 57.8708C106.766 57.8708 108.786 59.0034 109.648 60.0679C110.42 61.0645 109.898 62.4688 108.582 62.4688C108.06 62.4688 107.561 62.2197 107.061 61.5855C106.494 60.838 105.314 60.2491 103.658 60.2491C102.591 60.2491 101.524 60.4077 100.821 60.8833C100.254 61.291 99.8906 61.9705 99.8906 62.8086C99.8906 63.4428 100.254 64.1223 100.844 64.6206C101.593 65.2548 102.364 65.5719 104.996 66.3646C107.583 67.1574 108.967 67.8142 109.921 68.8335C110.669 69.6489 111.191 70.804 111.191 72.3442C111.191 74.2468 110.556 75.6738 109.24 76.8063C107.742 78.0747 105.654 78.573 103.34 78.573C99.2553 78.573 97.5534 77.3046 96.623 76.1947C95.6245 75.0622 96.4188 73.7485 97.5761 73.7485C98.1434 73.7485 98.461 73.8618 99.0057 74.428C99.868 75.3793 101.751 76.2174 103.226 76.2174L103.249 76.1947Z" fill="#00205C"/>
<path d="M128.437 76.3307C127.28 77.667 124.739 78.5504 122.537 78.5504C117.749 78.5504 115.73 76.4666 115.73 73.0464C115.73 68.7429 118.861 66.2514 128.142 65.0736V64.5073C128.142 61.7667 127.257 60.2265 124.33 60.2265C122.492 60.2265 121.312 61.1098 120.745 62.1744C120.245 63.1257 119.678 63.624 118.748 63.624C117.409 63.624 116.683 62.2876 117.318 61.0419C117.999 59.7282 119.905 57.8256 124.375 57.8256C129.209 57.8256 131.682 59.5243 131.682 65.3001V73.0917C131.682 75.402 132.386 75.9003 132.386 76.8516C132.386 77.8029 131.705 78.3692 130.707 78.3692C129.527 78.3692 128.755 77.6217 128.437 76.3307H128.369H128.437ZM128.165 67.4292C121.925 68.3125 119.429 70.0113 119.429 72.7519C119.429 74.6999 120.427 76.0362 123.241 76.0362C124.421 76.0362 128.165 75.2888 128.165 72.9331V67.4292Z" fill="#00205C"/>
<path d="M138.966 53.5673C138.966 52.2083 139.534 51.3929 140.736 51.3929C141.939 51.3929 142.552 52.2536 142.552 53.522V76.1948C142.552 77.4632 141.985 78.3239 140.736 78.3239C139.488 78.3239 138.966 77.5085 138.966 76.1721V53.5673Z" fill="#00205C"/>
<path d="M151.084 58.0974C152.332 58.0974 152.877 58.9581 152.877 60.2265V70.5549C152.877 72.1177 152.99 73.5447 153.648 74.4054C154.147 75.0169 154.987 75.5153 156.349 75.5153C157.347 75.5153 158.482 75.2208 159.548 74.6998C160.501 74.2468 162.612 72.7519 162.612 71.9365V60.2491C162.612 58.9128 163.179 58.0747 164.382 58.0747C165.584 58.0747 166.197 58.9354 166.197 60.2038V76.1721C166.197 77.4405 165.63 78.3012 164.382 78.3012C163.134 78.3012 162.612 77.4858 162.612 76.1495V75.1982C161.84 76.0815 160.411 77.0102 159.526 77.5085C158.209 78.188 156.734 78.573 155.191 78.573C153.262 78.573 151.651 78.0294 150.676 76.9422C149.745 75.8777 149.291 74.3148 149.291 71.9592V60.2718C149.291 58.9354 149.859 58.0974 151.061 58.0974" fill="#00205C"/>
<path d="M179.29 78.573C173.799 78.573 171.212 74.4281 171.212 68.1766C171.212 61.2684 174.729 57.8482 179.2 57.8482C181.537 57.8482 183.67 58.8675 184.986 60.2944V53.5673C184.986 52.2083 185.553 51.3929 186.756 51.3929C187.959 51.3929 188.571 52.2536 188.571 53.522V76.1948C188.571 77.4632 188.004 78.3239 186.756 78.3239C185.508 78.3239 184.873 77.3499 185.054 75.9683H184.986C183.965 77.0781 182.263 78.5504 179.313 78.5504L179.29 78.573ZM179.971 75.7418C183.261 75.7418 184.963 72.9105 184.963 72.2763V63.8731C184.963 63.1257 182.626 60.6795 179.926 60.6795C176.726 60.6795 174.888 63.4881 174.888 68.2672C174.888 72.9331 176.772 75.7418 179.926 75.7418H179.971Z" fill="#00205C"/>
</svg>
