<svg width="48" height="48" viewBox="0 0 48 48" fill="none" xmlns="http://www.w3.org/2000/svg">
<path fill-rule="evenodd" clip-rule="evenodd" d="M11.6757 24C11.6757 17.1934 17.1934 11.6757 24.0001 11.6757C30.8066 11.6757 36.3243 17.1934 36.3243 24C36.3243 30.8066 30.8066 36.3243 24.0001 36.3243C17.1934 36.3243 11.6757 30.8066 11.6757 24ZM24 32C19.5817 32 16 28.4183 16 24C16 19.5817 19.5817 16 24 16C28.4183 16 32 19.5817 32 24C32 28.4183 28.4183 32 24 32Z" fill="#FFB71B"/>
<path d="M36.8112 14.0687C38.4018 14.0687 39.6913 12.7794 39.6913 11.1888C39.6913 9.59817 38.4018 8.30872 36.8112 8.30872C35.2207 8.30872 33.9313 9.59817 33.9313 11.1888C33.9313 12.7794 35.2207 14.0687 36.8112 14.0687Z" fill="#FFB71B"/>
<path fill-rule="evenodd" clip-rule="evenodd" d="M24 0C17.482 0 16.6647 0.0276278 14.1048 0.144427C11.5503 0.260939 9.80567 0.666687 8.27909 1.26002C6.70088 1.87326 5.36245 2.6939 4.02813 4.02813C2.6939 5.36245 1.87326 6.70088 1.26002 8.27909C0.666687 9.80567 0.260939 11.5503 0.144427 14.1048C0.0276278 16.6647 0 17.482 0 24C0 30.518 0.0276278 31.3353 0.144427 33.8952C0.260939 36.4497 0.666687 38.1943 1.26002 39.7209C1.87326 41.2991 2.6939 42.6375 4.02813 43.9719C5.36245 45.3061 6.70088 46.1267 8.27909 46.7401C9.80567 47.3333 11.5503 47.7391 14.1048 47.8556C16.6647 47.9724 17.482 48 24 48C30.518 48 31.3353 47.9724 33.8952 47.8556C36.4497 47.7391 38.1943 47.3333 39.7209 46.7401C41.2991 46.1267 42.6375 45.3061 43.9719 43.9719C45.3061 42.6375 46.1267 41.2991 46.7401 39.7209C47.3333 38.1943 47.7391 36.4497 47.8556 33.8952C47.9724 31.3353 48 30.518 48 24C48 17.482 47.9724 16.6647 47.8556 14.1048C47.7391 11.5503 47.3333 9.80567 46.7401 8.27909C46.1267 6.70088 45.3061 5.36245 43.9719 4.02813C42.6375 2.6939 41.2991 1.87326 39.7209 1.26002C38.1943 0.666687 36.4497 0.260939 33.8952 0.144427C31.3353 0.0276278 30.518 0 24 0ZM24.0001 4.32432C30.4083 4.32432 31.1674 4.3488 33.6981 4.46427C36.038 4.57097 37.3088 4.96195 38.1545 5.29062C39.2748 5.726 40.0743 6.24607 40.9141 7.08595C41.7539 7.92574 42.274 8.72523 42.7094 9.84549C43.0381 10.6912 43.429 11.962 43.5357 14.3019C43.6512 16.8326 43.6757 17.5917 43.6757 24C43.6757 30.4083 43.6512 31.1674 43.5357 33.6981C43.429 36.038 43.0381 37.3088 42.7094 38.1545C42.274 39.2748 41.7539 40.0743 40.9141 40.9141C40.0743 41.7539 39.2748 42.274 38.1545 42.7094C37.3088 43.0381 36.038 43.429 33.6981 43.5357C31.1677 43.6512 30.4087 43.6757 24.0001 43.6757C17.5913 43.6757 16.8324 43.6512 14.3019 43.5357C11.962 43.429 10.6912 43.0381 9.84549 42.7094C8.72523 42.274 7.92574 41.7539 7.08595 40.9141C6.24617 40.0743 5.726 39.2748 5.29063 38.1545C4.96195 37.3088 4.57097 36.038 4.46427 33.6981C4.34881 31.1674 4.32432 30.4083 4.32432 24C4.32432 17.5917 4.34881 16.8326 4.46427 14.3019C4.57097 11.962 4.96195 10.6912 5.29063 9.84549C5.726 8.72523 6.24607 7.92574 7.08595 7.08595C7.92574 6.24607 8.72523 5.726 9.84549 5.29062C10.6912 4.96195 11.962 4.57097 14.3019 4.46427C16.8326 4.3488 17.5917 4.32432 24.0001 4.32432Z" fill="#FFB71B"/>
</svg>
