<svg width="32" height="40" viewBox="0 0 32 40" fill="none" xmlns="http://www.w3.org/2000/svg">
<path d="M16 19.5C16.9667 19.5 17.7917 19.1583 18.475 18.475C19.1583 17.7917 19.5 16.9667 19.5 16C19.5 15.0333 19.1583 14.2083 18.475 13.525C17.7917 12.8417 16.9667 12.5 16 12.5C15.0333 12.5 14.2083 12.8417 13.525 13.525C12.8417 14.2083 12.5 15.0333 12.5 16C12.5 16.9667 12.8417 17.7917 13.525 18.475C14.2083 19.1583 15.0333 19.5 16 19.5ZM16 36.05C20.4333 32.0167 23.7083 28.3583 25.825 25.075C27.9417 21.7917 29 18.9 29 16.4C29 12.4667 27.7417 9.25 25.225 6.75C22.7083 4.25 19.6333 3 16 3C12.3667 3 9.29167 4.25 6.775 6.75C4.25833 9.25 3 12.4667 3 16.4C3 18.9 4.08333 21.7917 6.25 25.075C8.41667 28.3583 11.6667 32.0167 16 36.05ZM16 40C10.6333 35.4333 6.625 31.1917 3.975 27.275C1.325 23.3583 0 19.7333 0 16.4C0 11.4 1.60833 7.41667 4.825 4.45C8.04167 1.48333 11.7667 0 16 0C20.2333 0 23.9583 1.48333 27.175 4.45C30.3917 7.41667 32 11.4 32 16.4C32 19.7333 30.675 23.3583 28.025 27.275C25.375 31.1917 21.3667 35.4333 16 40Z" fill="#FFB71B"/>
</svg>
