<svg width="24" height="25" viewBox="0 0 24 25" fill="none" xmlns="http://www.w3.org/2000/svg">
<path d="M12 16.5358C13.1833 16.5358 14.1875 16.1233 15.0125 15.2983C15.8375 14.4733 16.25 13.4691 16.25 12.2858C16.25 11.1024 15.8375 10.0983 15.0125 9.27327C14.1875 8.44827 13.1833 8.03577 12 8.03577C10.8167 8.03577 9.8125 8.44827 8.9875 9.27327C8.1625 10.0983 7.75 11.1024 7.75 12.2858C7.75 13.4691 8.1625 14.4733 8.9875 15.2983C9.8125 16.1233 10.8167 16.5358 12 16.5358ZM12 15.0858C11.2167 15.0858 10.5542 14.8149 10.0125 14.2733C9.47083 13.7316 9.2 13.0691 9.2 12.2858C9.2 11.5024 9.47083 10.8399 10.0125 10.2983C10.5542 9.7566 11.2167 9.48577 12 9.48577C12.7833 9.48577 13.4458 9.7566 13.9875 10.2983C14.5292 10.8399 14.8 11.5024 14.8 12.2858C14.8 13.0691 14.5292 13.7316 13.9875 14.2733C13.4458 14.8149 12.7833 15.0858 12 15.0858ZM12 19.7858C9.56667 19.7858 7.36667 19.0941 5.4 17.7108C3.43333 16.3274 1.96667 14.5191 1 12.2858C1.96667 10.0524 3.43333 8.2441 5.4 6.86077C7.36667 5.47743 9.56667 4.78577 12 4.78577C14.4333 4.78577 16.6333 5.47743 18.6 6.86077C20.5667 8.2441 22.0333 10.0524 23 12.2858C22.0333 14.5191 20.5667 16.3274 18.6 17.7108C16.6333 19.0941 14.4333 19.7858 12 19.7858ZM12 18.2858C14.0167 18.2858 15.8708 17.7399 17.5625 16.6483C19.2542 15.5566 20.5417 14.1024 21.425 12.2858C20.5417 10.4691 19.2542 9.01493 17.5625 7.92327C15.8708 6.8316 14.0167 6.28577 12 6.28577C9.98333 6.28577 8.12917 6.8316 6.4375 7.92327C4.74583 9.01493 3.45 10.4691 2.55 12.2858C3.45 14.1024 4.74583 15.5566 6.4375 16.6483C8.12917 17.7399 9.98333 18.2858 12 18.2858Z" fill="#191B1E"/>
</svg>
