<svg width="81" height="80" viewBox="0 0 81 80" fill="none" xmlns="http://www.w3.org/2000/svg">
<path d="M80.1486 40C80.1486 40.3398 80.1486 40.6569 80.1486 40.974V75.8324C80.1486 78.12 78.2878 79.9774 75.9959 79.9774H75.9505C69.7102 79.7735 63.8329 78.1654 58.6364 75.4473C53.0996 78.3466 46.7911 79.9774 40.0743 79.9774C33.5616 79.9774 27.3894 78.4145 21.966 75.6738C21.8298 75.6059 21.6937 75.5379 21.5802 75.47H21.5575C21.444 75.3794 21.3079 75.3341 21.1944 75.2661H21.1491C21.0356 75.1755 20.8994 75.1076 20.786 75.0396H20.7633C20.6271 74.949 20.5137 74.8811 20.3775 74.8131C19.5833 74.3601 18.8118 73.8845 18.0402 73.3862H17.9948C17.9948 73.3862 17.7906 73.205 17.6772 73.137L17.6091 73.0917C17.6091 73.0917 17.4049 72.9558 17.3141 72.8879C17.2914 72.8652 17.2687 72.8426 17.2233 72.8199C17.1325 72.752 17.0418 72.684 16.951 72.6161C16.9283 72.6161 16.8829 72.5708 16.8602 72.5481C16.7695 72.4802 16.6787 72.4122 16.5879 72.3443C16.5652 72.3443 16.5199 72.299 16.4972 72.2763C16.4064 72.2084 16.3156 72.1404 16.2249 72.0725C16.2022 72.0725 16.1795 72.0272 16.1341 72.0045C16.0433 71.9366 15.9299 71.846 15.8391 71.778C15.8164 71.778 15.7937 71.7554 15.771 71.7327C15.6576 71.6421 15.5441 71.5742 15.4306 71.4836C15.2037 71.2797 14.9541 71.0985 14.7272 70.8947L14.6818 70.8494C14.6818 70.8494 14.4776 70.6908 14.3868 70.6002C14.3641 70.5776 14.3187 70.5549 14.296 70.5096C14.2053 70.4417 14.1372 70.3737 14.0691 70.3058L13.9557 70.2152C13.9557 70.2152 13.8195 70.1019 13.7514 70.034C13.706 69.9887 13.6607 69.966 13.6153 69.9207C13.5472 69.8528 13.4791 69.8075 13.411 69.7395C13.3657 69.6942 13.3203 69.6489 13.2749 69.6263C13.2068 69.581 13.1387 69.513 13.0934 69.4451C13.048 69.3998 13.0026 69.3545 12.9572 69.3092C12.8891 69.2412 12.8437 69.1959 12.7757 69.128L12.6395 68.9921C12.6395 68.9921 12.526 68.8788 12.458 68.8335C12.4126 68.7882 12.3672 68.7429 12.3218 68.6976C12.2537 68.6297 12.2084 68.5844 12.1403 68.5391C12.0949 68.4938 12.0495 68.4485 12.0041 68.4032L11.8226 68.222L11.6864 68.0861C11.6864 68.0861 11.5503 67.9502 11.5049 67.9049C11.4141 67.8143 11.3234 67.7237 11.2326 67.6331C11.1872 67.5878 11.1418 67.5198 11.0738 67.4745C11.0284 67.4066 10.9603 67.3613 10.9149 67.2933C10.8695 67.248 10.8241 67.2027 10.7788 67.1574C10.7334 67.0895 10.6653 67.0442 10.6199 66.9762C10.5745 66.9309 10.5291 66.8856 10.4838 66.8403C10.4157 66.7724 10.3703 66.7271 10.3249 66.6591C10.2795 66.6138 10.2341 66.5685 10.2115 66.5232C10.1661 66.4553 10.098 66.3873 10.0526 66.342C10.0072 66.2967 9.98453 66.2514 9.93915 66.2061C9.89376 66.1382 9.82569 66.0702 9.7803 66.0023C9.73492 65.957 9.71223 65.9117 9.66684 65.8664C9.62146 65.7984 9.55338 65.7305 9.508 65.6625C9.46261 65.6172 9.43992 65.5719 9.39454 65.5266C9.32646 65.4587 9.28108 65.3907 9.213 65.3228C9.19031 65.2775 9.14492 65.2548 9.12223 65.2095C9.05415 65.1416 9.00877 65.051 8.94069 64.983C8.918 64.9604 8.89531 64.9151 8.87262 64.8924C8.80454 64.8018 8.73646 64.7339 8.66839 64.6433C8.66839 64.6433 8.6457 64.6206 8.623 64.598C8.30531 64.1903 7.98762 63.7599 7.66994 63.3296V63.2843C7.66994 63.2843 7.51109 63.1031 7.44301 62.9898C7.44301 62.9672 7.42032 62.9445 7.39763 62.9219C7.32955 62.8313 7.26148 62.7407 7.21609 62.6501C7.21609 62.6274 7.17071 62.6048 7.14802 62.5595C7.07994 62.4689 7.03456 62.3783 6.96648 62.2877C6.96648 62.265 6.9211 62.2197 6.8984 62.1971C6.83033 62.1065 6.78494 62.0159 6.71687 61.9253C6.71687 61.9026 6.67148 61.88 6.67148 61.8347C6.60341 61.7441 6.55802 61.6535 6.48994 61.5629C6.48994 61.5402 6.46725 61.5176 6.44456 61.4949C6.37648 61.4043 6.30841 61.3137 6.26302 61.2005C6.26302 61.2005 6.26302 61.1552 6.21764 61.1325C6.14956 61.0193 6.08149 60.9287 6.01341 60.8154C5.58226 60.0906 5.15111 59.3658 4.76534 58.641C4.69727 58.5051 4.65188 58.3918 4.58381 58.2786V58.2333C4.58381 58.2333 4.44765 58.0068 4.40227 57.8935C4.40227 57.8935 4.40227 57.8709 4.40227 57.8483C4.33419 57.735 4.28881 57.6217 4.24343 57.5085V57.4632C4.17535 57.3499 4.10727 57.2367 4.06189 57.1234C3.51728 55.9683 3.01805 54.7905 2.5869 53.59C2.54152 53.4541 2.49613 53.3182 2.45075 53.205C2.40536 53.0691 2.35998 52.9332 2.3146 52.7973C1.81537 51.3024 1.38422 49.7848 1.06653 48.2446C0.294997 45.6625 0 42.8539 0 40C0 17.9162 17.9495 0 40.0743 0C51.3976 0 61.6318 4.68856 68.916 12.231C68.916 12.231 69.0975 12.4349 69.1883 12.5255C69.6421 13.0238 70.0959 13.5221 70.5498 14.043C70.5498 14.043 70.5498 14.043 70.5725 14.0657C70.6632 14.1563 70.7313 14.2469 70.7994 14.3375L70.8448 14.3828C70.8448 14.3828 71.0036 14.564 71.0717 14.6546L71.1171 14.6999C71.5255 15.1982 71.934 15.7191 72.3198 16.2401L72.3652 16.308C72.3652 16.308 72.5013 16.4892 72.5694 16.5798L72.6375 16.6704C72.6375 16.6704 72.7736 16.8516 72.819 16.9422C72.819 16.9649 72.8644 17.0102 72.8871 17.0328C72.9551 17.1234 73.0232 17.214 73.0686 17.3046V17.3499C73.3182 17.667 73.5225 17.9615 73.7267 18.2786L73.7721 18.3465C73.7721 18.3465 73.8855 18.5277 73.9309 18.6183C73.9536 18.6636 73.9763 18.6863 73.999 18.7316L74.1578 18.9807C74.1578 18.9807 74.2032 19.0713 74.2259 19.094C74.2713 19.1846 74.3394 19.2525 74.3848 19.3431C74.4074 19.3884 74.4301 19.4338 74.4528 19.4791C74.4982 19.5697 74.5436 19.6603 74.6117 19.7282L74.6571 19.8188C74.8386 20.1133 74.9974 20.4077 75.1563 20.7022L75.2244 20.8154C75.2244 20.8154 75.3151 20.974 75.3605 21.0646C75.3832 21.1099 75.4059 21.1552 75.4286 21.2231C75.474 21.2911 75.5194 21.3817 75.5647 21.4496C75.5874 21.4949 75.6101 21.5629 75.6555 21.6082L75.769 21.8347L75.8597 21.9932C75.8597 21.9932 75.9505 22.1518 75.9732 22.2197C75.9959 22.265 76.0186 22.333 76.0413 22.3783C76.132 22.5595 76.2228 22.7407 76.3136 22.9445C76.3136 22.9445 76.3136 22.9898 76.3363 22.9898C76.3817 23.0578 76.4043 23.1484 76.4497 23.2163C76.4724 23.2843 76.4951 23.3296 76.5405 23.3975C76.5859 23.4655 76.6086 23.5561 76.654 23.624C76.6767 23.692 76.6993 23.7373 76.7447 23.8052C76.7674 23.8732 76.8128 23.9638 76.8355 24.0317C76.8582 24.0997 76.8809 24.1676 76.9263 24.2356L77.017 24.4621C77.017 24.4621 77.0624 24.598 77.1078 24.6659C77.1305 24.7339 77.1759 24.8018 77.1986 24.8924L77.2893 25.0963C77.2893 25.0963 77.3801 25.3001 77.4028 25.4134C77.4482 25.504 77.4709 25.6172 77.5163 25.7078C77.539 25.7758 77.5616 25.8437 77.5843 25.9117C77.607 25.9796 77.6297 26.0476 77.6751 26.1382C77.6978 26.2061 77.7205 26.2741 77.7432 26.342C77.7659 26.41 77.7886 26.4779 77.834 26.5459C77.8566 26.6138 77.8793 26.6818 77.902 26.7724C77.9247 26.8403 77.9474 26.9083 77.9701 26.9989C77.9928 27.0668 78.0155 27.1348 78.0382 27.2027C78.0609 27.2707 78.0836 27.3613 78.1063 27.4292C78.1063 27.4972 78.1516 27.5651 78.1743 27.6331C78.197 27.7237 78.2424 27.8143 78.2651 27.9049C78.2651 27.9728 78.3105 28.0408 78.3332 28.0861C78.3786 28.222 78.4239 28.3579 78.4466 28.4938C78.4466 28.5617 78.492 28.607 78.492 28.675C78.5147 28.7656 78.5374 28.8335 78.5601 28.9241C78.5601 28.9921 78.6055 29.06 78.6282 29.128C78.6509 29.2186 78.6736 29.2865 78.6963 29.3771C78.6963 29.4451 78.7416 29.513 78.7416 29.581C78.7416 29.6716 78.787 29.7395 78.8097 29.8301C78.8097 29.8981 78.8324 29.966 78.8551 30.034C78.8551 30.1246 78.9005 30.1925 78.9232 30.2831C78.9232 30.3511 78.9459 30.3964 78.9686 30.4643C78.9913 30.5776 79.0139 30.6682 79.0366 30.7814V30.9173C79.1047 31.0532 79.1274 31.2118 79.1728 31.3477C79.1728 31.4156 79.1955 31.4609 79.2182 31.5289C79.2182 31.6195 79.2636 31.7101 79.2862 31.8233C79.2862 31.8913 79.3089 31.9592 79.3316 32.0272C79.3316 32.1178 79.377 32.2084 79.377 32.299C79.377 32.3669 79.3997 32.4349 79.4224 32.5028C79.4224 32.5934 79.4451 32.684 79.4678 32.7746C79.4678 32.8426 79.4905 32.9105 79.4905 32.9785C79.4905 33.0691 79.5359 33.1597 79.5359 33.2503C79.5359 33.3182 79.5359 33.3635 79.5586 33.4315C79.5586 33.5674 79.6039 33.6806 79.6266 33.8165V33.9071C79.672 34.0657 79.6947 34.2242 79.7174 34.3601C79.7174 34.4054 79.7174 34.4734 79.7401 34.5187C79.7401 34.6319 79.7628 34.7225 79.7855 34.8131V34.9943C79.7855 34.9943 79.8309 35.1755 79.8536 35.2888C79.8536 35.3567 79.8536 35.4247 79.8762 35.4926C79.8762 35.5832 79.8762 35.6738 79.8989 35.7871C79.8989 35.855 79.8989 35.923 79.8989 35.9683C79.8989 36.0589 79.8989 36.1721 79.9216 36.2627C79.9216 36.3307 79.9216 36.376 79.9216 36.4213C79.9216 36.5572 79.9443 36.6931 79.967 36.8516V36.8969C79.967 37.0555 79.9897 37.214 80.0124 37.3726V37.5311C80.0124 37.5311 80.0124 37.735 80.0351 37.8482V38.0294C80.0351 38.0294 80.0351 38.2333 80.0578 38.3239C80.0578 38.3918 80.0578 38.4598 80.0578 38.5277C80.0578 38.6183 80.0578 38.7316 80.0578 38.8222C80.0578 38.8901 80.0578 38.9354 80.0578 39.0034C80.0578 39.1166 80.0578 39.2299 80.0578 39.3205C80.0578 39.3658 80.0578 39.4338 80.0578 39.4791C80.0578 39.6376 80.0578 39.7962 80.0578 39.9547L80.1486 40Z" fill="#FFB71B"/>
<path d="M34.2651 34.1789C33.2893 34.1789 32.4951 33.3862 32.4951 32.4349C32.4951 30.2152 30.6797 28.4032 28.4559 28.4032C26.2321 28.4032 24.4394 30.2152 24.4394 32.4349C24.4394 33.4088 23.6452 34.1789 22.6694 34.1789C21.6936 34.1789 20.8994 33.3862 20.8994 32.4349C20.8994 28.2673 24.2805 24.8924 28.4559 24.8924C32.6312 24.8924 36.0124 28.2673 36.0124 32.4349C36.0124 33.4088 35.2181 34.1789 34.2424 34.1789H34.2651Z" fill="#00205C"/>
<path d="M57.4111 34.1789C56.4353 34.1789 55.6411 33.3862 55.6411 32.4349C55.6411 30.2152 53.8257 28.4032 51.6019 28.4032C49.3781 28.4032 47.5627 30.2152 47.5627 32.4349C47.5627 33.4088 46.7685 34.1789 45.7927 34.1789C44.8169 34.1789 44.0454 33.3862 44.0454 32.4349C44.0454 28.2673 47.4265 24.8924 51.6019 24.8924C55.7772 24.8924 59.1584 28.2673 59.1584 32.4349C59.1584 33.4088 58.3641 34.1789 57.3884 34.1789H57.4111Z" fill="#00205C"/>
<path d="M40.0516 57.1234C21.8752 57.1234 13.8195 43.2163 13.4791 42.6274C13.0026 41.7894 13.2976 40.7022 14.1599 40.2265C14.9995 39.7508 16.066 40.0453 16.5652 40.906C16.8602 41.427 23.9856 53.6127 40.0516 53.6127C56.2084 53.6127 63.4698 41.0419 63.5379 40.906C64.0145 40.0679 65.081 39.7508 65.9433 40.2265C66.7829 40.7022 67.1006 41.7667 66.624 42.6274C66.2837 43.2163 58.2507 57.1234 40.0516 57.1234Z" fill="#00205C"/>
</svg>
