<svg width="66" height="42" viewBox="0 0 66 42" fill="none" xmlns="http://www.w3.org/2000/svg">
<path d="M53.4871 2.95593H4.2187C3.13139 2.95593 2.24995 3.83737 2.24995 4.92468V37.2519C2.24995 38.3392 3.1314 39.2206 4.21871 39.2206H53.4871C54.5744 39.2206 55.4558 38.3392 55.4558 37.2519V33.5156H57.7058V37.2519C57.7058 39.5818 55.817 41.4706 53.4871 41.4706H4.21871C1.88876 41.4706 -4.57764e-05 39.5818 -4.57764e-05 37.2519V4.92468C-4.57764e-05 2.59473 1.88875 0.705933 4.2187 0.705933H53.4871C55.817 0.705933 57.7058 2.59473 57.7058 4.92468V17.4844H55.4558V4.92468C55.4558 3.83738 54.5744 2.95593 53.4871 2.95593Z" fill="#724100"/>
<path fill-rule="evenodd" clip-rule="evenodd" d="M5.40442 32.6471C5.40442 32.0258 5.9081 31.5221 6.52942 31.5221H14.4706C15.0919 31.5221 15.5956 32.0258 15.5956 32.6471C15.5956 33.2684 15.0919 33.7721 14.4706 33.7721H6.52942C5.9081 33.7721 5.40442 33.2684 5.40442 32.6471Z" fill="#724100"/>
<path fill-rule="evenodd" clip-rule="evenodd" d="M5.40442 27.8824C5.40442 27.2611 5.9081 26.7574 6.52942 26.7574H30.8824C31.5037 26.7574 32.0074 27.2611 32.0074 27.8824C32.0074 28.5037 31.5037 29.0074 30.8824 29.0074H6.52942C5.9081 29.0074 5.40442 28.5037 5.40442 27.8824Z" fill="#724100"/>
<path opacity="0.4" fill-rule="evenodd" clip-rule="evenodd" d="M11.1177 18C14.2364 18 16.7647 15.4717 16.7647 12.3529C16.7647 9.23415 14.2364 6.70587 11.1177 6.70587C7.99887 6.70587 5.4706 9.23415 5.4706 12.3529C5.4706 15.4717 7.99887 18 11.1177 18Z" fill="#FFB71B"/>
<path fill-rule="evenodd" clip-rule="evenodd" d="M11.1176 15.75C12.9938 15.75 14.5147 14.2291 14.5147 12.3529C14.5147 10.4768 12.9938 8.95587 11.1176 8.95587C9.2415 8.95587 7.72058 10.4768 7.72058 12.3529C7.72058 14.2291 9.2415 15.75 11.1176 15.75ZM11.1176 18C14.2364 18 16.7647 15.4717 16.7647 12.3529C16.7647 9.23415 14.2364 6.70587 11.1176 6.70587C7.99886 6.70587 5.47058 9.23415 5.47058 12.3529C5.47058 15.4717 7.99886 18 11.1176 18Z" fill="#724100"/>
<path opacity="0.4" fill-rule="evenodd" clip-rule="evenodd" d="M56.5803 34.572C61.6603 34.572 65.7784 30.4539 65.7784 25.3738C65.7784 20.2938 61.6603 16.1757 56.5803 16.1757C51.5002 16.1757 47.3821 20.2938 47.3821 25.3738C47.3821 30.4539 51.5002 34.572 56.5803 34.572Z" fill="#FFB71B"/>
<path fill-rule="evenodd" clip-rule="evenodd" d="M56.5803 32.322C60.4176 32.322 63.5284 29.2112 63.5284 25.3738C63.5284 21.5365 60.4176 18.4257 56.5803 18.4257C52.7429 18.4257 49.6321 21.5365 49.6321 25.3738C49.6321 29.2112 52.7429 32.322 56.5803 32.322ZM56.5803 34.572C61.6603 34.572 65.7784 30.4539 65.7784 25.3738C65.7784 20.2938 61.6603 16.1757 56.5803 16.1757C51.5002 16.1757 47.3821 20.2938 47.3821 25.3738C47.3821 30.4539 51.5002 34.572 56.5803 34.572Z" fill="#724100"/>
<path fill-rule="evenodd" clip-rule="evenodd" d="M56.625 20.1562C57.2463 20.1562 57.75 20.6599 57.75 21.2812V29.1562C57.75 29.7776 57.2463 30.2812 56.625 30.2812C56.0037 30.2812 55.5 29.7776 55.5 29.1562V21.2812C55.5 20.6599 56.0037 20.1562 56.625 20.1562Z" fill="#724100"/>
<path fill-rule="evenodd" clip-rule="evenodd" d="M61.0554 24.4025C61.5062 24.8301 61.5251 25.5421 61.0975 25.9929L57.3628 29.9304C57.1526 30.1521 56.8613 30.2787 56.5558 30.2812C56.2503 30.2837 55.957 30.1619 55.7431 29.9437L51.884 26.0062C51.4491 25.5625 51.4563 24.8502 51.9 24.4153C52.3438 23.9804 53.0561 23.9876 53.491 24.4313L56.5333 27.5355L59.465 24.4446C59.8926 23.9938 60.6046 23.9749 61.0554 24.4025Z" fill="#724100"/>
</svg>
