<svg width="58" height="68" viewBox="0 0 58 68" fill="none" xmlns="http://www.w3.org/2000/svg">
<path fill-rule="evenodd" clip-rule="evenodd" d="M6.04228 2.30139C4.33365 2.30139 2.94853 3.68651 2.94853 5.39514V62.5165C2.94853 64.2251 4.33365 65.6102 6.04228 65.6102H42.6048C44.3134 65.6102 45.6985 64.2251 45.6985 62.5165V57.294C45.6985 56.6727 46.2022 56.169 46.8235 56.169C47.4449 56.169 47.9485 56.6727 47.9485 57.294V62.5165C47.9485 65.4677 45.5561 67.8602 42.6048 67.8602H6.04228C3.09101 67.8602 0.698532 65.4677 0.698532 62.5165V5.39514C0.698532 2.44387 3.09101 0.0513916 6.04228 0.0513916H37.0467C38.4639 0.0513916 39.8231 0.614393 40.8253 1.61654L46.3834 7.17466C47.3855 8.17681 47.9485 9.53602 47.9485 10.9533V42.7352C47.9485 43.3565 47.4449 43.8602 46.8235 43.8602C46.2022 43.8602 45.6985 43.3565 45.6985 42.7352V10.9533C45.6985 10.1328 45.3726 9.34585 44.7924 8.76566L39.2343 3.20753C38.6541 2.62734 37.8672 2.30139 37.0467 2.30139H6.04228Z" fill="#724100"/>
<path fill-rule="evenodd" clip-rule="evenodd" d="M8.55147 9.59186C8.55147 8.97054 9.05515 8.46686 9.67647 8.46686H22.0294C22.6507 8.46686 23.1544 8.97054 23.1544 9.59186C23.1544 10.2132 22.6507 10.7169 22.0294 10.7169H9.67647C9.05515 10.7169 8.55147 10.2132 8.55147 9.59186ZM8.55147 14.5661C8.55147 13.9448 9.05515 13.4411 9.67647 13.4411H38.7059C39.3272 13.4411 39.8309 13.9448 39.8309 14.5661C39.8309 15.1874 39.3272 15.6911 38.7059 15.6911H9.67647C9.05515 15.6911 8.55147 15.1874 8.55147 14.5661ZM8.55147 19.0992C8.55147 18.4779 9.05515 17.9742 9.67647 17.9742H38.7059C39.3272 17.9742 39.8309 18.4779 39.8309 19.0992C39.8309 19.7205 39.3272 20.2242 38.7059 20.2242H9.67647C9.05515 20.2242 8.55147 19.7205 8.55147 19.0992ZM8.55147 23.6323C8.55147 23.011 9.05515 22.5073 9.67647 22.5073H38.7059C39.3272 22.5073 39.8309 23.011 39.8309 23.6323C39.8309 24.2536 39.3272 24.7573 38.7059 24.7573H9.67647C9.05515 24.7573 8.55147 24.2536 8.55147 23.6323Z" fill="#724100"/>
<path fill-rule="evenodd" clip-rule="evenodd" d="M38.6176 0.227905C39.239 0.227905 39.7426 0.731585 39.7426 1.35291V7.7279H45.7647C46.386 7.7279 46.8897 8.23158 46.8897 8.8529C46.8897 9.47423 46.386 9.9779 45.7647 9.9779H37.4926V1.35291C37.4926 0.731585 37.9963 0.227905 38.6176 0.227905Z" fill="#724100"/>
<path opacity="0.4" fill-rule="evenodd" clip-rule="evenodd" d="M40.4706 60.2941C46.1234 60.2941 50.7059 55.7116 50.7059 50.0588C50.7059 44.406 46.1234 39.8235 40.4706 39.8235C34.8178 39.8235 30.2353 44.406 30.2353 50.0588C30.2353 55.7116 34.8178 60.2941 40.4706 60.2941Z" fill="#FFB71B"/>
<path fill-rule="evenodd" clip-rule="evenodd" d="M40.4706 58.0441C44.8807 58.0441 48.4559 54.4689 48.4559 50.0588C48.4559 45.6486 44.8807 42.0735 40.4706 42.0735C36.0604 42.0735 32.4853 45.6486 32.4853 50.0588C32.4853 54.4689 36.0604 58.0441 40.4706 58.0441ZM40.4706 60.2941C46.1234 60.2941 50.7059 55.7116 50.7059 50.0588C50.7059 44.406 46.1234 39.8235 40.4706 39.8235C34.8178 39.8235 30.2353 44.406 30.2353 50.0588C30.2353 55.7116 34.8178 60.2941 40.4706 60.2941Z" fill="#724100"/>
<path fill-rule="evenodd" clip-rule="evenodd" d="M45.7785 45.5101C46.2927 45.8588 46.4269 46.5584 46.0781 47.0726L40.1242 55.8521L34.8389 50.7825C34.3905 50.3524 34.3757 49.6402 34.8058 49.1918C35.2358 48.7434 35.948 48.7286 36.3964 49.1587L39.7581 52.3832L44.216 45.8097C44.5647 45.2955 45.2643 45.1613 45.7785 45.5101Z" fill="#724100"/>
<rect opacity="0.4" x="50.9375" y="5.3125" width="5.0625" height="4.5" fill="#FFB71B"/>
<path opacity="0.4" d="M53.4688 43L51.7638 39.625L55.1737 39.625L53.4688 43Z" fill="#FFB71B"/>
<path fill-rule="evenodd" clip-rule="evenodd" d="M49.5809 5.34003C49.5809 4.56338 50.2105 3.93378 50.9871 3.93378H55.8952C56.6719 3.93378 57.3015 4.56338 57.3015 5.34003V38.6136C57.3015 38.8206 57.2558 39.025 57.1676 39.2123L54.6336 44.5971C54.1201 45.6883 52.5614 45.6693 52.0746 44.566L49.7005 39.1848C49.6216 39.0059 49.5809 38.8126 49.5809 38.6171V5.34003ZM51.8309 38.4393L53.386 41.9641L55.0515 38.4249V6.18378H51.8309V38.4393Z" fill="#724100"/>
<path fill-rule="evenodd" clip-rule="evenodd" d="M49.5809 9.73529C49.5809 9.11397 50.0846 8.61029 50.7059 8.61029H56.0882C56.7096 8.61029 57.2132 9.11397 57.2132 9.73529C57.2132 10.3566 56.7096 10.8603 56.0882 10.8603H50.7059C50.0846 10.8603 49.5809 10.3566 49.5809 9.73529Z" fill="#724100"/>
<path fill-rule="evenodd" clip-rule="evenodd" d="M49.7574 38.9412C49.7574 38.3198 50.261 37.8162 50.8824 37.8162H55.8235C56.4449 37.8162 56.9485 38.3198 56.9485 38.9412C56.9485 39.5625 56.4449 40.0662 55.8235 40.0662H50.8824C50.261 40.0662 49.7574 39.5625 49.7574 38.9412Z" fill="#724100"/>
</svg>
