<svg width="53" height="66" viewBox="0 0 53 66" fill="none" xmlns="http://www.w3.org/2000/svg">
<path d="M3.27092 63.2868H47.1997C47.0846 61.004 46.6215 58.8129 45.8624 56.7656L47.5965 55.0315C48.8083 57.9169 49.4779 61.0861 49.4779 64.4118C49.4779 65.0331 48.9743 65.5368 48.3529 65.5368H2.11765C1.49632 65.5368 0.992645 65.0331 0.992645 64.4118C0.992645 51.0229 11.8464 40.1691 25.2353 40.1691C30.8533 40.1691 36.0249 42.0801 40.1357 45.2875L38.5313 46.8919C34.8386 44.0851 30.2315 42.4191 25.2353 42.4191C13.4664 42.4191 3.85658 51.6634 3.27092 63.2868Z" fill="#724100"/>
<path opacity="0.4" d="M22.8975 2.1912C20.5939 1.8347 18.1548 2.17075 16.1567 2.80738C9.05954 5.06874 6.01113 9.66687 5.07977 14.4498C4.2031 18.9518 5.20192 23.6298 6.51781 26.6879C6.69573 27.1014 7.16693 27.3024 7.58854 27.1447C8.22241 26.9075 8.8942 26.8071 9.48734 26.7903C9.94463 26.7774 10.3083 26.4024 10.3072 25.9449C10.3056 25.2666 10.3389 24.6323 10.3976 24.0596C10.4123 23.9161 10.5332 23.807 10.6774 23.807C20.0252 23.807 26.2525 18.2809 28.1828 15.5438C28.2375 15.4663 28.3276 15.4216 28.4225 15.4249C28.5173 15.4282 28.6041 15.4791 28.6532 15.5602C30.1547 18.0394 32.3335 19.928 34.4133 21.2757C36.4921 22.6228 38.5208 23.4612 39.7832 23.8176C39.8957 23.8494 39.9768 23.9474 39.987 24.0639C40.0373 24.6411 40.0608 25.2807 40.0481 25.9648C40.04 26.4042 40.3705 26.7763 40.8078 26.82C41.3276 26.8719 41.8764 26.9903 42.3915 27.203C42.7342 27.3445 43.1292 27.2456 43.3649 26.9592C43.4696 26.832 43.5954 26.6698 43.7341 26.4725C44.1325 25.9056 44.6361 25.0499 45.0478 23.9032C45.8696 21.6142 46.3316 18.1484 44.833 13.4783C43.3434 8.83648 40.397 6.45431 37.3458 5.45824C34.2783 4.45682 31.0978 4.85433 29.1647 5.79243C29.04 5.85294 28.8898 5.81358 28.8108 5.69968C27.3473 3.58951 25.1969 2.54706 22.8975 2.1912Z" fill="#FFB71B"/>
<path fill-rule="evenodd" clip-rule="evenodd" d="M22.7684 3.02499C20.6217 2.69277 18.3166 3.00469 16.4128 3.61127C9.62348 5.77455 6.7832 10.116 5.9079 14.611C5.01404 19.2014 6.16529 24.0282 7.55668 26.9362C7.82485 27.4966 7.58789 28.1684 7.02743 28.4365C6.46696 28.7047 5.79521 28.4678 5.52705 27.9073C3.97727 24.6683 2.69323 19.348 3.69938 14.181C4.7241 8.91864 8.11913 3.89242 15.7298 1.46747C17.8849 0.780795 20.5473 0.404474 23.1125 0.801456C25.4301 1.16014 27.7102 2.16093 29.4062 4.16715C31.657 3.34949 34.7784 3.14078 37.7822 4.12139C41.2542 5.25485 44.5419 7.96898 46.1719 13.0486C47.7656 18.0151 47.2974 21.799 46.3713 24.3783C45.9114 25.6592 45.345 26.626 44.8845 27.2811C44.6543 27.6088 44.4501 27.859 44.2982 28.0325C44.2223 28.1192 44.1593 28.1869 44.1125 28.2354C44.0891 28.2597 44.0698 28.2793 44.0549 28.2941C44.0474 28.3015 44.0411 28.3077 44.0359 28.3128L44.029 28.3194L44.0263 28.3221L44.025 28.3233C44.0245 28.3238 44.0239 28.3243 43.2478 27.51L44.0239 28.3243C43.5742 28.753 42.8621 28.7359 42.4334 28.2861C42.0062 27.8379 42.0217 27.1291 42.467 26.7C42.4685 26.6985 42.4701 26.6971 42.4716 26.6956L43.1883 27.4475C42.4716 26.6956 42.4711 26.6961 42.4706 26.6965L42.4697 26.6974L42.4685 26.6985C42.4705 26.6966 42.4738 26.6933 42.4784 26.6885C42.482 26.6849 42.4863 26.6805 42.4913 26.6752C42.5147 26.651 42.5538 26.6093 42.6055 26.5502C42.7091 26.4318 42.8631 26.2443 43.0437 25.9873C43.405 25.4734 43.8709 24.6843 44.2537 23.6181C45.0129 21.5033 45.4711 18.2284 44.0295 13.7361C42.6242 9.35685 39.8825 7.17392 37.0839 6.2603C34.2197 5.32525 31.2654 5.71079 29.5331 6.55148C29.0343 6.79355 28.4334 6.6361 28.1175 6.1805C26.8154 4.30314 24.8965 3.35433 22.7684 3.02499Z" fill="#724100"/>
<path fill-rule="evenodd" clip-rule="evenodd" d="M6.22061 26.9019C7.50966 26.0302 9.13559 25.8799 10.2023 25.9646C10.8217 26.0137 11.2839 26.5557 11.2348 27.1751C11.1856 27.7944 10.6437 28.2567 10.0243 28.2075C9.23807 28.1451 8.19047 28.286 7.481 28.7658C7.15017 28.9895 6.89924 29.2806 6.75363 29.6742C6.6053 30.0753 6.53551 30.6672 6.71497 31.5346C6.89359 32.3979 7.18773 32.8471 7.44558 33.083C7.69426 33.3105 8.0026 33.4258 8.39366 33.4422C9.25096 33.4782 10.3175 33.0229 11.0663 32.5105C11.5791 32.1597 12.2792 32.2909 12.63 32.8037C12.9809 33.3165 12.8496 34.0166 12.3368 34.3675C11.4092 35.0022 9.85509 35.7556 8.29914 35.6902C7.48358 35.6559 6.63713 35.3929 5.9268 34.743C5.22564 34.1015 4.75654 33.1742 4.51163 31.9905C4.26757 30.8108 4.31689 29.7763 4.64337 28.8937C4.97259 28.0037 5.55217 27.354 6.22061 26.9019Z" fill="#724100"/>
<path fill-rule="evenodd" clip-rule="evenodd" d="M43.6111 26.9019C42.3221 26.0302 40.6961 25.8799 39.6294 25.9646C39.01 26.0137 38.5478 26.5557 38.5969 27.1751C38.6461 27.7944 39.188 28.2567 39.8074 28.2075C40.5936 28.1451 41.6412 28.286 42.3507 28.7658C42.6815 28.9895 42.9325 29.2806 43.0781 29.6742C43.2264 30.0753 43.2962 30.6672 43.1167 31.5346C42.9381 32.3979 42.644 32.8471 42.3861 33.083C42.1374 33.3105 41.8291 33.4258 41.4381 33.4422C40.5808 33.4782 39.5142 33.0229 38.7654 32.5105C38.2526 32.1597 37.5525 32.2909 37.2017 32.8037C36.8508 33.3165 36.9821 34.0166 37.4949 34.3675C38.4226 35.0022 39.9766 35.7556 41.5326 35.6902C42.3481 35.6559 43.1946 35.3929 43.9049 34.743C44.6061 34.1015 45.0752 33.1742 45.3201 31.9905C45.5641 30.8108 45.5148 29.7763 45.1883 28.8937C44.8591 28.0037 44.2795 27.354 43.6111 26.9019Z" fill="#724100"/>
<path fill-rule="evenodd" clip-rule="evenodd" d="M28.4518 14.5816C28.8312 14.5948 29.1783 14.7985 29.3749 15.1231C32.2053 19.7966 37.6578 22.3408 40.0124 23.0056C40.4624 23.1327 40.7869 23.5248 40.8275 23.9906C41.0915 27.0185 40.645 31.5714 38.3844 35.4126C36.0764 39.3344 31.9243 42.4192 25.0597 42.4192C18.1937 42.4192 14.0807 39.3323 11.8278 35.4014C9.6235 31.5554 9.24783 26.9998 9.55822 23.9735C9.61708 23.3996 10.1005 22.9633 10.6774 22.9633C19.693 22.9633 25.6844 17.6223 27.4933 15.0575C27.712 14.7474 28.0725 14.5684 28.4518 14.5816ZM11.727 25.1913C11.6216 27.8366 12.0951 31.343 13.7799 34.2826C15.6358 37.5208 19.0081 40.1692 25.0597 40.1692C31.1128 40.1692 34.5342 37.5187 36.4453 34.2714C38.2321 31.2352 38.7368 27.5981 38.6324 24.9278C35.9871 24.011 31.3731 21.6661 28.3318 17.5948C25.6196 20.6093 19.8464 24.85 11.727 25.1913Z" fill="#724100"/>
<path opacity="0.4" d="M44.2941 57.8824C48.5825 57.8824 52.0588 54.406 52.0588 50.1177C52.0588 45.8293 48.5825 42.353 44.2941 42.353C40.0058 42.353 36.5294 45.8293 36.5294 50.1177C36.5294 54.406 40.0058 57.8824 44.2941 57.8824Z" fill="#FFB71B"/>
<path fill-rule="evenodd" clip-rule="evenodd" d="M44.2941 55.6324C47.3398 55.6324 49.8088 53.1634 49.8088 50.1177C49.8088 47.072 47.3398 44.603 44.2941 44.603C41.2484 44.603 38.7794 47.072 38.7794 50.1177C38.7794 53.1634 41.2484 55.6324 44.2941 55.6324ZM44.2941 57.8824C48.5825 57.8824 52.0588 54.406 52.0588 50.1177C52.0588 45.8293 48.5825 42.353 44.2941 42.353C40.0058 42.353 36.5294 45.8293 36.5294 50.1177C36.5294 54.406 40.0058 57.8824 44.2941 57.8824Z" fill="#724100"/>
<path fill-rule="evenodd" clip-rule="evenodd" d="M44.1562 45.6563C44.7776 45.6563 45.2812 46.16 45.2812 46.7813V53.2501C45.2812 53.8714 44.7776 54.3751 44.1562 54.3751C43.5349 54.3751 43.0312 53.8714 43.0312 53.2501V46.7813C43.0312 46.16 43.5349 45.6563 44.1562 45.6563Z" fill="#724100"/>
<path fill-rule="evenodd" clip-rule="evenodd" d="M48.6562 50.1563C48.6562 50.7776 48.1526 51.2813 47.5312 51.2813L41.0625 51.2813C40.4412 51.2813 39.9375 50.7776 39.9375 50.1563C39.9375 49.535 40.4412 49.0313 41.0625 49.0313L47.5312 49.0313C48.1526 49.0313 48.6562 49.535 48.6562 50.1563Z" fill="#724100"/>
</svg>
