<svg width="59" height="68" viewBox="0 0 59 68" fill="none" xmlns="http://www.w3.org/2000/svg">
<path d="M6.33641 2.30139C4.62778 2.30139 3.24266 3.68651 3.24266 5.39514V62.5165C3.24266 64.2251 4.62778 65.6102 6.33641 65.6102H42.8989C44.6075 65.6102 45.9927 64.2251 45.9927 62.5165V60.4375H48.2427V62.5165C48.2427 65.4677 45.8502 67.8602 42.8989 67.8602H6.33641C3.38514 67.8602 0.992661 65.4677 0.992661 62.5165V5.39514C0.992661 2.44387 3.38514 0.0513916 6.33641 0.0513916H37.3408C38.758 0.0513916 40.1172 0.614393 41.1194 1.61654L46.6775 7.17466C47.6797 8.17681 48.2427 9.53601 48.2427 10.9533V39.0625H45.9927V10.9533C45.9927 10.1328 45.6667 9.34585 45.0865 8.76566L39.5284 3.20753C38.9482 2.62734 38.1613 2.30139 37.3408 2.30139H6.33641Z" fill="#724100"/>
<path fill-rule="evenodd" clip-rule="evenodd" d="M8.84558 9.02936C8.84558 8.40804 9.34926 7.90436 9.97058 7.90436H22.3235C22.9448 7.90436 23.4485 8.40804 23.4485 9.02936C23.4485 9.65068 22.9448 10.1544 22.3235 10.1544H9.97058C9.34926 10.1544 8.84558 9.65068 8.84558 9.02936ZM8.84558 13.4411C8.84558 12.8198 9.34926 12.3161 9.97058 12.3161H39C39.6213 12.3161 40.125 12.8198 40.125 13.4411C40.125 14.0624 39.6213 14.5661 39 14.5661H9.97058C9.34926 14.5661 8.84558 14.0624 8.84558 13.4411ZM8.84558 17.4117C8.84558 16.7904 9.34926 16.2867 9.97058 16.2867H39C39.6213 16.2867 40.125 16.7904 40.125 17.4117C40.125 18.033 39.6213 18.5367 39 18.5367H9.97058C9.34926 18.5367 8.84558 18.033 8.84558 17.4117ZM8.84558 21.3823C8.84558 20.761 9.34926 20.2573 9.97058 20.2573H39C39.6213 20.2573 40.125 20.761 40.125 21.3823C40.125 22.0036 39.6213 22.5073 39 22.5073H9.97058C9.34926 22.5073 8.84558 22.0036 8.84558 21.3823Z" fill="#724100"/>
<path fill-rule="evenodd" clip-rule="evenodd" d="M8.84558 25.7059C8.84558 25.0846 9.34926 24.5809 9.97058 24.5809H39C39.6213 24.5809 40.125 25.0846 40.125 25.7059C40.125 26.3272 39.6213 26.8309 39 26.8309H9.97058C9.34926 26.8309 8.84558 26.3272 8.84558 25.7059ZM8.84558 29.6765C8.84558 29.0551 9.34926 28.5515 9.97058 28.5515H39C39.6213 28.5515 40.125 29.0551 40.125 29.6765C40.125 30.2978 39.6213 30.8015 39 30.8015H9.97058C9.34926 30.8015 8.84558 30.2978 8.84558 29.6765ZM8.84558 33.647C8.84558 33.0257 9.34926 32.522 9.97058 32.522H39C39.6213 32.522 40.125 33.0257 40.125 33.647C40.125 34.2684 39.6213 34.772 39 34.772H9.97058C9.34926 34.772 8.84558 34.2684 8.84558 33.647Z" fill="#724100"/>
<path fill-rule="evenodd" clip-rule="evenodd" d="M38.9118 0.227844C39.5332 0.227844 40.0368 0.731524 40.0368 1.35284V7.72784H46.0589C46.6802 7.72784 47.1839 8.23152 47.1839 8.85284C47.1839 9.47416 46.6802 9.97784 46.0589 9.97784H37.7868V1.35284C37.7868 0.731524 38.2905 0.227844 38.9118 0.227844Z" fill="#724100"/>
<path opacity="0.4" fill-rule="evenodd" clip-rule="evenodd" d="M28.7481 37.8823C26.4182 37.8823 24.5294 39.7711 24.5294 42.1011V57.3106C24.5294 59.6406 26.4182 61.5294 28.7481 61.5294H53.785C56.115 61.5294 58.0038 59.6406 58.0038 57.3106V42.1011C58.0038 39.7711 56.115 37.8823 53.785 37.8823H28.7481Z" fill="#FFB71B"/>
<path fill-rule="evenodd" clip-rule="evenodd" d="M53.7851 40.1323H28.7482C27.6609 40.1323 26.7794 41.0138 26.7794 42.1011V57.3106C26.7794 58.3979 27.6609 59.2794 28.7482 59.2794H53.7851C54.8724 59.2794 55.7538 58.3979 55.7538 57.3106V42.1011C55.7538 41.0138 54.8724 40.1323 53.7851 40.1323ZM28.7482 37.8823C26.4182 37.8823 24.5294 39.7711 24.5294 42.1011V57.3106C24.5294 59.6406 26.4182 61.5294 28.7482 61.5294H53.7851C56.115 61.5294 58.0038 59.6406 58.0038 57.3106V42.1011C58.0038 39.7711 56.115 37.8823 53.7851 37.8823H28.7482Z" fill="#724100"/>
<path fill-rule="evenodd" clip-rule="evenodd" d="M28.1888 52C28.1888 51.3786 28.6924 50.875 29.3138 50.875H33.9203C34.5417 50.875 35.0453 51.3786 35.0453 52C35.0453 52.6213 34.5417 53.125 33.9203 53.125H29.3138C28.6924 53.125 28.1888 52.6213 28.1888 52Z" fill="#724100"/>
<path fill-rule="evenodd" clip-rule="evenodd" d="M36.4516 52C36.4516 51.3786 36.9553 50.875 37.5766 50.875H42.1832C42.8045 50.875 43.3082 51.3786 43.3082 52C43.3082 52.6213 42.8045 53.125 42.1832 53.125H37.5766C36.9553 53.125 36.4516 52.6213 36.4516 52Z" fill="#724100"/>
<path fill-rule="evenodd" clip-rule="evenodd" d="M44.7144 52C44.7144 51.3786 45.2181 50.875 45.8394 50.875H50.446C51.0673 50.875 51.571 51.3786 51.571 52C51.571 52.6213 51.0673 53.125 50.446 53.125H45.8394C45.2181 53.125 44.7144 52.6213 44.7144 52Z" fill="#724100"/>
<path fill-rule="evenodd" clip-rule="evenodd" d="M51.3251 45.6127C51.8916 45.6127 52.3509 45.1534 52.3509 44.5869C52.3509 44.0204 51.8916 43.5611 51.3251 43.5611C50.7586 43.5611 50.2993 44.0204 50.2993 44.5869C50.2993 45.1534 50.7586 45.6127 51.3251 45.6127ZM51.3251 47.8627C53.1342 47.8627 54.6009 46.396 54.6009 44.5869C54.6009 42.7777 53.1342 41.3111 51.3251 41.3111C49.5159 41.3111 48.0493 42.7777 48.0493 44.5869C48.0493 46.396 49.5159 47.8627 51.3251 47.8627Z" fill="#724100"/>
<path fill-rule="evenodd" clip-rule="evenodd" d="M47.9615 45.6127C48.528 45.6127 48.9873 45.1534 48.9873 44.5869C48.9873 44.0204 48.528 43.5611 47.9615 43.5611C47.395 43.5611 46.9357 44.0204 46.9357 44.5869C46.9357 45.1534 47.395 45.6127 47.9615 45.6127ZM47.9615 47.8627C49.7706 47.8627 51.2373 46.396 51.2373 44.5869C51.2373 42.7777 49.7706 41.3111 47.9615 41.3111C46.1523 41.3111 44.6857 42.7777 44.6857 44.5869C44.6857 46.396 46.1523 47.8627 47.9615 47.8627Z" fill="#724100"/>
<path d="M25.2353 55H57.7059V58H25.2353V55Z" fill="#724100"/>
</svg>
