<svg width="60" height="64" viewBox="0 0 60 64" fill="none" xmlns="http://www.w3.org/2000/svg">
<path opacity="0.4" d="M54.8273 14.3537C54.8273 13.8904 54.6368 13.4474 54.3004 13.1287C53.964 12.81 53.5115 12.6437 53.0488 12.6687C50.6831 12.7964 47.079 13.3757 43.1357 14.5805C38.7419 15.9229 33.9053 18.0486 29.905 21.2089C29.4989 21.5297 29.2625 22.0191 29.2636 22.5367L29.3442 59.8211C29.3456 60.48 29.7304 61.0778 30.3296 61.3519C30.9287 61.6261 31.6326 61.5264 32.1322 61.0967C35.3786 58.304 39.3011 56.4372 43.0628 55.232C46.9485 53.9872 50.6483 53.4528 53.2219 53.3274C54.1209 53.2836 54.8273 52.542 54.8273 51.6419V14.3537Z" fill="#FFB71B"/>
<path fill-rule="evenodd" clip-rule="evenodd" d="M15.5606 0.610142C14.7047 0.436484 13.875 1.08463 13.875 1.98564V5.94434L8.92632 4.31739C8.0168 4.01837 7.08087 4.69588 7.08087 5.65329V19.0393L0.463257 21.215V59.6176C0.463257 59.8339 0.524322 60.036 0.63016 60.2075C0.855878 60.7792 1.50005 61.0648 2.07626 60.8457C4.80134 59.8096 9.48608 58.578 14.5596 58.5345C19.634 58.491 24.9785 59.6345 29.1829 63.21C29.4069 63.4004 29.6837 63.4879 29.956 63.4771C29.985 63.4782 30.0141 63.4782 30.0432 63.4771C30.2593 63.486 30.4802 63.4328 30.6783 63.3108C41.8615 56.4236 53.2548 58.6702 57.8479 60.8136C58.0174 60.8927 58.1967 60.9259 58.3715 60.9183C58.3849 60.9188 58.3983 60.9191 58.4118 60.9191C59.0331 60.9191 59.5368 60.4154 59.5368 59.7941V22.0459L55.3897 20.4792V13.4814C55.3897 12.7487 54.8092 12.0775 53.993 12.0784C51.618 12.0809 47.4952 12.6604 42.9713 14.0425C39.0318 15.2461 34.7187 17.0792 30.9487 19.73C30.831 16.9017 30.1002 13.2351 28.2425 9.83117C25.9765 5.67897 22.0301 1.92284 15.5606 0.610142ZM55.3897 22.8844V52.7354C55.3897 53.3567 54.8861 53.8604 54.2647 53.8604H54.2627C51.7849 53.8755 47.6369 54.3573 43.2344 55.7677C41.8629 56.2071 40.4748 56.734 39.11 57.3606C46.5323 55.5516 53.239 56.6707 57.2868 58.1509V23.6011L55.3897 22.8844ZM2.71326 22.8437L7.08087 21.4078V44.9289C7.08087 45.549 7.48905 46.1209 8.12561 46.2887C10.8415 47.0045 15.066 48.493 19.0887 51.0809C22.2122 53.0903 25.1724 55.7348 27.2334 59.1584C23.2065 56.9633 18.7064 56.2489 14.5403 56.2846C9.95278 56.3239 5.68428 57.2717 2.71326 58.2379V22.8437ZM42.5479 53.625C38.6422 54.8763 34.4981 56.8353 31.0316 59.8174L30.9511 22.533C34.7349 19.5437 39.3612 17.4981 43.6287 16.1943C47.457 15.0247 50.9259 14.4732 53.1397 14.3537V51.6419C50.4311 51.7739 46.5848 52.3317 42.5479 53.625ZM28.1411 56.4483C25.972 47.391 18.8631 43.4582 14.9463 42.4962C14.3081 42.3394 13.875 41.7698 13.875 41.1282V8.31282L9.33087 6.81887V44.2857C12.201 45.0976 16.3333 46.6329 20.3061 49.1887C23.1582 51.0235 25.9589 53.4048 28.1411 56.4483ZM28.6984 21.2982L28.7636 51.4571C25.6274 44.8974 19.9305 41.6094 16.125 40.4851V3.04826C21.2555 4.37549 24.3957 7.4792 26.2675 10.909C28.2812 14.5988 28.8229 18.6705 28.6997 21.2703L28.6984 21.2982Z" fill="#724100"/>
</svg>
