<svg width="62" height="65" viewBox="0 0 62 65" fill="none" xmlns="http://www.w3.org/2000/svg">
<path opacity="0.4" fill-rule="evenodd" clip-rule="evenodd" d="M11.7439 33C10.5736 33 9.62495 34.0217 9.62495 35.282V38.593C9.62495 39.8533 10.5736 40.875 11.7439 40.875H14.8185C15.9888 40.875 16.9375 39.8533 16.9375 38.593V35.282C16.9375 34.0217 15.9888 33 14.8185 33H11.7439Z" fill="#FFB71B"/>
<path opacity="0.4" fill-rule="evenodd" clip-rule="evenodd" d="M11.7439 49.3125C10.5736 49.3125 9.62495 50.3342 9.62495 51.5945V54.9055C9.62495 56.1658 10.5736 57.1875 11.7439 57.1875H14.8185C15.9888 57.1875 16.9375 56.1658 16.9375 54.9055V51.5945C16.9375 50.3342 15.9888 49.3125 14.8185 49.3125H11.7439Z" fill="#FFB71B"/>
<path opacity="0.4" fill-rule="evenodd" clip-rule="evenodd" d="M29.1814 33C28.0111 33 27.0625 34.0217 27.0625 35.282V38.593C27.0625 39.8533 28.0111 40.875 29.1814 40.875H32.256C33.4263 40.875 34.375 39.8533 34.375 38.593V35.282C34.375 34.0217 33.4263 33 32.256 33H29.1814Z" fill="#FFB71B"/>
<path opacity="0.4" fill-rule="evenodd" clip-rule="evenodd" d="M29.1814 49.3125C28.0111 49.3125 27.0625 50.3342 27.0625 51.5945V54.9055C27.0625 56.1658 28.0111 57.1875 29.1814 57.1875H32.256C33.4263 57.1875 34.375 56.1658 34.375 54.9055V51.5945C34.375 50.3342 33.4263 49.3125 32.256 49.3125H29.1814Z" fill="#FFB71B"/>
<path opacity="0.4" fill-rule="evenodd" clip-rule="evenodd" d="M46.6189 33C45.4486 33 44.5 34.0217 44.5 35.282V38.593C44.5 39.8533 45.4486 40.875 46.6189 40.875H49.6935C50.8638 40.875 51.8125 39.8533 51.8125 38.593V35.282C51.8125 34.0217 50.8638 33 49.6935 33H46.6189Z" fill="#FFB71B"/>
<path opacity="0.4" fill-rule="evenodd" clip-rule="evenodd" d="M46.6189 49.3125C45.4486 49.3125 44.5 50.3342 44.5 51.5945V54.9055C44.5 56.1658 45.4486 57.1875 46.6189 57.1875H49.6935C50.8638 57.1875 51.8125 56.1658 51.8125 54.9055V51.5945C51.8125 50.3342 50.8638 49.3125 49.6935 49.3125H46.6189Z" fill="#FFB71B"/>
<path fill-rule="evenodd" clip-rule="evenodd" d="M15.3052 34.3677H11.2243C10.9136 34.3677 10.6618 34.6195 10.6618 34.9302V39.0111C10.6618 39.3217 10.9136 39.5736 11.2243 39.5736H15.3052C15.6158 39.5736 15.8677 39.3217 15.8677 39.0111V34.9302C15.8677 34.6195 15.6158 34.3677 15.3052 34.3677ZM11.2243 32.1177C9.67099 32.1177 8.41179 33.3769 8.41179 34.9302V39.0111C8.41179 40.5644 9.67099 41.8236 11.2243 41.8236H15.3052C16.8585 41.8236 18.1177 40.5644 18.1177 39.0111V34.9302C18.1177 33.3769 16.8585 32.1177 15.3052 32.1177H11.2243Z" fill="#724100"/>
<path fill-rule="evenodd" clip-rule="evenodd" d="M15.3052 50.4265H11.2243C10.9136 50.4265 10.6618 50.6783 10.6618 50.989V55.0698C10.6618 55.3805 10.9136 55.6323 11.2243 55.6323H15.3052C15.6158 55.6323 15.8677 55.3805 15.8677 55.0698V50.989C15.8677 50.6783 15.6158 50.4265 15.3052 50.4265ZM11.2243 48.1765C9.67097 48.1765 8.41177 49.4357 8.41177 50.989V55.0698C8.41177 56.6231 9.67097 57.8823 11.2243 57.8823H15.3052C16.8585 57.8823 18.1177 56.6231 18.1177 55.0698V50.989C18.1177 49.4357 16.8585 48.1765 15.3052 48.1765H11.2243Z" fill="#724100"/>
<path opacity="0.4" d="M4.86581 4.76471C2.53586 4.76471 0.647064 6.6535 0.647064 8.98346V25.125L61.3529 25.125V8.98346C61.3529 6.65351 59.4642 4.76471 57.1342 4.76471H4.86581Z" fill="#FFB71B"/>
<path fill-rule="evenodd" clip-rule="evenodd" d="M57.1342 7.01471H4.86581C3.7785 7.01471 2.89706 7.89615 2.89706 8.98346V60.546C2.89706 61.6333 3.7785 62.5147 4.86581 62.5147H57.1342C58.2215 62.5147 59.1029 61.6333 59.1029 60.546V8.98346C59.1029 7.89615 58.2215 7.01471 57.1342 7.01471ZM4.86581 4.76471C2.53586 4.76471 0.647064 6.6535 0.647064 8.98346V60.546C0.647064 62.8759 2.53586 64.7647 4.86581 64.7647H57.1342C59.4641 64.7647 61.3529 62.8759 61.3529 60.546V8.98346C61.3529 6.65351 59.4642 4.76471 57.1342 4.76471H4.86581Z" fill="#724100"/>
<path fill-rule="evenodd" clip-rule="evenodd" d="M32.9522 34.3677H28.8713C28.5607 34.3677 28.3088 34.6195 28.3088 34.9302V39.0111C28.3088 39.3217 28.5607 39.5736 28.8713 39.5736H32.9522C33.2629 39.5736 33.5147 39.3217 33.5147 39.0111V34.9302C33.5147 34.6195 33.2629 34.3677 32.9522 34.3677ZM28.8713 32.1177C27.318 32.1177 26.0588 33.3769 26.0588 34.9302V39.0111C26.0588 40.5644 27.318 41.8236 28.8713 41.8236H32.9522C34.5055 41.8236 35.7647 40.5644 35.7647 39.0111V34.9302C35.7647 33.3769 34.5055 32.1177 32.9522 32.1177H28.8713Z" fill="#724100"/>
<path fill-rule="evenodd" clip-rule="evenodd" d="M32.9522 50.4265H28.8713C28.5607 50.4265 28.3088 50.6783 28.3088 50.989V55.0698C28.3088 55.3805 28.5607 55.6323 28.8713 55.6323H32.9522C33.2629 55.6323 33.5147 55.3805 33.5147 55.0698V50.989C33.5147 50.6783 33.2629 50.4265 32.9522 50.4265ZM28.8713 48.1765C27.318 48.1765 26.0588 49.4357 26.0588 50.989V55.0698C26.0588 56.6231 27.318 57.8823 28.8713 57.8823H32.9522C34.5055 57.8823 35.7647 56.6231 35.7647 55.0698V50.989C35.7647 49.4357 34.5055 48.1765 32.9522 48.1765H28.8713Z" fill="#724100"/>
<path fill-rule="evenodd" clip-rule="evenodd" d="M50.5993 34.3677H46.5184C46.2077 34.3677 45.9559 34.6195 45.9559 34.9302V39.0111C45.9559 39.3217 46.2077 39.5736 46.5184 39.5736H50.5993C50.9099 39.5736 51.1618 39.3217 51.1618 39.0111V34.9302C51.1618 34.6195 50.9099 34.3677 50.5993 34.3677ZM46.5184 32.1177C44.9651 32.1177 43.7059 33.3769 43.7059 34.9302V39.0111C43.7059 40.5644 44.9651 41.8236 46.5184 41.8236H50.5993C52.1526 41.8236 53.4118 40.5644 53.4118 39.0111V34.9302C53.4118 33.3769 52.1526 32.1177 50.5993 32.1177H46.5184Z" fill="#724100"/>
<path fill-rule="evenodd" clip-rule="evenodd" d="M50.5993 50.4265H46.5184C46.2077 50.4265 45.9559 50.6783 45.9559 50.989V55.0698C45.9559 55.3805 46.2077 55.6323 46.5184 55.6323H50.5993C50.9099 55.6323 51.1618 55.3805 51.1618 55.0698V50.989C51.1618 50.6783 50.9099 50.4265 50.5993 50.4265ZM46.5184 48.1765C44.9651 48.1765 43.7059 49.4357 43.7059 50.989V55.0698C43.7059 56.6231 44.9651 57.8823 46.5184 57.8823H50.5993C52.1526 57.8823 53.4118 56.6231 53.4118 55.0698V50.989C53.4118 49.4357 52.1526 48.1765 50.5993 48.1765H46.5184Z" fill="#724100"/>
<path fill-rule="evenodd" clip-rule="evenodd" d="M1.1875 25.125C1.1875 24.5037 1.69118 24 2.3125 24H59.6875C60.3088 24 60.8125 24.5037 60.8125 25.125C60.8125 25.7463 60.3088 26.25 59.6875 26.25H2.3125C1.69118 26.25 1.1875 25.7463 1.1875 25.125Z" fill="#724100"/>
<path fill-rule="evenodd" clip-rule="evenodd" d="M13 0.110291C13.6213 0.110291 14.125 0.61397 14.125 1.23529V9.88235C14.125 10.5037 13.6213 11.0073 13 11.0073C12.3787 11.0073 11.875 10.5037 11.875 9.88235V1.23529C11.875 0.61397 12.3787 0.110291 13 0.110291Z" fill="#724100"/>
<path fill-rule="evenodd" clip-rule="evenodd" d="M31 0.110291C31.6213 0.110291 32.125 0.61397 32.125 1.23529V9.88235C32.125 10.5037 31.6213 11.0073 31 11.0073C30.3787 11.0073 29.875 10.5037 29.875 9.88235V1.23529C29.875 0.61397 30.3787 0.110291 31 0.110291Z" fill="#724100"/>
<path fill-rule="evenodd" clip-rule="evenodd" d="M49 0.110291C49.6213 0.110291 50.125 0.61397 50.125 1.23529V9.88235C50.125 10.5037 49.6213 11.0073 49 11.0073C48.3787 11.0073 47.875 10.5037 47.875 9.88235V1.23529C47.875 0.61397 48.3787 0.110291 49 0.110291Z" fill="#724100"/>
</svg>
