<svg width="160" height="238" viewBox="0 0 160 238" fill="none" xmlns="http://www.w3.org/2000/svg">
<path d="M148.751 160.212H148.58C136.962 159.843 125.845 157.051 115.517 151.9C104.557 157.341 92.3082 160.212 80.0066 160.212C67.705 160.212 55.206 157.327 43.9701 151.637L40.5756 149.819C39.0231 148.936 37.4575 147.974 35.9313 146.96L34.9708 146.315C34.8656 146.249 34.6551 146.104 34.4446 145.959L30.6817 143.179C30.2212 142.811 29.7476 142.442 29.3003 142.06L18.7616 131.64L17.0907 129.585C16.3671 128.663 15.7356 127.819 15.1172 126.963L14.1699 125.633L16.775 123.604L14.0778 125.488L13.2358 124.25C13.2358 124.25 13.1568 124.131 13.1174 124.065L12.2753 122.761C12.1701 122.59 12.078 122.458 11.999 122.326L11.8017 121.984C10.9202 120.561 10.0913 119.086 9.31505 117.637L9.22296 117.452C9.13086 117.268 9.0256 117.083 8.93351 116.912L7.76255 114.567C6.78895 112.525 5.88113 110.391 5.07856 108.244L4.26284 105.926C3.30239 103.093 2.48667 100.169 1.85514 97.2445L1.69726 96.9152V96.4804C0.57893 91.1189 0.0131872 85.6126 0.0131872 80.093C3.03967e-05 35.9365 35.8918 0 79.9935 0C101.886 0 122.332 8.68113 137.541 24.4626L138.173 25.1213C139.068 26.0697 139.975 27.0709 140.87 28.1248L142.028 29.5211C142.83 30.5091 143.633 31.5498 144.409 32.5905L145.896 34.685C146.383 35.3964 146.804 36.0287 147.212 36.6478L149.08 39.6908C149.448 40.3231 149.79 40.9291 150.119 41.5219C150.159 41.5746 150.211 41.6931 150.277 41.8117L151.751 44.6571C151.751 44.6571 151.856 44.8547 151.909 44.9996C152.066 45.3158 152.251 45.6846 152.422 46.0666L155.395 53.2987C155.448 53.4305 155.5 53.6017 155.553 53.7598L156.421 56.3812C156.5 56.6315 156.579 56.9082 156.671 57.1848L157.408 59.8458C157.434 59.938 157.474 60.0961 157.513 60.2673L157.737 61.1895C157.763 61.308 157.816 61.5188 157.869 61.7296L157.934 62.0062C158.013 62.3224 158.079 62.6253 158.145 62.9283L159.684 73.019C159.711 73.2693 159.737 73.5723 159.75 73.8621L159.987 79.1182C159.987 79.4475 159.987 79.7637 159.987 80.093C159.987 80.4223 159.987 80.7385 159.987 81.0678V81.9899V148.949C159.987 155.167 154.935 160.212 148.738 160.212H148.751ZM115.517 144.484L117.043 145.287C126.911 150.464 137.581 153.27 148.777 153.626C151.317 153.626 153.422 151.531 153.422 148.949V85.2832H153.343L153.395 81.9109C153.408 81.3049 153.422 80.7121 153.422 80.1062L153.211 74.4285C153.185 74.0992 153.172 73.8621 153.145 73.6118L152.58 68.9221C152.58 68.9221 152.553 68.7904 152.553 68.7245L152.448 68.0922L155.671 67.394L152.435 67.9473L151.738 64.3379C151.685 64.0744 151.619 63.8241 151.567 63.5606L150.396 59.0949C150.317 58.8051 150.238 58.568 150.172 58.3441L146.488 48.8594C146.343 48.5564 146.185 48.2139 146.014 47.8714L144.422 44.7888C144.093 44.1829 143.778 43.6296 143.462 43.0895L146.199 41.2453L143.383 42.9446L141.659 40.1519C141.344 39.6645 140.949 39.0849 140.567 38.5052L139.725 37.3065L142.304 35.2515L139.633 37.1879L139.107 36.4634C138.449 35.5676 137.699 34.606 136.949 33.6838L135.884 32.406C135.081 31.4707 134.278 30.575 133.489 29.7319L132.897 29.1127C118.911 14.5959 100.137 6.61294 80.0329 6.61294C39.5099 6.58659 6.57844 39.5723 6.57844 80.1062C6.57844 85.2832 7.11787 90.4471 8.18357 95.4661L8.2362 95.7164C8.8151 98.3906 9.55188 101.038 10.4202 103.633L10.4992 103.857L11.0518 105.425C11.8148 107.506 12.67 109.561 13.6042 111.537L13.7489 111.84L15.1961 114.699C15.8014 115.845 16.4855 117.044 17.2091 118.229L17.3144 118.335L19.0248 121.075C19.0906 121.154 19.1432 121.246 19.1958 121.325L20.4457 123.103C21.0246 123.907 21.6035 124.684 22.1956 125.435L29.2345 133.207L33.4841 136.975C33.892 137.304 34.2998 137.633 34.7209 137.963L38.2337 140.558C38.3916 140.676 38.5627 140.782 38.7337 140.9L39.5889 141.48C40.9177 142.363 42.286 143.193 43.6412 143.983L43.9043 144.128L46.8251 145.695C57.1664 150.952 68.3365 153.626 80.0198 153.626C91.703 153.626 103.452 150.82 114.017 145.287L115.543 144.484H115.517Z" fill="#0F4F87"/>
<path d="M68.8891 68.9352C67.034 68.9352 65.521 67.4203 65.521 65.5629C65.521 61.308 62.0607 57.8434 57.7979 57.8434C53.5351 57.8434 50.088 61.308 50.088 65.5629C50.088 67.4335 48.575 68.9352 46.7199 68.9352C44.8648 68.9352 43.3517 67.4203 43.3517 65.5629C43.3517 57.58 49.8381 51.0856 57.8111 51.0856C65.7841 51.0856 72.2704 57.58 72.2704 65.5629C72.2704 67.4335 70.7574 68.9352 68.9023 68.9352" fill="#0F4F87"/>
<path d="M113.201 68.9352C111.346 68.9352 109.833 67.4203 109.833 65.5629C109.833 61.308 106.373 57.8434 102.11 57.8434C97.8473 57.8434 94.387 61.308 94.387 65.5629C94.387 67.4335 92.874 68.9352 91.0189 68.9352C89.1638 68.9352 87.6508 67.4203 87.6508 65.5629C87.6508 57.58 94.1371 51.0856 102.11 51.0856C110.083 51.0856 116.569 57.58 116.569 65.5629C116.569 67.4335 115.07 68.9352 113.201 68.9352" fill="#0F4F87"/>
<path d="M79.954 112.986C45.1542 112.986 29.7345 86.2844 29.1029 85.1515C28.182 83.5312 28.7609 81.463 30.3791 80.5541C32.0106 79.6451 34.0499 80.2116 34.9709 81.8451C35.5366 82.8331 49.1934 106.242 79.954 106.242C110.715 106.242 124.806 82.0822 124.937 81.8451C125.858 80.2248 127.911 79.6451 129.529 80.5541C131.16 81.463 131.726 83.5312 130.805 85.1515C130.174 86.2844 114.767 112.986 79.954 112.986Z" fill="#0F4F87"/>
<path d="M29.4844 200.733C27.1162 200.733 25.7347 199.798 24.8927 198.362H24.8532C22.8402 199.969 19.2747 201.049 15.9197 201.049C9.9334 201.049 6.32843 198.322 6.32843 193.672C6.32843 188.627 10.2492 185.623 23.5639 183.753V183.213C23.5639 181.25 22.6692 179.774 20.2615 179.774C18.8274 179.774 17.3538 180.354 15.1698 181.434C13.9199 182.053 11.7754 183.041 10.7096 183.041C8.56509 183.041 7.53886 181.303 7.53886 179.419C7.53886 178.707 7.85462 177.812 9.10452 177.008C11.2096 175.625 15.1698 174.466 20.3141 174.466C27.4583 174.466 32.1026 176.521 32.1026 184.701V187.468C32.1026 192.21 32.2342 193.33 32.9052 194.805C33.221 195.516 33.6683 196.597 33.6683 197.084C33.6683 199.587 32.0105 200.746 29.5107 200.746M23.4849 188.495C17.3275 189.259 15.1303 190.959 15.1303 193.145C15.1303 194.66 16.196 195.688 18.3011 195.688C19.9984 195.688 21.7877 195.24 23.7481 194.028C23.5244 192.368 23.4323 189.733 23.4849 188.482" fill="#0F4F87"/>
<path d="M62.0739 200.733C59.3504 200.733 57.6927 199.442 57.6927 197.295V186.796C57.6927 184.688 57.5085 183.134 56.8901 182.146C56.4033 181.434 55.6797 180.986 54.4298 180.986C53.4035 180.986 52.2852 181.25 51.3906 181.698C50.3643 182.238 49.2065 183.041 48.1277 183.977V197.348C48.1277 199.587 46.5225 200.746 43.7991 200.746C41.0756 200.746 39.5099 199.534 39.5099 197.348V178.088C39.5099 175.902 41.1151 174.782 43.8912 174.782C47.0225 174.782 47.904 176.297 47.9961 177.825H48.1277C49.6012 176.837 51.1143 176.033 52.6799 175.414C54.0614 174.835 55.8112 174.479 57.5874 174.479C60.5345 174.479 62.8107 175.243 64.1921 176.85C65.5736 178.457 66.2841 180.921 66.2841 184.306V197.308C66.2841 199.455 64.7184 200.746 62.0476 200.746" fill="#0F4F87"/>
<path d="M93.9923 200.733C92.5187 200.733 91.7162 200.417 91.1767 199.969C90.6373 199.521 90.4136 199.073 90.1505 198.454C88.4927 199.745 86.1771 201.049 83.059 201.049C75.5596 201.049 71.5468 195.2 71.5468 187.639C71.5468 177.851 77.9278 174.453 82.7958 174.453C85.7824 174.453 87.927 175.348 89.8084 176.639V169.223C89.8084 166.983 91.4135 165.877 94.137 165.877C96.8605 165.877 98.4261 167.089 98.4261 169.276V196.807C98.4261 199.627 97.1367 200.746 94.0054 200.746M89.8479 184.385C89.8479 181.922 87.2165 180.407 85.2035 180.407C83.0195 180.407 80.3355 182.014 80.3355 187.823C80.3355 193.093 83.0195 195.016 85.4667 195.016C87.9138 195.016 89.7953 192.869 89.7953 190.498L89.8347 184.372L89.8479 184.385Z" fill="#0F4F87"/>
<path d="M125.99 189.562H112.78C113.135 192.381 114.925 194.752 118.096 194.752C120.28 194.752 122.161 194.12 123.411 193.461C125.016 192.566 126.042 191.986 127.384 191.986C129.213 191.986 130.463 192.974 130.463 195.029C130.463 196.465 129.476 197.624 128.411 198.336C125.858 200.127 122.293 201.062 118.004 201.062C114.03 201.062 110.188 200.074 107.649 197.664C105.373 195.477 103.899 192.487 103.899 187.652C103.899 183.542 105.018 180.459 107.741 177.733C109.886 175.625 113.412 174.466 117.78 174.466C121.437 174.466 124.963 175.493 127.424 177.904C130.055 180.539 131.042 183.898 131.042 185.373C131.042 188.416 129.16 189.575 126.003 189.575M122.477 184.793C122.477 184.477 121.806 181.843 120.648 180.683C119.714 179.748 118.819 179.34 117.701 179.34C115.385 179.34 113.333 180.855 112.793 185.334H121.727C122.214 185.334 122.437 185.149 122.437 184.793H122.477V184.793Z" fill="#0F4F87"/>
<path d="M155.014 198.638C153.053 200.114 150.33 201.049 146.751 201.049C143.172 201.049 139.212 199.89 137.068 198.454C136.041 197.743 135.555 196.886 135.555 196.043C135.555 194.252 136.765 193.185 138.226 193.185C139.883 193.185 142.107 194.305 143.317 194.845C144.528 195.385 146.133 195.648 146.804 195.648C148.462 195.648 149.343 194.792 149.343 193.685C149.343 191.947 147.12 191.051 143.146 189.839C139.212 188.627 135.607 186.625 135.607 182.198C135.607 179.735 136.897 177.733 138.91 176.428C140.831 175.177 143.199 174.466 146.672 174.466C149.396 174.466 152.435 175.138 154.487 176.165C155.869 176.876 156.487 177.996 156.487 178.668C156.487 180.46 155.461 181.658 153.724 181.658C152.474 181.658 150.909 180.947 149.211 180.315C148.146 179.919 147.198 179.603 146.08 179.603C144.475 179.603 143.936 180.315 143.936 181.118C143.936 182.106 144.475 182.501 145.317 182.989C146.435 183.568 147.856 184.016 149.83 184.596C153.895 185.755 158 187.771 158 192.645C158 195.016 156.974 197.11 155.014 198.638" fill="#0F4F87"/>
<path d="M56.3901 235.207C58.7978 235.207 61.4292 234.456 61.4292 231.124C61.4292 230.294 61.1003 229.372 60.3898 228.713C59.5214 227.804 58.061 227.382 55.2323 226.5C52.3641 225.63 50.8643 224.88 49.7854 223.668C48.7855 222.587 48.325 221.244 48.325 219.795C48.325 217.713 49.246 216.133 50.7853 215.131C52.2852 214.17 54.1535 213.63 56.9032 213.63C60.5214 213.63 62.8896 214.96 63.8895 216.212C64.8105 217.371 64.179 219.044 62.6396 219.044C62.0212 219.044 61.4292 218.754 60.8503 218.003C60.1793 217.134 58.811 216.422 56.8506 216.422C55.6007 216.422 54.3508 216.633 53.5219 217.173C52.8509 217.674 52.4431 218.464 52.4431 219.465C52.4431 220.216 52.8641 221.007 53.5614 221.586C54.4298 222.337 55.3507 222.706 58.4294 223.628C61.4687 224.55 63.0869 225.341 64.2184 226.539C65.0868 227.501 65.7183 228.871 65.7183 230.663C65.7183 232.915 64.9684 234.575 63.429 235.905C61.6792 237.407 59.2188 237.987 56.5217 237.987C51.7326 237.987 49.7459 236.485 48.6539 235.194C47.4961 233.864 48.4039 232.322 49.7722 232.322C50.4432 232.322 50.8116 232.454 51.43 233.113C52.4299 234.233 54.6271 235.194 56.377 235.194" fill="#0F4F87"/>
<path d="M85.9403 235.379C84.572 236.959 81.6117 238 79.033 238C73.415 238 71.0468 235.537 71.0468 231.545C71.0468 226.46 74.7044 223.549 85.6114 222.179V221.507C85.6114 218.293 84.572 216.462 81.1644 216.462C79.0067 216.462 77.6252 217.503 76.9674 218.754C76.3885 219.874 75.7175 220.467 74.6386 220.467C73.0598 220.467 72.2178 218.886 72.9677 217.424C73.7571 215.882 76.0069 213.63 81.2433 213.63C86.9008 213.63 89.8084 215.632 89.8084 222.416V231.585C89.8084 234.298 90.6373 234.878 90.6373 235.998C90.6373 237.328 89.8479 237.789 88.677 237.789C87.3086 237.789 86.3877 236.92 86.0193 235.379H85.9403ZM85.6114 224.919C78.2831 225.96 75.3754 227.962 75.3754 231.163C75.3754 233.455 76.5332 235.036 79.8224 235.036C81.1907 235.036 85.6114 234.167 85.6114 231.374V224.919Z" fill="#0F4F87"/>
<path d="M98.2946 208.584C98.2946 207.004 98.9656 206.042 100.373 206.042C101.781 206.042 102.492 207.043 102.492 208.545V235.207C102.492 236.709 101.821 237.71 100.373 237.71C98.9261 237.71 98.2946 236.749 98.2946 235.168V208.584Z" fill="#0F4F87"/>
<path d="M122.385 236.749C120.845 237.539 119.096 238 117.306 238C115.056 238 113.149 237.368 112.017 236.077C110.938 234.825 110.399 232.994 110.399 230.201V216.449C110.399 214.868 111.07 213.906 112.478 213.906C113.885 213.906 114.596 214.907 114.596 216.409V228.568C114.596 230.399 114.727 232.072 115.517 233.113C116.096 233.824 117.096 234.404 118.674 234.404C119.832 234.404 121.174 234.074 122.424 233.442C123.543 232.902 126.003 231.15 126.003 230.188V216.436C126.003 214.855 126.674 213.893 128.082 213.893C129.489 213.893 130.2 214.894 130.2 216.396V235.181C130.2 236.683 129.529 237.684 128.082 237.684C126.634 237.684 126.003 236.722 126.003 235.141V234.022C125.082 235.062 123.424 236.143 122.385 236.722" fill="#0F4F87"/>
<path d="M145.554 238C139.107 238 136.068 233.126 136.068 225.788C136.068 217.674 140.186 213.63 145.435 213.63C148.185 213.63 150.672 214.842 152.211 216.501V208.584C152.211 207.004 152.882 206.042 154.29 206.042C155.698 206.042 156.408 207.043 156.408 208.545V235.207C156.408 236.709 155.737 237.71 154.29 237.71C152.843 237.71 152.08 236.59 152.29 234.957H152.211C151.001 236.248 149.014 238 145.554 238M146.343 234.667C150.211 234.667 152.211 231.334 152.211 230.584V220.704C152.211 219.834 149.461 216.949 146.304 216.949C142.554 216.949 140.396 220.243 140.396 225.868C140.396 231.492 142.594 234.654 146.304 234.654H146.343V234.667Z" fill="#0F4F87"/>
</svg>
