<svg width="221" height="73" viewBox="0 0 221 73" fill="none" xmlns="http://www.w3.org/2000/svg">
<g clip-path="url(#clip0_1_884)" filter="url(#filter0_d_1_884)">
<path d="M68.6653 32.5C68.6653 32.776 68.6653 33.0337 68.6653 33.2913V61.6138C68.6653 63.4725 67.164 64.9816 65.3149 64.9816H65.2782C60.2434 64.816 55.5016 63.5093 51.3089 61.301C46.8417 63.6566 41.7519 64.9816 36.3326 64.9816C31.0781 64.9816 26.0982 63.7118 21.7225 61.485C21.6127 61.4298 21.5028 61.3746 21.4113 61.3194H21.393C21.3014 61.2458 21.1916 61.2089 21.1001 61.1537H21.0634C20.9719 61.0801 20.862 61.0249 20.7705 60.9697H20.7522C20.6423 60.8961 20.5508 60.8409 20.441 60.7857C19.8002 60.4176 19.1777 60.0311 18.5552 59.6263H18.5186C18.5186 59.6263 18.3538 59.479 18.2622 59.4238L18.2073 59.387C18.2073 59.387 18.0425 59.2766 17.9693 59.2214C17.951 59.203 17.9327 59.1846 17.8961 59.1662C17.8228 59.111 17.7496 59.0558 17.6764 59.0006C17.6581 59.0006 17.6215 58.9638 17.6031 58.9454C17.5299 58.8901 17.4567 58.8349 17.3834 58.7797C17.3651 58.7797 17.3285 58.7429 17.3102 58.7245C17.237 58.6693 17.1637 58.6141 17.0905 58.5589C17.0722 58.5589 17.0539 58.5221 17.0173 58.5037C16.944 58.4485 16.8525 58.3749 16.7793 58.3196C16.761 58.3196 16.7427 58.3012 16.7243 58.2828C16.6328 58.2092 16.5413 58.154 16.4497 58.0804C16.2666 57.9148 16.0652 57.7676 15.8822 57.6019L15.8455 57.5651C15.8455 57.5651 15.6808 57.4363 15.6075 57.3627C15.5892 57.3443 15.5526 57.3259 15.5343 57.2891C15.4611 57.2339 15.4061 57.1786 15.3512 57.1234L15.2597 57.0498C15.2597 57.0498 15.1498 56.9578 15.0949 56.9026C15.0583 56.8658 15.0217 56.8474 14.985 56.8106C14.9301 56.7554 14.8752 56.7186 14.8203 56.6634C14.7837 56.6266 14.747 56.5897 14.7104 56.5713C14.6555 56.5345 14.6006 56.4793 14.564 56.4241C14.5273 56.3873 14.4907 56.3505 14.4541 56.3137C14.3992 56.2585 14.3626 56.2217 14.3076 56.1665L14.1978 56.0561C14.1978 56.0561 14.1062 55.964 14.0513 55.9272C14.0147 55.8904 13.9781 55.8536 13.9415 55.8168C13.8865 55.7616 13.8499 55.7248 13.795 55.688C13.7584 55.6512 13.7218 55.6144 13.6851 55.5776L13.5387 55.4304L13.4288 55.3199C13.4288 55.3199 13.319 55.2095 13.2824 55.1727C13.2091 55.0991 13.1359 55.0255 13.0627 54.9519C13.026 54.9151 12.9894 54.8599 12.9345 54.823C12.8979 54.7678 12.843 54.731 12.8063 54.6758C12.7697 54.639 12.7331 54.6022 12.6965 54.5654C12.6599 54.5102 12.605 54.4734 12.5683 54.4182C12.5317 54.3814 12.4951 54.3446 12.4585 54.3078C12.4036 54.2525 12.3669 54.2157 12.3303 54.1605C12.2937 54.1237 12.2571 54.0869 12.2388 54.0501C12.2022 53.9949 12.1472 53.9397 12.1106 53.9029C12.074 53.8661 12.0557 53.8293 12.0191 53.7925C11.9825 53.7373 11.9275 53.682 11.8909 53.6268C11.8543 53.59 11.836 53.5532 11.7994 53.5164C11.7628 53.4612 11.7078 53.406 11.6712 53.3508C11.6346 53.314 11.6163 53.2772 11.5797 53.2404C11.5248 53.1852 11.4881 53.13 11.4332 53.0747C11.4149 53.0379 11.3783 53.0195 11.36 52.9827C11.3051 52.9275 11.2684 52.8539 11.2135 52.7987C11.1952 52.7803 11.1769 52.7435 11.1586 52.7251C11.1037 52.6515 11.0487 52.5963 10.9938 52.5226C10.9938 52.5226 10.9755 52.5042 10.9572 52.4858C10.7009 52.1546 10.4446 51.8049 10.1882 51.4553V51.4185C10.1882 51.4185 10.0601 51.2712 10.0052 51.1792C10.0052 51.1608 9.98685 51.1424 9.96854 51.124C9.91362 51.0504 9.85869 50.9768 9.82207 50.9032C9.82207 50.8848 9.78546 50.8664 9.76715 50.8296C9.71222 50.7559 9.67561 50.6823 9.62068 50.6087C9.62068 50.5903 9.58406 50.5535 9.56576 50.5351C9.51083 50.4615 9.47421 50.3879 9.41929 50.3143C9.41929 50.2959 9.38267 50.2775 9.38267 50.2407C9.32775 50.167 9.29113 50.0934 9.2362 50.0198C9.2362 50.0014 9.2179 49.983 9.19959 49.9646C9.14466 49.891 9.08974 49.8174 9.05312 49.7254C9.05312 49.7254 9.05312 49.6886 9.0165 49.6702C8.96158 49.5781 8.90665 49.5045 8.85173 49.4125C8.50387 48.8236 8.15601 48.2347 7.84477 47.6458C7.78984 47.5354 7.75322 47.4434 7.6983 47.3514V47.3145C7.6983 47.3145 7.58845 47.1305 7.55183 47.0385C7.55183 47.0385 7.55183 47.0201 7.55183 47.0017C7.49691 46.9097 7.46029 46.8177 7.42367 46.7256V46.6888C7.36875 46.5968 7.31382 46.5048 7.2772 46.4128C6.8378 45.4742 6.43502 44.5173 6.08716 43.5419C6.05054 43.4315 6.01393 43.3211 5.97731 43.229C5.94069 43.1186 5.90407 43.0082 5.86746 42.8978C5.46467 41.6832 5.11681 40.4502 4.8605 39.1987C4.23801 37.1008 4 34.8188 4 32.5C4 14.5569 18.482 0 36.3326 0C45.4685 0 53.7256 3.80946 59.6026 9.93771C59.6026 9.93771 59.7491 10.1033 59.8223 10.177C60.1885 10.5818 60.5547 10.9867 60.9208 11.41C60.9208 11.41 60.9208 11.41 60.9392 11.4284C61.0124 11.502 61.0673 11.5756 61.1222 11.6492L61.1588 11.686C61.1588 11.686 61.287 11.8332 61.3419 11.9069L61.3786 11.9437C61.7081 12.3485 62.0377 12.7718 62.3489 13.1951L62.3855 13.2503C62.3855 13.2503 62.4954 13.3975 62.5503 13.4711L62.6052 13.5447C62.6052 13.5447 62.7151 13.692 62.7517 13.7656C62.7517 13.784 62.7883 13.8208 62.8066 13.8392C62.8615 13.9128 62.9165 13.9864 62.9531 14.06V14.0968C63.1545 14.3545 63.3192 14.5937 63.484 14.8514L63.5206 14.9066C63.5206 14.9066 63.6122 15.0538 63.6488 15.1274C63.6671 15.1642 63.6854 15.1826 63.7037 15.2194L63.8319 15.4219C63.8319 15.4219 63.8685 15.4955 63.8868 15.5139C63.9234 15.5875 63.9783 15.6427 64.015 15.7163C64.0333 15.7531 64.0516 15.7899 64.0699 15.8267C64.1065 15.9003 64.1431 15.974 64.198 16.0292L64.2347 16.1028C64.3811 16.342 64.5093 16.5813 64.6374 16.8205L64.6924 16.9125C64.6924 16.9125 64.7656 17.0413 64.8022 17.1149C64.8205 17.1518 64.8388 17.1886 64.8572 17.2438C64.8938 17.299 64.9304 17.3726 64.967 17.4278C64.9853 17.4646 65.0036 17.5198 65.0402 17.5566L65.1318 17.7407L65.205 17.8695C65.205 17.8695 65.2782 17.9983 65.2966 18.0535C65.3149 18.0903 65.3332 18.1455 65.3515 18.1823C65.4247 18.3296 65.4979 18.4768 65.5712 18.6424C65.5712 18.6424 65.5712 18.6792 65.5895 18.6792C65.6261 18.7344 65.6444 18.808 65.681 18.8632C65.6993 18.9185 65.7176 18.9553 65.7543 19.0105C65.7909 19.0657 65.8092 19.1393 65.8458 19.1945C65.8641 19.2497 65.8824 19.2865 65.919 19.3417C65.9373 19.3969 65.974 19.4706 65.9923 19.5258C66.0106 19.581 66.0289 19.6362 66.0655 19.6914L66.1387 19.8754C66.1387 19.8754 66.1754 19.9858 66.212 20.0411C66.2303 20.0963 66.2669 20.1515 66.2852 20.2251L66.3584 20.3907C66.3584 20.3907 66.4317 20.5563 66.45 20.6484C66.4866 20.722 66.5049 20.814 66.5415 20.8876C66.5598 20.9428 66.5781 20.998 66.5964 21.0532C66.6148 21.1084 66.6331 21.1636 66.6697 21.2373C66.688 21.2925 66.7063 21.3477 66.7246 21.4029C66.7429 21.4581 66.7612 21.5133 66.7978 21.5685C66.8161 21.6237 66.8345 21.6789 66.8528 21.7525C66.8711 21.8078 66.8894 21.863 66.9077 21.9366C66.926 21.9918 66.9443 22.047 66.9626 22.1022C66.9809 22.1574 66.9992 22.231 67.0175 22.2862C67.0175 22.3414 67.0542 22.3967 67.0725 22.4519C67.0908 22.5255 67.1274 22.5991 67.1457 22.6727C67.1457 22.7279 67.1823 22.7831 67.2006 22.8199C67.2372 22.9303 67.2739 23.0408 67.2922 23.1512C67.2922 23.2064 67.3288 23.2432 67.3288 23.2984C67.3471 23.372 67.3654 23.4272 67.3837 23.5008C67.3837 23.5561 67.4203 23.6113 67.4386 23.6665C67.4569 23.7401 67.4753 23.7953 67.4936 23.8689C67.4936 23.9241 67.5302 23.9793 67.5302 24.0345C67.5302 24.1082 67.5668 24.1634 67.5851 24.237C67.5851 24.2922 67.6034 24.3474 67.6217 24.4026C67.6217 24.4762 67.6583 24.5314 67.6766 24.605C67.6766 24.6602 67.695 24.6971 67.7133 24.7523C67.7316 24.8443 67.7499 24.9179 67.7682 25.0099V25.1203C67.8231 25.2307 67.8414 25.3596 67.878 25.47C67.878 25.5252 67.8963 25.562 67.9147 25.6172C67.9147 25.6908 67.9513 25.7644 67.9696 25.8565C67.9696 25.9117 67.9879 25.9669 68.0062 26.0221C68.0062 26.0957 68.0428 26.1693 68.0428 26.2429C68.0428 26.2981 68.0611 26.3533 68.0794 26.4086C68.0794 26.4822 68.0977 26.5558 68.116 26.6294C68.116 26.6846 68.1344 26.7398 68.1344 26.795C68.1344 26.8686 68.171 26.9422 68.171 27.0159C68.171 27.0711 68.171 27.1079 68.1893 27.1631C68.1893 27.2735 68.2259 27.3655 68.2442 27.4759V27.5495C68.2808 27.6784 68.2991 27.8072 68.3174 27.9176C68.3174 27.9544 68.3174 28.0096 68.3357 28.0464C68.3357 28.1384 68.3541 28.2121 68.3724 28.2857V28.4329C68.3724 28.4329 68.409 28.5801 68.4273 28.6721C68.4273 28.7273 68.4273 28.7826 68.4456 28.8378C68.4456 28.9114 68.4456 28.985 68.4639 29.077C68.4639 29.1322 68.4639 29.1874 68.4639 29.2242C68.4639 29.2978 68.4639 29.3899 68.4822 29.4635C68.4822 29.5187 68.4822 29.5555 68.4822 29.5923C68.4822 29.7027 68.5005 29.8131 68.5188 29.942V29.9788C68.5188 30.1076 68.5371 30.2364 68.5554 30.3652V30.4941C68.5554 30.4941 68.5555 30.6597 68.5738 30.7517V30.8989C68.5738 30.8989 68.5738 31.0646 68.5921 31.1382C68.5921 31.1934 68.5921 31.2486 68.5921 31.3038C68.5921 31.3774 68.5921 31.4694 68.5921 31.543C68.5921 31.5982 68.5921 31.635 68.5921 31.6903C68.5921 31.7823 68.5921 31.8743 68.5921 31.9479C68.5921 31.9847 68.5921 32.0399 68.5921 32.0767C68.5921 32.2055 68.5921 32.3344 68.5921 32.4632L68.6653 32.5Z" fill="#FFB71B"/>
<path d="M31.6457 27.7704C30.8585 27.7704 30.2177 27.1263 30.2177 26.3534C30.2177 24.5498 28.753 23.0776 26.9588 23.0776C25.1645 23.0776 23.7182 24.5498 23.7182 26.3534C23.7182 27.1447 23.0774 27.7704 22.2901 27.7704C21.5029 27.7704 20.8621 27.1263 20.8621 26.3534C20.8621 22.9672 23.59 20.2251 26.9588 20.2251C30.3275 20.2251 33.0555 22.9672 33.0555 26.3534C33.0555 27.1447 32.4147 27.7704 31.6274 27.7704H31.6457Z" fill="#00205C"/>
<path d="M50.3203 27.7704C49.533 27.7704 48.8922 27.1263 48.8922 26.3534C48.8922 24.5498 47.4275 23.0776 45.6333 23.0776C43.8391 23.0776 42.3744 24.5498 42.3744 26.3534C42.3744 27.1447 41.7336 27.7704 40.9464 27.7704C40.1591 27.7704 39.5366 27.1263 39.5366 26.3534C39.5366 22.9672 42.2646 20.2251 45.6333 20.2251C49.0021 20.2251 51.73 22.9672 51.73 26.3534C51.73 27.1447 51.0892 27.7704 50.302 27.7704H50.3203Z" fill="#00205C"/>
<path d="M36.3143 46.4128C21.6493 46.4128 15.1498 35.1133 14.8752 34.6348C14.4907 33.9539 14.7287 33.0705 15.4244 32.684C16.1018 32.2976 16.9623 32.5368 17.3651 33.2361C17.6031 33.6594 23.352 43.5603 36.3143 43.5603C49.3499 43.5603 55.2086 33.3466 55.2635 33.2361C55.648 32.5552 56.5085 32.2976 57.2042 32.684C57.8816 33.0705 58.1379 33.9355 57.7535 34.6348C57.4788 35.1133 50.9977 46.4128 36.3143 46.4128Z" fill="#00205C"/>
<path d="M100.76 35.4813C98.6178 35.4813 97.3728 34.6348 96.6039 33.3281H96.5673C94.7547 34.8004 91.5141 35.7758 88.4933 35.7758C83.074 35.7758 79.8151 33.2913 79.8151 29.077C79.8151 24.4946 83.3669 21.7709 95.3955 20.0595V19.5626C95.3955 17.7775 94.59 16.434 92.4113 16.434C91.1114 16.434 89.7931 16.9677 87.8158 17.9431C86.6807 18.5136 84.74 19.3969 83.7697 19.3969C81.829 19.3969 80.8953 17.8143 80.8953 16.1028C80.8953 15.4587 81.1699 14.6489 82.305 13.9128C84.2091 12.6614 87.7975 11.594 92.4479 11.594C98.9107 11.594 103.103 13.4711 103.103 20.8876V23.3904C103.103 27.6968 103.232 28.7089 103.836 30.0524C104.129 30.6965 104.531 31.6719 104.531 32.1319C104.531 34.3955 103.03 35.4629 100.778 35.4629L100.76 35.4813ZM95.304 24.3658C89.7382 25.0467 87.7609 26.5926 87.7609 28.5801C87.7609 29.9604 88.7313 30.8989 90.6353 30.8989C92.1732 30.8989 93.7844 30.4941 95.5603 29.3899C95.3589 27.8992 95.2857 25.5068 95.3223 24.3658H95.304Z" fill="#00205C"/>
<path d="M130.236 35.4813C127.783 35.4813 126.282 34.3035 126.282 32.3528V22.8199C126.282 20.9244 126.117 19.489 125.549 18.6056C125.11 17.9615 124.469 17.5566 123.334 17.5566C122.4 17.5566 121.393 17.7959 120.588 18.2007C119.654 18.6976 118.611 19.4153 117.64 20.2803V32.408C117.64 34.4323 116.176 35.4997 113.722 35.4997C111.251 35.4997 109.841 34.3955 109.841 32.408V14.8882C109.841 12.9006 111.287 11.8884 113.795 11.8884C116.615 11.8884 117.42 13.2687 117.512 14.6489H117.64C118.977 13.7656 120.35 13.0294 121.76 12.4589C123.005 11.9253 124.579 11.594 126.209 11.594C128.882 11.594 130.932 12.2933 132.177 13.7472C133.422 15.201 134.081 17.4278 134.081 20.5195V32.3344C134.081 34.2851 132.671 35.4629 130.236 35.4629V35.4813Z" fill="#00205C"/>
<path d="M159.109 35.4813C157.772 35.4813 157.04 35.1869 156.564 34.8004C156.088 34.3955 155.887 33.9907 155.63 33.4202C154.129 34.598 152.042 35.7758 149.204 35.7758C142.43 35.7758 138.786 30.4573 138.786 23.5929C138.786 14.7042 144.554 11.6124 148.966 11.6124C151.676 11.6124 153.598 12.4222 155.301 13.6V6.8644C155.301 4.84006 156.747 3.82788 159.219 3.82788C161.69 3.82788 163.1 4.93207 163.1 6.91961V31.9111C163.1 34.4692 161.928 35.4813 159.109 35.4813ZM155.356 20.63C155.356 18.3848 152.976 17.023 151.163 17.023C149.186 17.023 146.769 18.4768 146.769 23.7585C146.769 28.5433 149.186 30.2916 151.419 30.2916C153.653 30.2916 155.337 28.3409 155.337 26.1877L155.374 20.63H155.356Z" fill="#00205C"/>
<path d="M188.054 25.3228H176.099C176.429 27.8808 178.04 30.034 180.914 30.034C182.891 30.034 184.594 29.4635 185.711 28.8562C187.157 28.0465 188.091 27.5128 189.299 27.5128C190.965 27.5128 192.082 28.3961 192.082 30.2732C192.082 31.5799 191.203 32.6288 190.233 33.2914C187.926 34.9108 184.704 35.7758 180.823 35.7758C177.234 35.7758 173.756 34.874 171.467 32.6841C169.398 30.6965 168.08 27.9728 168.08 23.5929C168.08 19.857 169.087 17.0598 171.559 14.5753C173.499 12.6614 176.685 11.6124 180.64 11.6124C183.953 11.6124 187.139 12.551 189.354 14.741C191.734 17.1334 192.632 20.1883 192.632 21.5133C192.632 24.2738 190.929 25.3228 188.073 25.3228H188.054ZM184.869 20.9796C184.869 20.7036 184.265 18.3112 183.203 17.2622C182.36 16.3973 181.555 16.0292 180.548 16.0292C178.443 16.0292 176.593 17.4094 176.099 21.4765H184.173C184.612 21.4765 184.814 21.3109 184.814 20.9796H184.85H184.869Z" fill="#00205C"/>
<path d="M214.309 33.5674C212.533 34.9108 210.079 35.7758 206.839 35.7758C203.598 35.7758 200.01 34.7084 198.069 33.4202C197.135 32.7761 196.696 32.0031 196.696 31.2302C196.696 29.6107 197.794 28.6354 199.113 28.6354C200.614 28.6354 202.628 29.6475 203.708 30.1444C204.807 30.6229 206.253 30.8805 206.857 30.8805C208.358 30.8805 209.164 30.1076 209.164 29.0954C209.164 27.5128 207.15 26.703 203.562 25.5988C200.01 24.4946 196.733 22.6727 196.733 18.6608C196.733 16.4341 197.904 14.5937 199.717 13.4343C201.456 12.2933 203.598 11.6492 206.729 11.6492C209.201 11.6492 211.947 12.2565 213.796 13.1951C215.041 13.8392 215.609 14.8698 215.609 15.4771C215.609 17.0966 214.675 18.2008 213.1 18.2008C211.965 18.2008 210.555 17.5382 209.017 16.9862C208.047 16.6181 207.205 16.342 206.198 16.342C204.752 16.342 204.257 16.9862 204.257 17.7223C204.257 18.4584 204.733 18.9921 205.502 19.4154C206.509 19.9491 207.809 20.3539 209.585 20.8876C213.265 21.955 216.982 23.7769 216.982 28.1937C216.982 30.3469 216.048 32.2608 214.272 33.6226L214.309 33.5674Z" fill="#00205C"/>
<path d="M87.3032 61.9082C88.9693 61.9082 90.7635 61.393 90.7635 59.0926C90.7635 58.5221 90.5255 57.8779 90.0495 57.4363C89.4453 56.7922 88.4383 56.5161 86.4976 55.9088C84.5203 55.3015 83.4951 54.7862 82.7444 53.9581C82.067 53.2035 81.7558 52.2834 81.7558 51.2712C81.7558 49.8358 82.3782 48.75 83.4401 48.0507C84.4654 47.3881 85.7653 47.0201 87.6511 47.0201C90.141 47.0201 91.7705 47.9402 92.4662 48.8052C93.0887 49.6149 92.6676 50.7559 91.6057 50.7559C91.1846 50.7559 90.7818 50.5535 90.379 50.0382C89.9213 49.4309 88.9693 48.9524 87.6328 48.9524C86.7723 48.9524 85.9118 49.0812 85.3442 49.4677C84.8865 49.799 84.5936 50.3511 84.5936 51.032C84.5936 51.5473 84.8865 52.0994 85.3625 52.5042C85.9667 53.0195 86.5892 53.2772 88.713 53.9213C90.8001 54.5654 91.9169 55.0991 92.6859 55.9272C93.2901 56.5897 93.7112 57.5283 93.7112 58.7797C93.7112 60.3256 93.1985 61.485 92.1366 62.4051C90.9283 63.4357 89.2439 63.8406 87.3764 63.8406C84.0809 63.8406 82.7078 62.81 81.9572 61.9082C81.1516 60.9881 81.7924 59.9207 82.7261 59.9207C83.1838 59.9207 83.4401 60.0127 83.8795 60.4728C84.5753 61.2457 86.0949 61.9267 87.2849 61.9267L87.3032 61.9082Z" fill="#00205C"/>
<path d="M107.626 62.0187C106.692 63.1045 104.641 63.8222 102.865 63.8222C99.0023 63.8222 97.3728 62.1291 97.3728 59.3502C97.3728 55.8536 99.8994 53.8293 107.388 52.8723V52.4122C107.388 50.1854 106.673 48.934 104.312 48.934C102.829 48.934 101.877 49.6517 101.419 50.5167C101.016 51.2896 100.558 51.6945 99.8078 51.6945C98.7276 51.6945 98.1418 50.6087 98.6544 49.5965C99.2036 48.5291 100.742 46.9833 104.348 46.9833C108.248 46.9833 110.244 48.3635 110.244 53.0563V59.387C110.244 61.2641 110.811 61.669 110.811 62.4419C110.811 63.2149 110.262 63.6749 109.456 63.6749C108.504 63.6749 107.882 63.0676 107.626 62.0187H107.571H107.626ZM107.406 54.7862C102.371 55.5039 100.357 56.8842 100.357 59.111C100.357 60.6936 101.163 61.7794 103.433 61.7794C104.385 61.7794 107.406 61.1721 107.406 59.2582V54.7862Z" fill="#00205C"/>
<path d="M116.121 43.5235C116.121 42.4193 116.578 41.7568 117.549 41.7568C118.519 41.7568 119.013 42.4561 119.013 43.4867V61.9082C119.013 62.9388 118.556 63.6381 117.549 63.6381C116.542 63.6381 116.121 62.9756 116.121 61.8898V43.5235Z" fill="#00205C"/>
<path d="M125.897 47.2041C126.904 47.2041 127.344 47.9035 127.344 48.934V57.3259C127.344 58.5957 127.435 59.7551 127.966 60.4544C128.369 60.9513 129.046 61.3562 130.145 61.3562C130.95 61.3562 131.866 61.1169 132.726 60.6937C133.495 60.3256 135.198 59.111 135.198 58.4485V48.9524C135.198 47.8666 135.656 47.1857 136.626 47.1857C137.596 47.1857 138.091 47.8851 138.091 48.9156V61.8899C138.091 62.9204 137.633 63.6198 136.626 63.6198C135.619 63.6198 135.198 62.9572 135.198 61.8715V61.0985C134.575 61.8163 133.422 62.5708 132.708 62.9757C131.646 63.5278 130.456 63.8406 129.211 63.8406C127.655 63.8406 126.355 63.3989 125.568 62.5156C124.817 61.6506 124.451 60.3808 124.451 58.4669V48.9708C124.451 47.8851 124.909 47.2041 125.879 47.2041" fill="#00205C"/>
<path d="M148.655 63.8406C144.224 63.8406 142.137 60.4728 142.137 55.3935C142.137 49.7806 144.975 47.0017 148.581 47.0017C150.467 47.0017 152.188 47.8298 153.25 48.9892V43.5235C153.25 42.4193 153.708 41.7568 154.678 41.7568C155.648 41.7568 156.143 42.4561 156.143 43.4867V61.9082C156.143 62.9388 155.685 63.6381 154.678 63.6381C153.671 63.6381 153.159 62.8468 153.305 61.7242H153.25C152.426 62.626 151.053 63.8222 148.673 63.8222L148.655 63.8406ZM149.204 61.5402C151.859 61.5402 153.232 59.2398 153.232 58.7245V51.8969C153.232 51.2896 151.346 49.3021 149.167 49.3021C146.586 49.3021 145.103 51.5841 145.103 55.4671C145.103 59.2582 146.622 61.5402 149.167 61.5402H149.204Z" fill="#00205C"/>
</g>
<defs>
<filter id="filter0_d_1_884" x="0" y="0" width="221" height="73" filterUnits="userSpaceOnUse" color-interpolation-filters="sRGB">
<feFlood flood-opacity="0" result="BackgroundImageFix"/>
<feColorMatrix in="SourceAlpha" type="matrix" values="0 0 0 0 0 0 0 0 0 0 0 0 0 0 0 0 0 0 127 0" result="hardAlpha"/>
<feOffset dy="4"/>
<feGaussianBlur stdDeviation="2"/>
<feComposite in2="hardAlpha" operator="out"/>
<feColorMatrix type="matrix" values="0 0 0 0 0 0 0 0 0 0 0 0 0 0 0 0 0 0 0.25 0"/>
<feBlend mode="normal" in2="BackgroundImageFix" result="effect1_dropShadow_1_884"/>
<feBlend mode="normal" in="SourceGraphic" in2="effect1_dropShadow_1_884" result="shape"/>
</filter>
<clipPath id="clip0_1_884">
<rect width="213" height="65" fill="white" transform="translate(4)"/>
</clipPath>
</defs>
</svg>
