<svg width="59" height="62" viewBox="0 0 59 62" fill="none" xmlns="http://www.w3.org/2000/svg">
<path fill-rule="evenodd" clip-rule="evenodd" d="M55.2263 2.51184H10.3169C9.3504 2.51184 8.56689 3.29534 8.56689 4.26185V57.7382C8.56689 58.7047 9.3504 59.4882 10.3169 59.4882H55.2264C56.1928 59.4882 56.9764 58.7047 56.9764 57.7382V4.26184C56.9764 3.29534 56.1928 2.51184 55.2263 2.51184ZM10.3169 0.511841C8.24583 0.511841 6.56689 2.19078 6.56689 4.26185V57.7382C6.56689 59.8093 8.24583 61.4882 10.3169 61.4882H55.2264C57.2974 61.4882 58.9764 59.8093 58.9764 57.7382V4.26184C58.9764 2.19077 57.2974 0.511841 55.2263 0.511841H10.3169Z" fill="#724100"/>
<path fill-rule="evenodd" clip-rule="evenodd" d="M0.275543 9.33069C0.275543 8.7784 0.723258 8.33069 1.27554 8.33069L11.3543 8.33069C11.9066 8.33069 12.3543 8.7784 12.3543 9.33069C12.3543 9.88297 11.9066 10.3307 11.3543 10.3307L1.27554 10.3307C0.723258 10.3307 0.275543 9.88297 0.275543 9.33069Z" fill="#724100"/>
<path fill-rule="evenodd" clip-rule="evenodd" d="M37.315 12.3701C37.315 11.8178 37.7627 11.3701 38.315 11.3701L48.3937 11.3701C48.946 11.3701 49.3937 11.8178 49.3937 12.3701C49.3937 12.9224 48.946 13.3701 48.3937 13.3701L38.315 13.3701C37.7627 13.3701 37.315 12.9224 37.315 12.3701Z" fill="#724100"/>
<path fill-rule="evenodd" clip-rule="evenodd" d="M37.315 30.5118C37.315 29.9596 37.7627 29.5118 38.315 29.5118L48.3937 29.5118C48.946 29.5118 49.3937 29.9596 49.3937 30.5118C49.3937 31.0641 48.946 31.5118 48.3937 31.5118L38.315 31.5118C37.7627 31.5118 37.315 31.0641 37.315 30.5118Z" fill="#724100"/>
<path fill-rule="evenodd" clip-rule="evenodd" d="M37.315 48.6536C37.315 48.1013 37.7627 47.6536 38.315 47.6536L48.3937 47.6536C48.946 47.6536 49.3937 48.1013 49.3937 48.6536C49.3937 49.2058 48.946 49.6536 48.3937 49.6536L38.315 49.6536C37.7627 49.6536 37.315 49.2058 37.315 48.6536Z" fill="#724100"/>
<path fill-rule="evenodd" clip-rule="evenodd" d="M0.275543 19.9135C0.275543 19.3612 0.723258 18.9135 1.27554 18.9135L11.3543 18.9135C11.9066 18.9135 12.3543 19.3612 12.3543 19.9135C12.3543 20.4657 11.9066 20.9135 11.3543 20.9135L1.27554 20.9135C0.723258 20.9135 0.275543 20.4657 0.275543 19.9135Z" fill="#724100"/>
<path fill-rule="evenodd" clip-rule="evenodd" d="M0.275543 30.4961C0.275543 29.9438 0.723258 29.4961 1.27554 29.4961L11.3543 29.4961C11.9066 29.4961 12.3543 29.9438 12.3543 30.4961C12.3543 31.0484 11.9066 31.4961 11.3543 31.4961L1.27554 31.4961C0.723258 31.4961 0.275543 31.0484 0.275543 30.4961Z" fill="#724100"/>
<path fill-rule="evenodd" clip-rule="evenodd" d="M0.275543 41.0787C0.275543 40.5265 0.723258 40.0787 1.27554 40.0787L11.3543 40.0787C11.9066 40.0787 12.3543 40.5265 12.3543 41.0787C12.3543 41.631 11.9066 42.0787 11.3543 42.0787L1.27554 42.0787C0.723258 42.0787 0.275543 41.631 0.275543 41.0787Z" fill="#724100"/>
<path fill-rule="evenodd" clip-rule="evenodd" d="M0.275543 51.6615C0.275543 51.1092 0.723258 50.6615 1.27554 50.6615L11.3543 50.6615C11.9066 50.6615 12.3543 51.1092 12.3543 51.6615C12.3543 52.2138 11.9066 52.6615 11.3543 52.6615L1.27554 52.6615C0.723258 52.6615 0.275543 52.2138 0.275543 51.6615Z" fill="#724100"/>
<path opacity="0.4" fill-rule="evenodd" clip-rule="evenodd" d="M24 19.5C27.866 19.5 31 16.366 31 12.5C31 8.63401 27.866 5.5 24 5.5C20.134 5.5 17 8.63401 17 12.5C17 16.366 20.134 19.5 24 19.5Z" fill="#FFB71B"/>
<path fill-rule="evenodd" clip-rule="evenodd" d="M24 18.3848C27.2501 18.3848 29.8848 15.7501 29.8848 12.5C29.8848 9.24991 27.2501 6.6152 24 6.6152C20.7499 6.6152 18.1152 9.24991 18.1152 12.5C18.1152 15.7501 20.7499 18.3848 24 18.3848ZM24 19.5C27.866 19.5 31 16.366 31 12.5C31 8.63401 27.866 5.5 24 5.5C20.134 5.5 17 8.63401 17 12.5C17 16.366 20.134 19.5 24 19.5Z" fill="#724100"/>
<path fill-rule="evenodd" clip-rule="evenodd" d="M27.2567 9.59369C27.5096 9.7626 27.5761 10.1022 27.4052 10.3522L23.544 16L20.1694 12.7892C19.9495 12.5799 19.9429 12.2341 20.1546 12.0168C20.3663 11.7994 20.7162 11.7928 20.9361 12.0021L23.3639 14.3121L26.4893 9.74049C26.6602 9.49051 27.0038 9.42479 27.2567 9.59369Z" fill="#724100"/>
<path opacity="0.4" fill-rule="evenodd" clip-rule="evenodd" d="M24 37.5C27.866 37.5 31 34.366 31 30.5C31 26.634 27.866 23.5 24 23.5C20.134 23.5 17 26.634 17 30.5C17 34.366 20.134 37.5 24 37.5Z" fill="#FFB71B"/>
<path fill-rule="evenodd" clip-rule="evenodd" d="M24 36.3848C27.2501 36.3848 29.8848 33.7501 29.8848 30.5C29.8848 27.2499 27.2501 24.6152 24 24.6152C20.7499 24.6152 18.1152 27.2499 18.1152 30.5C18.1152 33.7501 20.7499 36.3848 24 36.3848ZM24 37.5C27.866 37.5 31 34.366 31 30.5C31 26.634 27.866 23.5 24 23.5C20.134 23.5 17 26.634 17 30.5C17 34.366 20.134 37.5 24 37.5Z" fill="#724100"/>
<path fill-rule="evenodd" clip-rule="evenodd" d="M27.2567 27.5937C27.5096 27.7626 27.5761 28.1022 27.4052 28.3522L23.544 34L20.1694 30.7892C19.9495 30.5799 19.9429 30.2341 20.1546 30.0168C20.3663 29.7994 20.7162 29.7928 20.9361 30.0021L23.3639 32.3121L26.4893 27.7405C26.6602 27.4905 27.0038 27.4248 27.2567 27.5937Z" fill="#724100"/>
<path opacity="0.4" fill-rule="evenodd" clip-rule="evenodd" d="M24 55.5C27.866 55.5 31 52.366 31 48.5C31 44.634 27.866 41.5 24 41.5C20.134 41.5 17 44.634 17 48.5C17 52.366 20.134 55.5 24 55.5Z" fill="#FFB71B"/>
<path fill-rule="evenodd" clip-rule="evenodd" d="M24 54.3848C27.2501 54.3848 29.8848 51.7501 29.8848 48.5C29.8848 45.2499 27.2501 42.6152 24 42.6152C20.7499 42.6152 18.1152 45.2499 18.1152 48.5C18.1152 51.7501 20.7499 54.3848 24 54.3848ZM24 55.5C27.866 55.5 31 52.366 31 48.5C31 44.634 27.866 41.5 24 41.5C20.134 41.5 17 44.634 17 48.5C17 52.366 20.134 55.5 24 55.5Z" fill="#724100"/>
<path fill-rule="evenodd" clip-rule="evenodd" d="M27.2567 45.5937C27.5096 45.7626 27.5761 46.1022 27.4052 46.3522L23.544 52L20.1694 48.7892C19.9495 48.5799 19.9429 48.2341 20.1546 48.0168C20.3663 47.7994 20.7162 47.7928 20.9361 48.0021L23.3639 50.3121L26.4893 45.7405C26.6602 45.4905 27.0038 45.4248 27.2567 45.5937Z" fill="#724100"/>
</svg>
