<svg width="64" height="64" viewBox="0 0 64 64" fill="none" xmlns="http://www.w3.org/2000/svg">
<path fill-rule="evenodd" clip-rule="evenodd" d="M32 57.5692C46.1215 57.5692 57.5692 46.1215 57.5692 32C57.5692 17.8785 46.1215 6.43079 32 6.43079C17.8785 6.43079 6.43079 17.8785 6.43079 32C6.43079 46.1215 17.8785 57.5692 32 57.5692ZM32 59.5692C47.2261 59.5692 59.5692 47.2261 59.5692 32C59.5692 16.774 47.2261 4.43079 32 4.43079C16.774 4.43079 4.43079 16.774 4.43079 32C4.43079 47.2261 16.774 59.5692 32 59.5692Z" fill="#724100"/>
<path opacity="0.4" fill-rule="evenodd" clip-rule="evenodd" d="M31.9998 21.3656C33.3379 20.3727 35.4445 19.2317 37.8314 18.8789C40.7363 18.4496 44.023 19.2033 46.6973 22.6483C48.7856 25.3382 48.7767 28.4546 47.7427 31.4389C46.7184 34.3952 44.6582 37.3391 42.4335 39.9151C40.1979 42.5037 37.7393 44.7853 35.8466 46.4154C34.8986 47.2319 34.0888 47.8881 33.5147 48.3412C33.2276 48.5678 32.9992 48.7438 32.8417 48.8638C32.763 48.9238 32.7019 48.9698 32.6601 49.0012C32.6392 49.0169 32.6231 49.0289 32.6119 49.0371L32.599 49.0467L32.5943 49.0502C32.5943 49.0502 32.5938 49.0506 31.9998 48.2462C31.4057 49.0506 31.4052 49.0502 31.4052 49.0502L31.4005 49.0467L31.3876 49.0371C31.3764 49.0289 31.3603 49.0169 31.3394 49.0012C31.2976 48.9698 31.2365 48.9238 31.1578 48.8638C31.0003 48.7438 30.7719 48.5678 30.4848 48.3412C29.9107 47.8881 29.1009 47.2319 28.153 46.4154C26.2602 44.7853 23.8017 42.5037 21.5661 39.9151C19.3414 37.3391 17.2812 34.3952 16.257 31.4389C15.223 28.4546 15.2141 25.3382 17.3023 22.6483C19.9767 19.2033 23.2633 18.4496 26.1682 18.8789C28.5551 19.2317 30.6616 20.3727 31.9998 21.3656ZM31.9998 48.2462L31.4057 49.0506C31.7588 49.3113 32.2407 49.3113 32.5938 49.0506L31.9998 48.2462Z" fill="#FFB71B"/>
<path fill-rule="evenodd" clip-rule="evenodd" d="M31.9998 21.3656C33.3379 20.3727 35.4445 19.2317 37.8314 18.8789C40.7363 18.4496 44.023 19.2033 46.6973 22.6483C48.7856 25.3382 48.7767 28.4546 47.7427 31.4389C46.7184 34.3952 44.6582 37.3391 42.4335 39.9151C40.1979 42.5037 37.7393 44.7853 35.8466 46.4154C34.8986 47.2319 34.0888 47.8881 33.5147 48.3412C33.2276 48.5678 32.9992 48.7438 32.8417 48.8638C32.763 48.9238 32.7019 48.9698 32.6601 49.0012C32.6392 49.0169 32.6231 49.0289 32.6119 49.0371L32.599 49.0467L32.5943 49.0502C32.594 49.0504 32.5938 49.0506 31.9998 48.2462C31.4057 49.0506 31.4055 49.0504 31.4052 49.0502L31.4005 49.0467L31.3876 49.0371C31.3764 49.0289 31.3603 49.0169 31.3394 49.0012C31.2976 48.9698 31.2365 48.9238 31.1578 48.8638C31.0003 48.7438 30.7719 48.5678 30.4848 48.3412C29.9107 47.8881 29.1009 47.2319 28.153 46.4154C26.2602 44.7853 23.8017 42.5037 21.5661 39.9151C19.3414 37.3391 17.2812 34.3952 16.257 31.4389C15.223 28.4546 15.2141 25.3382 17.3023 22.6483C19.9767 19.2033 23.2633 18.4496 26.1682 18.8789C28.5551 19.2317 30.6616 20.3727 31.9998 21.3656ZM31.9998 48.2462L31.4057 49.0506C31.7588 49.3113 32.2407 49.3113 32.5938 49.0506L31.9998 48.2462ZM31.9998 46.9876C32.0838 46.9222 32.176 46.85 32.2756 46.7713C32.8309 46.3331 33.6182 45.6951 34.5414 44.9C36.3909 43.307 38.7708 41.0962 40.9198 38.6079C43.0797 36.107 44.9503 33.3893 45.8529 30.7841C46.7458 28.2069 46.66 25.8617 45.1175 23.8747C42.9327 21.0604 40.3938 20.5219 38.1238 20.8574C35.7749 21.2046 33.6837 22.5038 32.6573 23.3996C32.2806 23.7284 31.7189 23.7284 31.3422 23.3996C30.3158 22.5038 28.2247 21.2046 25.8758 20.8574C23.6059 20.5219 21.067 21.0604 18.8822 23.8747C17.3396 25.8617 17.2538 28.2069 18.1468 30.7841C19.0494 33.3893 20.92 36.107 23.0798 38.6079C25.2288 41.0963 27.6086 43.307 29.4581 44.9C30.3813 45.6951 31.1687 46.3331 31.7239 46.7713C31.8235 46.85 31.9157 46.9222 31.9998 46.9876Z" fill="#724100"/>
</svg>
