<svg width="60" height="63" viewBox="0 0 60 63" fill="none" xmlns="http://www.w3.org/2000/svg">
<path opacity="0.4" fill-rule="evenodd" clip-rule="evenodd" d="M30 56.1231C36.9333 56.1231 42.5538 50.5025 42.5538 43.5692C42.5538 36.6359 36.9333 31.0154 30 31.0154C23.0667 31.0154 17.4461 36.6359 17.4461 43.5692C17.4461 50.5025 23.0667 56.1231 30 56.1231Z" fill="#FFB71B"/>
<path fill-rule="evenodd" clip-rule="evenodd" d="M30 54.1231C35.8287 54.1231 40.5538 49.398 40.5538 43.5692C40.5538 37.7405 35.8287 33.0154 30 33.0154C24.1713 33.0154 19.4461 37.7405 19.4461 43.5692C19.4461 49.398 24.1713 54.1231 30 54.1231ZM30 56.1231C36.9333 56.1231 42.5538 50.5025 42.5538 43.5692C42.5538 36.6359 36.9333 31.0154 30 31.0154C23.0667 31.0154 17.4461 36.6359 17.4461 43.5692C17.4461 50.5025 23.0667 56.1231 30 56.1231Z" fill="#724100"/>
<path fill-rule="evenodd" clip-rule="evenodd" d="M36.2214 38.3099C36.679 38.6191 36.7993 39.2408 36.4901 39.6984L29.5043 50.0373L23.3987 44.1596C23.0009 43.7765 22.9888 43.1435 23.3719 42.7456C23.7549 42.3477 24.388 42.3357 24.7858 42.7187L29.1783 46.9474L34.8329 38.5787C35.1421 38.1211 35.7638 38.0007 36.2214 38.3099Z" fill="#724100"/>
<path opacity="0.4" fill-rule="evenodd" clip-rule="evenodd" d="M4.70383 4.9231C2.63276 4.9231 0.953827 6.60203 0.953827 8.6731V24.75H59.0461V8.6731C59.0461 6.60203 57.3672 4.9231 55.2961 4.9231H4.70383Z" fill="#FFB71B"/>
<path fill-rule="evenodd" clip-rule="evenodd" d="M55.2961 6.9231H4.70383C3.73733 6.9231 2.95383 7.7066 2.95383 8.6731V58.7731C2.95383 59.7396 3.73733 60.5231 4.70383 60.5231H55.2961C56.2626 60.5231 57.0461 59.7396 57.0461 58.7731V8.6731C57.0461 7.7066 56.2626 6.9231 55.2961 6.9231ZM4.70383 4.9231C2.63276 4.9231 0.953827 6.60203 0.953827 8.6731V58.7731C0.953827 60.8442 2.63276 62.5231 4.70383 62.5231H55.2961C57.3672 62.5231 59.0461 60.8442 59.0461 58.7731V8.6731C59.0461 6.60203 57.3672 4.9231 55.2961 4.9231H4.70383Z" fill="#724100"/>
<path fill-rule="evenodd" clip-rule="evenodd" d="M1.24997 24.5C1.24997 23.9477 1.69768 23.5 2.24997 23.5H57.75C58.3023 23.5 58.75 23.9477 58.75 24.5C58.75 25.0523 58.3023 25.5 57.75 25.5H2.24997C1.69768 25.5 1.24997 25.0523 1.24997 24.5Z" fill="#724100"/>
<path fill-rule="evenodd" clip-rule="evenodd" d="M12.7692 0.476929C13.3215 0.476929 13.7692 0.924644 13.7692 1.47693V9.84616C13.7692 10.3984 13.3215 10.8462 12.7692 10.8462C12.2169 10.8462 11.7692 10.3984 11.7692 9.84616V1.47693C11.7692 0.924644 12.2169 0.476929 12.7692 0.476929Z" fill="#724100"/>
<path fill-rule="evenodd" clip-rule="evenodd" d="M30 0.476929C30.5523 0.476929 31 0.924644 31 1.47693V9.84616C31 10.3984 30.5523 10.8462 30 10.8462C29.4477 10.8462 29 10.3984 29 9.84616V1.47693C29 0.924644 29.4477 0.476929 30 0.476929Z" fill="#724100"/>
<path fill-rule="evenodd" clip-rule="evenodd" d="M47.2307 0.476929C47.783 0.476929 48.2307 0.924644 48.2307 1.47693V9.84616C48.2307 10.3984 47.783 10.8462 47.2307 10.8462C46.6785 10.8462 46.2307 10.3984 46.2307 9.84616V1.47693C46.2307 0.924644 46.6785 0.476929 47.2307 0.476929Z" fill="#724100"/>
</svg>
