<svg width="63" height="60" viewBox="0 0 63 60" fill="none" xmlns="http://www.w3.org/2000/svg">
<path opacity="0.4" fill-rule="evenodd" clip-rule="evenodd" d="M35.9379 26.6901C43.2623 26.6901 49.1999 20.7525 49.1999 13.4281C49.1999 6.10372 43.2623 0.166138 35.9379 0.166138C28.6135 0.166138 22.676 6.10372 22.676 13.4281C22.676 20.7525 28.6135 26.6901 35.9379 26.6901Z" fill="#FFB71B"/>
<path fill-rule="evenodd" clip-rule="evenodd" d="M35.9379 24.6901C42.1577 24.6901 47.1999 19.6479 47.1999 13.4281C47.1999 7.20829 42.1577 2.16614 35.9379 2.16614C29.7181 2.16614 24.676 7.20829 24.676 13.4281C24.676 19.6479 29.7181 24.6901 35.9379 24.6901ZM35.9379 26.6901C43.2623 26.6901 49.1999 20.7525 49.1999 13.4281C49.1999 6.10372 43.2623 0.166138 35.9379 0.166138C28.6135 0.166138 22.676 6.10372 22.676 13.4281C22.676 20.7525 28.6135 26.6901 35.9379 26.6901Z" fill="#724100"/>
<path d="M37.4838 12.2432C36.9425 12.0258 35.5011 11.704 35.288 11.0648C34.9923 10.2126 35.9924 9.50816 37.0273 9.93428C37.386 10.0821 37.7143 10.1973 38.0904 10.0973C39.0905 9.83645 39.4666 8.49286 38.4187 7.74062C38.013 7.46727 37.5464 7.29779 37.0599 7.24711V6.65792C37.0599 6.37769 36.9486 6.10894 36.7504 5.91079C36.5523 5.71264 36.2835 5.60132 36.0033 5.60132C35.723 5.60132 35.4543 5.71264 35.2561 5.91079C35.058 6.10894 34.9467 6.37769 34.9467 6.65792V7.49278C34.7898 7.55647 34.6366 7.62906 34.4879 7.71019C33.9401 8.00644 33.4813 8.44348 33.1587 8.97623C32.8361 9.50898 32.6616 10.1181 32.653 10.7409C32.6438 11.2019 32.7274 11.66 32.8989 12.088C33.0703 12.516 33.3261 12.9052 33.6509 13.2324C34.6184 14.1977 35.5358 14.1651 36.2729 14.5368C37.0099 14.9086 37.0925 15.7652 36.6338 16.3566C36.2403 16.8479 35.5467 16.9131 34.9619 16.7001C34.5271 16.5522 34.127 16.2413 33.6574 16.2913C33.4619 16.3023 33.2715 16.3582 33.101 16.4548C32.9306 16.5513 32.7847 16.6858 32.6747 16.8479C32.4855 17.135 32.4173 17.4851 32.4849 17.8222C32.5525 18.1593 32.7504 18.4561 33.0356 18.648C33.6157 19.0234 34.2696 19.2695 34.9532 19.3698V20.1069C34.9532 20.3871 35.0645 20.6558 35.2626 20.854C35.4608 21.0521 35.7296 21.1635 36.0098 21.1635C36.29 21.1635 36.5588 21.0521 36.7569 20.854C36.9551 20.6558 37.0664 20.3871 37.0664 20.1069V19.1568C38.5231 18.5676 39.5384 17.0762 39.5384 15.2912C39.5219 14.6402 39.3197 14.0075 38.9558 13.4675C38.5918 12.9275 38.0811 12.5027 37.4838 12.2432Z" fill="#724100"/>
<path opacity="0.4" fill-rule="evenodd" clip-rule="evenodd" d="M9.60138 33.3652C10.0061 32.9894 10.6389 33.0129 11.0146 33.4176L23.9003 47.2974C24.0808 47.4918 24.1766 47.7499 24.1668 48.0149C24.1569 48.28 24.0422 48.5302 23.8478 48.7107L15.3582 56.5922C14.9576 56.9641 14.3326 56.9455 13.9549 56.5503L0.868046 42.8573C0.683066 42.6637 0.583421 42.4041 0.591419 42.1365C0.599417 41.8688 0.71439 41.6156 0.910599 41.4335L9.60138 33.3652Z" fill="#FFB71B"/>
<path fill-rule="evenodd" clip-rule="evenodd" d="M9.60132 33.3652C10.0061 32.9894 10.6388 33.0129 11.0146 33.4176L23.9003 47.2974C24.0807 47.4918 24.1765 47.7499 24.1667 48.0149C24.1569 48.28 24.0421 48.5302 23.8478 48.7107L15.3582 56.5922C14.9576 56.9641 14.3326 56.9455 13.9549 56.5503L0.867985 42.8573C0.683005 42.6637 0.58336 42.4041 0.591358 42.1365C0.599356 41.8688 0.714329 41.6156 0.910538 41.4335L9.60132 33.3652ZM3.01485 42.2089L14.7198 54.4559L21.7542 47.9253L10.2292 35.5113L3.01485 42.2089Z" fill="#724100"/>
<path d="M12.076 41.8412C12.028 43.1328 10.942 44.141 9.65036 44.0931C8.35871 44.0451 7.35052 42.9591 7.39849 41.6675C7.44646 40.3758 8.53244 39.3676 9.82409 39.4156C11.1157 39.4636 12.1239 40.5495 12.076 41.8412Z" fill="#724100"/>
<path d="M30.5698 37.8442C30.5485 38.4183 30.0658 38.8663 29.4918 38.845C28.9177 38.8237 28.4696 38.341 28.4909 37.767C28.5123 37.1929 28.9949 36.7448 29.569 36.7661C30.143 36.7875 30.5911 37.2701 30.5698 37.8442Z" fill="#724100"/>
<path fill-rule="evenodd" clip-rule="evenodd" d="M54.7696 27.5461L46.6895 34.7172C46.2765 35.0837 45.6444 35.0461 45.2778 34.633C44.9112 34.2199 44.9489 33.5879 45.362 33.2213L53.4965 26.0019L53.5239 25.9808C54.0675 25.5617 54.9831 25.1005 56.0584 25.0127C57.1783 24.9214 58.4433 25.2417 59.5476 26.3572C60.5828 27.403 61.0081 28.4935 61.0326 29.4878C61.0563 30.4504 60.7015 31.2453 60.3052 31.7222L60.2874 31.7436L50.3637 42.4208C49.78 43.0817 48.7626 44.0408 47.5422 44.8469C46.3335 45.6451 44.8032 46.375 43.2314 46.3876C40.6406 46.4083 31.2761 46.2413 26.9219 46.1555L20.9312 46.1625C20.379 46.1631 19.9307 45.7159 19.9301 45.1636C19.9294 44.6114 20.3766 44.1631 20.9289 44.1625L26.9404 44.1555L26.9508 44.1557C31.3168 44.2418 40.6578 44.4081 43.2154 44.3876C44.2189 44.3796 45.358 43.8925 46.44 43.178C47.5038 42.4754 48.3939 41.6316 48.8717 41.0888L48.8806 41.0787L58.7799 30.4278C58.8839 30.293 59.044 29.973 59.0332 29.5371C59.0228 29.1144 58.8488 28.4942 58.1262 27.7643C57.4728 27.1041 56.8042 26.9585 56.221 27.0061C55.6105 27.0559 55.0671 27.3247 54.7696 27.5461Z" fill="#724100"/>
<path fill-rule="evenodd" clip-rule="evenodd" d="M42.7599 36.1319L33.328 36.5051C32.7761 36.5269 32.3465 36.992 32.3683 37.5438C32.3901 38.0957 32.8552 38.5254 33.407 38.5035L42.9323 38.1267L42.9762 38.121C43.657 38.0334 44.6308 37.7126 45.4535 37.0148C46.3104 36.288 46.9791 35.1674 46.972 33.5977C46.9654 32.1387 46.5165 31.0667 45.8339 30.3519C45.1733 29.6603 44.3413 29.3582 43.6682 29.357C43.6669 29.357 43.6656 29.357 43.6642 29.357L29.5731 29.2601C29.0255 29.2382 28.4194 29.1257 27.6958 28.9616C27.4772 28.9121 27.2449 28.857 27.002 28.7995C26.4653 28.6723 25.8769 28.5329 25.2711 28.4134C23.4636 28.057 21.3127 27.8343 18.7154 28.3648L18.6402 28.3802L18.5682 28.4068C16.4504 29.1913 12.8335 31.1458 11.924 36.1718C11.8257 36.7153 12.1865 37.2356 12.73 37.3339C13.2734 37.4323 13.7937 37.0714 13.8921 36.528C14.6101 32.5598 17.3744 30.9956 19.1912 30.3091C21.411 29.8682 23.255 30.0544 24.8841 30.3756C25.4531 30.4878 25.9752 30.6116 26.4924 30.7343C26.7456 30.7944 26.9977 30.8541 27.2535 30.9121C28.0032 31.0821 28.7655 31.2315 29.5134 31.2593L29.5285 31.2599L43.6608 31.357L43.6642 31.357C43.7819 31.357 44.0963 31.4283 44.3876 31.7333C44.6581 32.0166 44.9673 32.5671 44.972 33.6067C44.9762 34.5355 44.6061 35.1111 44.1599 35.4895C43.6963 35.8827 43.1272 36.0766 42.7599 36.1319Z" fill="#724100"/>
</svg>
