<svg width="65" height="54" viewBox="0 0 65 54" fill="none" xmlns="http://www.w3.org/2000/svg">
<path d="M9.77124 8.47674C9.77124 7.24519 8.77374 6.26257 7.55311 6.26257C6.31936 6.26257 5.33499 7.25829 5.33499 8.47674C5.33499 9.38075 5.87311 10.1406 6.63436 10.4944V16.1805C3.85186 16.9011 1.62061 19.0235 0.819981 21.8404C0.728106 22.1679 0.649356 22.4955 0.596856 22.823C0.465605 23.6746 0.465605 24.5393 0.609981 25.3778C1.12186 28.4305 3.32686 30.9853 6.27999 31.8893C6.47686 31.9548 7.63186 32.3479 7.76311 32.2037L7.90749 32.0596C7.92061 32.0334 7.92061 32.0072 7.92061 31.9941H7.93374C8.22249 31.9941 8.47186 31.7583 8.47186 31.457V10.4944C9.23311 10.1537 9.77124 9.38075 9.77124 8.47674Z" fill="#00205C"/>
<path d="M33.6457 1.87353C40.5232 1.87353 46.9282 4.58556 51.7057 9.52486L51.7188 9.53797L51.7451 9.56417C51.7976 9.61657 51.8501 9.66898 51.8894 9.72139V9.73449L51.9026 9.74759L51.9682 9.8131C52.2307 10.0882 52.4932 10.3896 52.7557 10.6909L52.7819 10.7171C52.8213 10.7695 52.8607 10.8088 52.9001 10.8612L52.9263 10.8874L52.9526 10.9267L53.097 11.0971V11.1102L53.1101 11.1233C53.3726 11.4377 53.6219 11.7652 53.8582 12.0797L53.8976 12.1321L53.9501 12.1976L54.0288 12.3024L54.0419 12.3155L54.0551 12.3286L54.0682 12.3548L54.1207 12.4334L54.1863 12.5251L54.1994 12.5382C54.2126 12.5644 54.2257 12.5775 54.2388 12.6037C54.2782 12.6561 54.3044 12.6955 54.3438 12.7479L54.3832 12.8003C54.5145 12.9837 54.6326 13.1671 54.7507 13.3636L54.777 13.4029L54.7901 13.416C54.8163 13.4684 54.8557 13.5078 54.8819 13.5602L54.9345 13.6388L55.0395 13.796L55.0788 13.8615L55.1182 13.9139L55.1707 14.0056L55.1838 14.0318L55.2101 14.0711L55.2232 14.0842L55.3019 14.2152L55.3282 14.2545L55.3413 14.2807L55.3545 14.2938L55.3676 14.3069C55.4726 14.4904 55.5776 14.6738 55.6826 14.8572L55.6957 14.8834L55.7351 14.9489L55.8138 15.0799L55.827 15.093L55.8401 15.1192L55.8532 15.1586L55.8663 15.1848L55.8795 15.211C55.9057 15.2503 55.9188 15.2896 55.9451 15.3289L55.9582 15.342L55.9713 15.3551L56.0238 15.4468L56.1026 15.5909L56.1157 15.6302L56.142 15.6957L56.1682 15.7481L56.2076 15.8398L56.2207 15.866L56.2338 15.8922L56.2601 15.9315L56.2732 15.9446L56.2863 15.9577C56.3388 16.0757 56.3913 16.1805 56.4438 16.2984C56.457 16.3246 56.4701 16.3377 56.4701 16.3639L56.4832 16.4032L56.5226 16.4949L56.5488 16.5473L56.562 16.5866L56.5882 16.639L56.6276 16.7176L56.6407 16.7438L56.6538 16.77L56.667 16.8094L56.6932 16.8618L56.7195 16.9273L56.7457 16.9797L56.7851 17.0714L56.8113 17.1238L56.8376 17.1893L56.8638 17.2679L56.8901 17.3465L56.9163 17.3989L56.9426 17.4644L56.9295 17.5168L56.9426 17.543C56.9557 17.5823 56.9688 17.6086 56.982 17.6479C57.0082 17.7134 57.0345 17.7789 57.0607 17.8444L57.1001 17.9361L57.1395 18.054L57.1526 18.1064L57.1788 18.185C57.192 18.2243 57.2051 18.2636 57.2182 18.3029L57.2707 18.434L57.297 18.4995L57.3101 18.5519L57.3232 18.5781L57.3363 18.6043L57.3495 18.6436L57.3757 18.7091L57.402 18.7877L57.4151 18.8401C57.4282 18.8925 57.4545 18.9449 57.4545 18.9711L57.507 19.1283L57.5332 19.1938L57.5463 19.2463V19.2594V19.2725C57.5595 19.3118 57.5726 19.3511 57.5857 19.4035V19.4166V19.4297L57.612 19.4952L57.6251 19.5476L57.6513 19.6393L57.6907 19.7572C57.7038 19.8096 57.717 19.8489 57.7301 19.9013L57.7563 19.9799L57.7826 20.0586L57.822 20.1765V20.1896L57.8482 20.2682L57.8613 20.3337V20.3468V20.3599L57.8745 20.4254V20.4385L57.9007 20.5433L57.9138 20.5957V20.6088V20.6219L57.9401 20.7136L57.9532 20.7398L57.9926 20.8971L58.0057 20.9495L58.032 21.0412L58.0582 21.146L58.0713 21.2246L58.0845 21.3032V21.3294C58.0976 21.408 58.1238 21.4866 58.137 21.5652V21.5783V21.5914L58.1501 21.6569L58.1632 21.6962L58.242 21.7749L58.2551 21.8404L58.2813 21.9714L58.3207 22.1417L58.3338 22.2334V22.2727L58.347 22.3513L58.3601 22.4168C58.3732 22.4561 58.3732 22.4954 58.3863 22.5348V22.5479L58.3995 22.6265L58.4126 22.7313L58.4257 22.7837L58.4388 22.8492C58.452 22.9147 58.4651 22.9933 58.4782 23.0588L58.4913 23.0981V23.1112V23.1505C58.5045 23.2029 58.5045 23.2553 58.5176 23.3077L58.5307 23.4126V23.4519L58.5438 23.5305L58.557 23.6222L58.5701 23.7139V23.7401C58.5701 23.7794 58.5832 23.8056 58.5832 23.8449L58.5963 23.9366L58.6095 24.0152V24.0676L58.6226 24.1462C58.6226 24.1987 58.6357 24.2511 58.6357 24.3035V24.3297V24.3559L58.6488 24.4345L58.662 24.5393L58.6751 24.6441C58.6751 24.6834 58.6882 24.7227 58.6882 24.762C58.7013 24.8406 58.7013 24.9192 58.7013 24.9979V25.0241C58.7145 25.1289 58.7145 25.2206 58.7276 25.3385V25.3647V25.4171C58.7276 25.4826 58.7407 25.5481 58.7407 25.6136V25.6267V25.6398V25.7184V25.7315V25.7577V25.8364V25.915V26.0067V26.0198V26.0329V26.1246V26.2163V26.3342V26.3473V26.3604C58.7407 26.4128 58.7407 26.4783 58.7407 26.5307V26.57V26.5831C58.7407 26.6094 58.7407 26.6487 58.7407 26.6749C58.7407 26.7666 58.7407 26.8583 58.7407 26.95C58.7407 27.1596 58.7407 27.3561 58.7276 27.5658L58.6882 29.4786H58.7276V51.1093C58.7276 51.6203 58.3076 52.0396 57.7957 52.0396C53.9763 51.9216 50.3276 50.9652 46.9676 49.1965L46.1013 48.738L45.2351 49.1965C41.6257 51.0831 37.7144 52.0396 33.6063 52.0396C29.6032 52.0396 25.7838 51.1355 22.2532 49.3406L22.1875 49.3144L22.0038 49.2227L21.925 49.1834L21.7807 49.1048L21.7282 49.0786H21.715L21.5969 49.0131L21.5182 48.9738C21.505 48.9607 21.4788 48.9607 21.4657 48.9476L21.3344 48.8821L21.2163 48.7904L21.085 48.738C20.6257 48.4759 20.1794 48.2008 19.7463 47.9126L19.7069 47.8863L19.6019 47.8208L19.5232 47.7684C19.4969 47.7553 19.4707 47.7291 19.4444 47.716L19.405 47.6898L19.3 47.6243C19.2869 47.6112 19.2738 47.6112 19.2607 47.5981L19.2344 47.5719L19.2082 47.5588C19.1557 47.5326 19.1163 47.4933 19.09 47.4802C19.0638 47.454 19.0375 47.4409 18.9982 47.4147L18.88 47.323L18.8407 47.2968L18.8144 47.2706L18.7882 47.2575L18.6044 47.1134L18.5782 47.0872L18.565 47.0741L18.5519 47.0609C18.4994 47.0216 18.4469 46.9823 18.3944 46.943L18.3813 46.9299L18.3682 46.9168L18.3419 46.8906L18.2238 46.7989L18.1319 46.7334C17.9875 46.6155 17.83 46.4976 17.6857 46.3797L17.6594 46.3535L17.6463 46.3404L17.6069 46.3011L17.5019 46.2093L17.4757 46.1962L17.4494 46.1831L17.41 46.1438C17.3707 46.1045 17.3313 46.0783 17.2788 46.039L17.2657 46.0259L17.2525 46.0128L17.2263 45.9997L17.2 45.9735L17.1213 45.908L17.0557 45.8556L16.9769 45.7901L16.9375 45.7508L16.885 45.7115L16.8588 45.6853L16.8325 45.6591L16.8063 45.6329L16.78 45.6067L16.7013 45.5412L16.6619 45.5019L16.6488 45.4888L16.6357 45.4757L16.5832 45.4232L16.4519 45.3053L16.3732 45.2398L16.2682 45.1481L16.2419 45.1219L16.2157 45.0957L16.1763 45.0564L16.1632 45.0433L16.15 45.0302C16.1107 44.9909 16.0844 44.9647 16.045 44.9254L16.0188 44.8992L15.9663 44.8468L15.9269 44.8075L15.8613 44.742L15.7563 44.6372L15.7432 44.5454L15.6907 44.493L15.5332 44.3227L15.4675 44.2572L15.4282 44.2179L15.3888 44.1786L15.3232 44.1131L15.2707 44.0607L15.2575 44.0345L15.2313 44.0083L15.1788 43.9559L15.1394 43.9166L15.1132 43.8904L15.0738 43.838L15.0213 43.7855L14.9688 43.7331C14.9425 43.6938 14.9032 43.6545 14.8769 43.6283C14.8507 43.6021 14.8244 43.5628 14.785 43.5366L14.7719 43.5235L14.7588 43.5104L14.7325 43.4842L14.6932 43.4318L14.5882 43.3139L14.5488 43.2746L14.4963 43.2222C14.47 43.1829 14.4307 43.1567 14.3913 43.1043L14.3388 43.0388L14.2994 42.9864L14.2207 42.8946L14.1813 42.8422L14.1419 42.8029L14.0632 42.7112L14.0238 42.6588L14.0107 42.6457L13.8925 42.5016C13.8794 42.4885 13.8663 42.4623 13.8532 42.4492C13.6694 42.2134 13.4725 41.9513 13.2757 41.6893L13.2625 41.6762L13.2232 41.5714C13.1969 41.5321 13.1707 41.4928 13.1313 41.4535L13.1182 41.4273C13.105 41.4011 13.0919 41.388 13.0788 41.3749L13.0132 41.27L12.9738 41.2176C12.9607 41.1914 12.9344 41.1652 12.9213 41.1521C12.8819 41.0997 12.8557 41.0473 12.8163 40.9949L12.7769 40.9425C12.7375 40.8901 12.7113 40.8377 12.6719 40.7853L12.6588 40.746L12.6457 40.7198V40.7067L12.5407 40.5364L12.5275 40.5101L12.4882 40.4839C12.4488 40.4315 12.4225 40.3791 12.3832 40.3267L12.37 40.3005L12.3569 40.2874L12.3438 40.2612C12.3175 40.2219 12.2913 40.1957 12.2782 40.1564L12.2257 40.0778C11.9763 39.6716 11.7269 39.2524 11.5038 38.8331L11.4382 38.7152C11.4119 38.6497 11.3725 38.5973 11.3463 38.5318L11.3332 38.4925V38.4794L11.2544 38.3222V38.3091L11.215 38.2436C11.1888 38.1912 11.1625 38.1257 11.1232 38.0733L11.11 38.047L11.0707 37.9553C11.0182 37.8898 11.005 37.8505 10.9919 37.8243L10.9788 37.785L10.9525 37.7195L10.9394 37.6933C10.6375 37.0644 10.375 36.4224 10.1257 35.7805L10.0338 35.5446C10.0075 35.466 9.98128 35.4005 9.95503 35.3219L9.90253 35.1778V35.1647C9.8894 35.1385 9.87628 35.0992 9.87628 35.073L9.86315 35.0337L9.81065 34.9289L9.7844 34.8503L9.77128 34.8372C9.49565 34.0118 9.27253 33.1733 9.08877 32.3348L9.06252 32.2037C8.69502 30.4874 8.51127 28.7187 8.51127 26.9631C8.5244 13.1278 19.7857 1.87353 33.6457 1.87353ZM33.6457 0C18.7357 0 6.64752 12.0666 6.64752 26.95C6.64752 28.8759 6.85752 30.7626 7.23815 32.5837C7.46127 33.6318 7.75002 34.6537 8.07815 35.6495C8.07815 35.6495 8.07815 35.6495 8.07815 35.6626C8.1044 35.7543 8.14377 35.8329 8.17002 35.9246V35.9377C8.19627 36.0294 8.23565 36.108 8.2619 36.1997C8.55065 36.9989 8.8919 37.785 9.2594 38.558L9.27252 38.5711C9.3119 38.6497 9.35128 38.7283 9.39065 38.8069C9.39065 38.82 9.40377 38.82 9.40377 38.8331C9.44315 38.9118 9.48253 38.9904 9.5219 39.0559C9.5219 39.069 9.53502 39.069 9.53502 39.0821C9.5744 39.1607 9.61378 39.2393 9.65315 39.3179C9.65315 39.331 9.66627 39.331 9.66627 39.3441C9.70565 39.4227 9.74503 39.5013 9.7844 39.5799C9.7844 39.5799 9.7844 39.5799 9.7844 39.593C10.0469 40.0909 10.3357 40.5757 10.6244 41.0604C10.6638 41.1259 10.7163 41.2045 10.7557 41.27C10.7688 41.2831 10.7688 41.2962 10.7819 41.3093C10.8213 41.3749 10.8607 41.4404 10.9132 41.5059C10.9263 41.519 10.9394 41.5452 10.9394 41.5583C10.9788 41.6238 11.0182 41.6893 11.0575 41.7417C11.0707 41.7548 11.0838 41.781 11.0969 41.7941C11.1363 41.8596 11.1757 41.912 11.215 41.9775C11.2282 42.0037 11.2413 42.0168 11.2544 42.0299C11.2938 42.0954 11.3332 42.1479 11.3725 42.2134C11.3857 42.2265 11.3988 42.2527 11.4119 42.2658C11.4513 42.3313 11.4907 42.3837 11.5432 42.4492C11.5563 42.4623 11.5694 42.4754 11.5694 42.5016C11.6088 42.5671 11.6613 42.6326 11.7007 42.685C11.7138 42.6981 11.7138 42.6981 11.7138 42.7112C11.9238 42.9995 12.1338 43.2877 12.3569 43.5628C12.37 43.5759 12.37 43.589 12.3832 43.589C12.4225 43.6414 12.475 43.6938 12.5144 43.7593C12.5275 43.7856 12.5538 43.7987 12.5669 43.8249C12.6063 43.8773 12.6457 43.9297 12.685 43.9821C12.7113 44.0083 12.7244 44.0345 12.7507 44.0607C12.79 44.1131 12.8294 44.1524 12.8688 44.2048C12.895 44.231 12.9213 44.2572 12.9344 44.2834C12.9738 44.3227 13.0132 44.3751 13.0525 44.4144C13.0788 44.4406 13.105 44.4799 13.1313 44.5061C13.1707 44.5454 13.21 44.5978 13.2494 44.6372C13.2757 44.6634 13.3019 44.7027 13.3282 44.7289C13.3675 44.7682 13.4069 44.8206 13.4463 44.8599C13.4725 44.8861 13.4988 44.9254 13.525 44.9516C13.5644 44.9909 13.6038 45.0302 13.6432 45.0826C13.6694 45.1088 13.6957 45.1481 13.7219 45.1743C13.7613 45.2136 13.8007 45.2529 13.84 45.2922C13.8663 45.3315 13.9057 45.3577 13.9319 45.3839C13.9713 45.4232 14.0107 45.4626 14.0369 45.5019C14.0763 45.5412 14.1025 45.5674 14.1419 45.6067C14.1944 45.6722 14.26 45.7246 14.3125 45.7901C14.3519 45.8294 14.3913 45.8818 14.4438 45.9211C14.47 45.9473 14.5094 45.9866 14.5357 46.0128C14.575 46.0521 14.6144 46.0914 14.6538 46.1307C14.68 46.1569 14.7194 46.1962 14.7457 46.2224C14.785 46.2617 14.8244 46.3011 14.8638 46.3404C14.89 46.3666 14.9294 46.4059 14.9557 46.4321C14.995 46.4714 15.0344 46.5107 15.0738 46.55C15.1 46.5762 15.1394 46.6024 15.1657 46.6417C15.205 46.681 15.2444 46.7203 15.2838 46.7596C15.31 46.7858 15.3494 46.812 15.3757 46.8382C15.415 46.8775 15.4675 46.9168 15.5069 46.9561C15.5332 46.9823 15.5725 47.0085 15.5988 47.0347C15.6382 47.0741 15.6907 47.1134 15.73 47.1527C15.7563 47.1789 15.7825 47.2051 15.8219 47.2313C15.8744 47.2706 15.9138 47.3099 15.9663 47.3623C15.9925 47.3885 16.0188 47.4016 16.045 47.4278C16.0975 47.4671 16.15 47.5195 16.2025 47.5588C16.2288 47.5719 16.2419 47.5981 16.2682 47.6112C16.3338 47.6636 16.3994 47.716 16.465 47.7815C16.4782 47.7946 16.4782 47.7946 16.4913 47.8077C16.6488 47.9388 16.8063 48.0567 16.9638 48.1877L16.9769 48.2008C17.0557 48.2532 17.1213 48.3187 17.2 48.3711C17.2132 48.3842 17.2263 48.3973 17.2394 48.3973C17.305 48.4497 17.3707 48.5021 17.4363 48.5414C17.4494 48.5545 17.4757 48.5676 17.4888 48.5807C17.5544 48.62 17.6069 48.6724 17.6725 48.7118C17.6988 48.7249 17.7119 48.738 17.7382 48.7511C17.8038 48.7904 17.8563 48.8428 17.9219 48.8821C17.9482 48.8952 17.9613 48.9083 17.9875 48.9214C18.0532 48.9607 18.1057 49.0131 18.1713 49.0524C18.1844 49.0655 18.2107 49.0786 18.2238 49.0917C18.2894 49.131 18.355 49.1834 18.4207 49.2227C18.4338 49.2358 18.4469 49.2489 18.4732 49.2489C18.5388 49.3013 18.6175 49.3406 18.6963 49.393C18.7094 49.4061 18.7225 49.4061 18.7225 49.4192C19.2344 49.7599 19.7594 50.0743 20.2975 50.3757C20.2975 50.3757 20.3107 50.3757 20.3107 50.3888C20.3894 50.4412 20.4813 50.4805 20.56 50.5329C20.5732 50.5329 20.5732 50.546 20.5863 50.546C20.665 50.5853 20.7569 50.6377 20.8357 50.677C20.8488 50.677 20.8488 50.6901 20.8619 50.6901C20.9407 50.7294 21.0325 50.7818 21.1113 50.8211C21.1244 50.8211 21.1244 50.8211 21.1375 50.8342C21.2294 50.8866 21.3082 50.9259 21.4 50.9652C21.4 50.9652 21.4 50.9652 21.4132 50.9652C25.075 52.8257 29.2225 53.8738 33.6194 53.8738C38.1344 53.8738 42.3869 52.7732 46.1276 50.8211C49.6319 52.6553 53.5957 53.7428 57.7957 53.8738H57.822C59.3707 53.8738 60.6307 52.616 60.6307 51.07V27.6182H60.6176C60.6176 27.3954 60.6307 27.1727 60.6307 26.9631C60.6307 26.8583 60.6307 26.7404 60.6307 26.6356C60.6307 26.5962 60.6307 26.57 60.6307 26.5307C60.6307 26.4521 60.6307 26.3866 60.6307 26.308C60.6307 26.2687 60.6307 26.2294 60.6307 26.177C60.6307 26.1115 60.6307 26.046 60.6176 25.9805C60.6176 25.9412 60.6176 25.8888 60.6176 25.8495C60.6176 25.7839 60.6176 25.7184 60.6045 25.6529C60.6045 25.6136 60.6045 25.5743 60.5913 25.5219C60.5913 25.4564 60.5782 25.3778 60.5782 25.3123C60.5782 25.273 60.5782 25.2468 60.5651 25.2075C60.552 25.1027 60.552 24.9979 60.5388 24.893C60.5388 24.8799 60.5388 24.8668 60.5388 24.8537C60.5257 24.762 60.5257 24.6572 60.5126 24.5655C60.5126 24.5262 60.4995 24.4869 60.4995 24.4476C60.4995 24.3821 60.4863 24.3166 60.4863 24.238C60.4863 24.1987 60.4732 24.1594 60.4732 24.1069C60.4732 24.0414 60.4601 23.9759 60.447 23.9104C60.447 23.8711 60.4338 23.8187 60.4338 23.7794C60.4207 23.7139 60.4207 23.6484 60.4076 23.5829C60.4076 23.5436 60.3945 23.5043 60.3945 23.4519C60.3813 23.3864 60.3813 23.3208 60.3682 23.2422C60.3682 23.2029 60.3551 23.1636 60.3551 23.1374C60.342 23.0326 60.3288 22.9278 60.3157 22.8361C60.3157 22.8099 60.3157 22.7968 60.3026 22.7706C60.2895 22.692 60.2763 22.6003 60.2632 22.5217C60.2501 22.4823 60.2501 22.443 60.2501 22.4037C60.237 22.3382 60.2238 22.2727 60.2107 22.2072C60.1976 22.1679 60.1976 22.1155 60.1845 22.0762C60.1713 22.0107 60.1582 21.9583 60.1451 21.8928C60.132 21.8535 60.132 21.8011 60.1188 21.7618C60.1057 21.6963 60.0926 21.6438 60.0795 21.5783C60.0663 21.539 60.0663 21.4866 60.0532 21.4473C60.0401 21.3818 60.027 21.3163 60.0138 21.2508C60.0007 21.2115 60.0007 21.1722 59.9876 21.1329C59.9613 21.0281 59.9482 20.9364 59.922 20.8315C59.9088 20.8053 59.9088 20.766 59.8957 20.7398C59.8826 20.6743 59.8563 20.5957 59.8432 20.5302C59.8301 20.4909 59.817 20.4516 59.817 20.3992C59.8038 20.3468 59.7907 20.2813 59.7776 20.2289C59.7645 20.1896 59.7513 20.1372 59.7382 20.0979C59.7251 20.0454 59.712 19.993 59.6988 19.9275C59.6857 19.8882 59.6726 19.8358 59.6595 19.7965C59.6463 19.7441 59.6332 19.6917 59.6201 19.6262C59.607 19.5869 59.5938 19.5345 59.5807 19.4952L59.5282 19.3249C59.5151 19.2856 59.502 19.2463 59.4888 19.1938C59.4626 19.1021 59.4363 19.0104 59.4101 18.9318C59.397 18.8925 59.3838 18.8401 59.3707 18.8008C59.3576 18.7353 59.3313 18.6829 59.3182 18.6174C59.3051 18.565 59.292 18.5257 59.2788 18.4733C59.2657 18.4209 59.2395 18.3684 59.2263 18.316C59.2132 18.2636 59.2001 18.2243 59.1738 18.1719C59.1607 18.1195 59.1345 18.0671 59.1213 18.0278C59.1082 17.9754 59.0951 17.9361 59.0688 17.8837C59.0557 17.8313 59.0295 17.792 59.0163 17.7396C59.0032 17.6872 58.977 17.6479 58.9638 17.5954C58.9507 17.543 58.9245 17.4906 58.9113 17.4513C58.8982 17.412 58.872 17.3596 58.8588 17.3072C58.8326 17.2417 58.8063 17.1762 58.7801 17.1107C58.7538 17.0452 58.7276 16.9666 58.7013 16.9011C58.6882 16.8487 58.662 16.8094 58.6488 16.7569C58.6226 16.7045 58.6095 16.6521 58.5832 16.6128C58.5701 16.5735 58.5438 16.5211 58.5307 16.4818C58.5045 16.4294 58.4913 16.377 58.4651 16.3377C58.452 16.2984 58.4257 16.246 58.4126 16.2067C58.3863 16.1543 58.3732 16.1019 58.347 16.0495C58.3338 16.0102 58.3076 15.9709 58.2945 15.9315C58.2682 15.8791 58.2551 15.8267 58.2288 15.7743C58.2157 15.735 58.1895 15.6957 58.1763 15.6564C58.1501 15.604 58.1238 15.5516 58.1107 15.4992C58.0976 15.4861 58.0976 15.473 58.0976 15.4599C58.0451 15.3289 57.9795 15.211 57.9138 15.0799C57.9007 15.0406 57.8745 15.0144 57.8613 14.9751C57.8351 14.9227 57.8088 14.8703 57.7826 14.8179C57.7695 14.7786 57.7432 14.7393 57.7301 14.7131C57.7038 14.6607 57.6776 14.6083 57.6513 14.5559C57.6382 14.5166 57.612 14.4904 57.5988 14.4511C57.5726 14.3987 57.5463 14.3463 57.5201 14.2938C57.507 14.2545 57.4807 14.2283 57.4676 14.189C57.4413 14.1366 57.4151 14.0842 57.3757 14.0187C57.3626 13.9925 57.3495 13.9663 57.3363 13.9401C57.2313 13.7436 57.1132 13.534 56.9951 13.3374C56.982 13.3112 56.9688 13.2981 56.9557 13.2719C56.9163 13.2195 56.8901 13.154 56.8507 13.1016C56.8113 13.1016 56.7982 13.0754 56.7851 13.0492C56.7588 12.9968 56.7195 12.9313 56.6801 12.8789C56.667 12.8527 56.6407 12.8265 56.6276 12.8003C56.5882 12.7479 56.562 12.6823 56.5226 12.6299C56.5095 12.6037 56.4963 12.5775 56.4701 12.5513C56.4307 12.4858 56.3913 12.4334 56.352 12.3679C56.3388 12.3548 56.3388 12.3417 56.3257 12.3286C56.1945 12.119 56.0501 11.9094 55.9057 11.6997C55.8926 11.6866 55.8926 11.6866 55.8795 11.6735C55.8401 11.608 55.7876 11.5556 55.7482 11.4901C55.7351 11.477 55.722 11.4508 55.7088 11.4377C55.6695 11.3722 55.6301 11.3198 55.5776 11.2543C55.5645 11.2412 55.5513 11.215 55.5382 11.2019C55.4988 11.1364 55.4463 11.084 55.407 11.0184C55.3938 11.0053 55.3807 10.9922 55.3676 10.966C55.1051 10.6123 54.8294 10.2586 54.5538 9.91791C54.5407 9.90481 54.5407 9.89171 54.5276 9.89171C54.4751 9.8262 54.4226 9.77379 54.3701 9.70829C54.3569 9.69518 54.3569 9.68208 54.3438 9.66898C54.2913 9.60347 54.2388 9.53796 54.1863 9.48556L54.1732 9.47246C53.8845 9.13182 53.5694 8.79117 53.2676 8.46363C53.2676 8.46363 53.2676 8.46363 53.2545 8.45053C53.1888 8.38502 53.1363 8.31952 53.0707 8.25401C53.0707 8.25401 53.0707 8.24091 53.0576 8.24091C48.1751 3.15749 41.2844 0 33.6457 0Z" fill="#61D8C2"/>
<path d="M29.7343 23.0326C29.0781 23.0326 28.5531 22.4954 28.5531 21.8534C28.5531 20.3599 27.3325 19.1414 25.8362 19.1414C24.34 19.1414 23.1193 20.3599 23.1193 21.8534C23.1193 22.5085 22.5812 23.0326 21.9381 23.0326C21.2818 23.0326 20.7568 22.4954 20.7568 21.8534C20.7568 19.0497 23.0406 16.77 25.8493 16.77C28.6581 16.77 30.9418 19.0497 30.9418 21.8534C30.9287 22.5085 30.3906 23.0326 29.7343 23.0326Z" fill="#0F4F87"/>
<path d="M45.3401 23.0326C44.6838 23.0326 44.1588 22.4954 44.1588 21.8534C44.1588 20.3599 42.9382 19.1414 41.4419 19.1414C39.9457 19.1414 38.7251 20.3599 38.7251 21.8534C38.7251 22.5085 38.1869 23.0326 37.5438 23.0326C36.8875 23.0326 36.3625 22.4954 36.3625 21.8534C36.3625 19.0497 38.6463 16.77 41.4551 16.77C44.2638 16.77 46.5476 19.0497 46.5476 21.8534C46.5213 22.5085 45.9963 23.0326 45.3401 23.0326Z" fill="#0F4F87"/>
<path d="M33.6325 38.4925C21.3868 38.4925 15.9531 29.1249 15.7299 28.7187C15.4149 28.1553 15.6118 27.4217 16.1762 27.1072C16.7537 26.7928 17.4756 26.9893 17.7906 27.5527C17.9874 27.9064 22.7912 36.1211 33.6193 36.1211C44.5 36.1211 49.4087 27.6444 49.4481 27.5527C49.7631 26.9762 50.4981 26.7797 51.0625 27.1072C51.64 27.4217 51.8368 28.1553 51.5087 28.7187C51.3118 29.1249 45.8912 38.4925 33.6325 38.4925Z" fill="#0F4F87"/>
<path d="M64.1875 21.6308C63.3738 18.7877 61.09 16.639 58.255 15.9447V10.4944C59.0163 10.1537 59.5544 9.38075 59.5544 8.47674C59.5544 7.24519 58.5569 6.26257 57.3363 6.26257C56.1025 6.26257 55.1182 7.25829 55.1182 8.47674C55.1182 9.38075 55.6563 10.1406 56.4175 10.4944V31.457C56.4175 31.7452 56.6538 31.9941 56.9557 31.9941H57.2313L57.2444 32.0072C57.2575 32.0072 57.2838 32.0072 57.2969 31.9941H57.73C57.8613 31.9941 57.9794 31.9417 58.0713 31.8631C58.6357 31.7452 59.1738 31.5618 59.6988 31.3259V38.5056C59.6988 43.2484 55.84 47.1003 51.0757 47.1134H43.9619C43.5025 44.231 40.8644 42.2003 37.9375 42.5278C35.2731 42.8291 33.16 45.0957 33.0681 47.7815C32.9631 50.7163 35.2075 53.1925 38.1213 53.4283C40.9694 53.6511 43.5157 51.6465 43.9619 48.8166H51.0757C56.7719 48.8166 61.3919 44.2048 61.3919 38.5187V30.2909C63.9907 28.234 65.0932 24.8144 64.1875 21.6308Z" fill="#00205C"/>
</svg>
