<svg width="48" height="50" viewBox="0 0 48 50" fill="none" xmlns="http://www.w3.org/2000/svg">
<path d="M16.7845 13.7936C17.2098 13.811 17.6805 13.831 18.1276 14.8249C18.4332 15.5044 18.9474 16.7712 19.3572 17.7807C19.6591 18.5246 19.9044 19.1288 19.9677 19.2555C20.1169 19.5539 20.2163 19.9025 20.0174 20.3011C19.9876 20.3606 19.9601 20.4169 19.9337 20.4706C19.7842 20.7758 19.6743 21 19.4211 21.2964C19.3219 21.4123 19.2193 21.5371 19.1167 21.6619C18.9106 21.9125 18.7046 22.1631 18.5257 22.3417C18.2263 22.6392 17.9153 22.9626 18.2635 23.5595C18.6118 24.1571 19.8097 26.1109 21.5841 27.6929C23.4903 29.3924 25.1463 30.1113 25.9872 30.4764C26.1523 30.5481 26.2861 30.6061 26.3841 30.6553C26.981 30.9537 27.3292 30.904 27.6774 30.5051C28.0257 30.1071 29.1689 28.763 29.5669 28.166C29.9649 27.5685 30.3629 27.668 30.91 27.867C31.4573 28.0659 34.3917 29.5101 34.9887 29.8086C35.1051 29.8668 35.2139 29.9193 35.3148 29.968C35.7313 30.169 36.0127 30.3048 36.1328 30.5051C36.282 30.7548 36.282 31.9493 35.7846 33.3429C35.2872 34.7367 32.8502 36.0808 31.7558 36.1803C31.6504 36.1899 31.5457 36.2022 31.438 36.2149C30.4267 36.3338 29.1501 36.4839 24.5932 34.687C18.986 32.4757 15.2889 26.9961 14.5251 25.864C14.4625 25.7712 14.4195 25.7076 14.3969 25.6775L14.3903 25.6686C14.0684 25.2384 11.9597 22.4203 11.9597 19.5042C11.9597 16.7554 13.3108 15.3146 13.9325 14.6516C13.975 14.6063 14.0141 14.5646 14.0491 14.5264C14.5959 13.9291 15.2427 13.7797 15.6406 13.7797C15.6624 13.7797 15.6842 13.7796 15.706 13.7796C16.0818 13.7796 16.4557 13.7796 16.7845 13.7936Z" fill="#FFB71B"/>
<path fill-rule="evenodd" clip-rule="evenodd" d="M3.42169 36.7135C1.30121 33.099 0.192771 29.0026 0.192771 24.7617C0.192771 11.605 10.9398 0.90625 24.0964 0.90625C30.506 0.90625 36.4819 3.41227 41.0121 7.8942C45.494 12.4243 48 18.4002 48 24.8099C48 37.9665 37.253 48.6653 24.0964 48.6653C20.0964 48.6653 16.1446 47.7014 12.6747 45.7737L0 49.099L3.42169 36.7135ZM7.27711 35.3641L7.75903 36.087L5.73494 43.4123L13.253 41.4364L13.9759 41.8701C17.0121 43.7014 20.5301 44.6653 24.0964 44.6653C35.0361 44.6653 43.9518 35.7496 43.9518 24.8099C43.9518 19.5087 41.8795 14.4966 38.1205 10.7376C34.4096 7.02673 29.3976 4.95444 24.0964 4.95444C13.1566 4.95444 4.24096 13.8219 4.24096 24.8099C4.24096 28.5207 5.3012 32.1834 7.27711 35.3641Z" fill="#FFB71B"/>
</svg>
