<svg width="24" height="26" viewBox="0 0 24 26" fill="none" xmlns="http://www.w3.org/2000/svg">
<path d="M8.39223 7.39681C8.60492 7.40552 8.84024 7.41548 9.06382 7.91246C9.21661 8.25221 9.4737 8.88559 9.67858 9.39036C9.82956 9.7623 9.95218 10.0644 9.98384 10.1277C10.0585 10.277 10.1082 10.4512 10.0087 10.6505C9.99381 10.6803 9.98003 10.7084 9.96687 10.7353C9.8921 10.8879 9.83717 11 9.71055 11.1482C9.66094 11.2061 9.60963 11.2685 9.55833 11.3309C9.45531 11.4562 9.35228 11.5816 9.26283 11.6708C9.11313 11.8196 8.95764 11.9813 9.13174 12.2798C9.30589 12.5785 9.90487 13.5554 10.7921 14.3464C11.7452 15.1962 12.5731 15.5557 12.9936 15.7382C13.0762 15.774 13.143 15.8031 13.192 15.8276C13.4905 15.9769 13.6646 15.952 13.8387 15.7525C14.0129 15.5535 14.5845 14.8815 14.7835 14.583C14.9824 14.2842 15.1814 14.334 15.455 14.4335C15.7286 14.533 17.1959 15.2551 17.4943 15.4043C17.5525 15.4334 17.6069 15.4596 17.6574 15.484C17.8657 15.5845 18.0063 15.6524 18.0664 15.7525C18.141 15.8774 18.141 16.4746 17.8923 17.1714C17.6436 17.8683 16.4251 18.5404 15.8779 18.5902C15.8252 18.5949 15.7729 18.6011 15.719 18.6074C15.2133 18.6669 14.575 18.7419 12.2966 17.8435C9.49301 16.7379 7.64445 13.9981 7.26254 13.432C7.23123 13.3856 7.20977 13.3538 7.19846 13.3387L7.19514 13.3343C7.03421 13.1192 5.97984 11.7101 5.97984 10.2521C5.97984 8.87772 6.65542 8.15728 6.96626 7.82581C6.9875 7.80315 7.00703 7.78232 7.02454 7.76322C7.29794 7.46456 7.62133 7.38983 7.82028 7.38983C7.83119 7.38983 7.8421 7.38982 7.853 7.38982C8.0409 7.3898 8.22784 7.38978 8.39223 7.39681Z" fill="#00205C"/>
<path fill-rule="evenodd" clip-rule="evenodd" d="M1.71084 18.8567C0.650603 17.0495 0.0963857 15.0013 0.0963857 12.8808C0.0963857 6.30252 5.46988 0.953125 12.0482 0.953125C15.253 0.953125 18.241 2.20614 20.506 4.4471C22.747 6.71216 24 9.70011 24 12.9049C24 19.4832 18.6265 24.8326 12.0482 24.8326C10.0482 24.8326 8.07229 24.3507 6.33735 23.3869L0 25.0495L1.71084 18.8567ZM3.63855 18.182L3.87952 18.5435L2.86747 22.2061L6.62651 21.2182L6.98795 21.4351C8.50603 22.3507 10.2651 22.8326 12.0482 22.8326C17.5181 22.8326 21.9759 18.3748 21.9759 12.9049C21.9759 10.2543 20.9398 7.74831 19.0602 5.86879C17.2048 4.01337 14.6988 2.97722 12.0482 2.97722C6.57831 2.97722 2.12048 7.41096 2.12048 12.9049C2.12048 14.7604 2.6506 16.5917 3.63855 18.182Z" fill="#00205C"/>
</svg>
