<svg width="24" height="24" viewBox="0 0 24 24" fill="none" xmlns="http://www.w3.org/2000/svg">
<path fill-rule="evenodd" clip-rule="evenodd" d="M21.3767 4.11077C22.4093 4.38675 23.2224 5.20009 23.4984 6.23251C24 8.10435 24 12.0092 24 12.0092C24 12.0092 24 15.9143 23.4984 17.7859C23.2224 18.8184 22.4093 19.6319 21.3767 19.9077C19.505 20.4093 11.9999 20.4093 11.9999 20.4093C11.9999 20.4093 4.49497 20.4093 2.62334 19.9077C1.59071 19.6319 0.777577 18.8184 0.501593 17.7859C0 15.9143 0 12.0092 0 12.0092C0 12.0092 0 8.10435 0.501593 6.23251C0.777577 5.20009 1.59071 4.38675 2.62334 4.11077C4.49497 3.60938 11.9999 3.60938 11.9999 3.60938C11.9999 3.60938 19.505 3.60938 21.3767 4.11077ZM15.8351 12.0094L9.60001 15.6093V8.40918L15.8351 12.0094Z" fill="white"/>
</svg>
